<?xml version="1.0" encoding="UTF-8"?><svg id="Lager_2" xmlns="http://www.w3.org/2000/svg" viewBox="0 0 420.41 707.99"><defs><style>.cls-1,.cls-2,.cls-3{fill:#fff;}.cls-4,.cls-5,.cls-6,.cls-7,.cls-8{stroke:#000;}.cls-4,.cls-5,.cls-7,.cls-8{stroke-miterlimit:10;}.cls-4,.cls-9{fill:none;}.cls-2{fill-rule:evenodd;}.cls-5{fill:#ccc;}.cls-5,.cls-7{stroke-width:.5px;}.cls-6,.cls-3,.cls-9{stroke-linecap:round;stroke-linejoin:round;}.cls-3{stroke:#fff;}.cls-9{stroke:#f2f2f2;}.cls-7{fill:#b3b3b3;}.cls-8{fill:#5bb250;}.cls-10{font-family:Bahnschrift, Bahnschrift;font-size:7.28px;font-variation-settings:'wght' 400, 'wdth' 100;}.cls-11{letter-spacing:-.01em;}</style></defs><g id="Lager_1-2"><path class="cls-8" d="M304.5,638.57v34.63l64,.29v-20.34l42,.34v-76.29l-51,.29v-26h35v-106s25.41,0,25.41,0v-41.96l-42.41-.04v-29s-20.62,0-20.62,0l-.38-65h53.39l-1.39-121-13,4-3-162h-21.64L386.5,.5h-88.43l14.43,30h-20l1,229s31.58,41-.71,85.5l-.29,34.5s-66,12-74,93l-75,1v8H54.5v27H.5v168.93H54.11v30.07h97.39l-.36-31.99,59.36,1v-161.53l12-.47v9.43l16-.43v16.26l25-.26v-16.62l41-.38v105.45"/><line class="cls-4" x1="356.5" y1="309" x2="356.5" y2="293.5"/><line class="cls-4" x1="395.5" y1="192.5" x2="356.5" y2="205.5"/><line class="cls-4" x1="356.5" y1="278.5" x2="356.5" y2="205.5"/><line class="cls-4" x1="292.5" y1="114.5" x2="329.5" y2="114.5"/><line class="cls-4" x1="357" y1="114.5" x2="394" y2="114.5"/><line class="cls-4" x1="292.5" y1="379.5" x2="304.5" y2="384.5"/><line class="cls-4" x1="356.5" y1="403.5" x2="377.5" y2="403.5"/><line class="cls-4" x1="394.5" y1="445.5" x2="359.5" y2="445.5"/><line class="cls-4" x1="359.5" y1="445" x2="359.5" y2="495"/><line class="cls-4" x1="359.5" y1="508" x2="359.5" y2="538.5"/><line class="cls-4" x1="304.5" y1="522.5" x2="326.5" y2="522.5"/><line class="cls-4" x1="359.5" y1="522.5" x2="336.5" y2="522.5"/><line class="cls-4" x1="222.5" y1="514.5" x2="222.5" y2="495.5"/><line class="cls-4" x1="222.5" y1="514.5" x2="150.5" y2="514.5"/><line class="cls-4" x1="150.5" y1="535" x2="149.5" y2="664.5"/><line class="cls-4" x1="55.5" y1="535" x2="55.5" y2="664.5"/><path class="cls-4" d="M55.5,655.5h34s13,22,26.5,0h34"/><line class="cls-4" x1="55.5" y1="535.5" x2="90.5" y2="535.5"/><line class="cls-4" x1="115" y1="535.5" x2="150" y2="535.5"/><line class="cls-4" x1="150.5" y1="557.5" x2="176.5" y2="557.5"/><g><rect class="cls-6" x="34.5" y="498" width="18.5" height="18.5" rx="9.25" ry="9.25"/><g id="Group_1"><circle id="Ellipse_1" class="cls-9" cx="42.23" cy="504.12" r="1"/><path id="Path_1" class="cls-9" d="M41.22,511.55v-1.61l-1.44-1.26c-.16-.13-.22-.36-.14-.55l.82-1.98"/><path id="Path_2" class="cls-9" d="M38.41,507.13c.46-1.1,1.96-1.62,3.61-.8,.72,1.16,1.58,.86,2.01,.4m-2.81,1.61l.8-2.01m-4.02,4.02h1.2l1.11-1.11m6.93-1.7h-2.01m1.2-1.2l1.2,1.2-1.2,1.2"/><path id="Path_3" class="cls-9" d="M45.24,505.53v-3.61h3.61v10.44h-3.61v-2.81"/></g></g><g><rect class="cls-6" x="367.8" y="492.24" width="18.5" height="18.5" rx="9.25" ry="9.25"/><g id="Group_1-2"><path id="Path_1-2" class="cls-1" d="M372.52,507.1c-.02,.24,.16,.46,.41,.48,.02,0,.05,0,.07,0,.24,.02,.46-.16,.48-.41,0-.02,0-.05,0-.07v-4.42h.48v4.42c-.02,.24,.16,.46,.41,.48,.02,0,.05,0,.07,0,.24,.02,.46-.16,.48-.41,0-.02,0-.05,0-.07v-7.52h.24v2.7c0,.57,.72,.57,.72,0v-2.9c0-.63-.45-.99-1.19-.99h-1.91c-.67,0-1.19,.29-1.19,.98v3.08c0,.2,.16,.36,.36,.36s.36-.16,.36-.36v-2.86h.24v7.52Z"/><circle id="Ellipse_1-2" class="cls-1" cx="373.68" cy="496.98" r=".98"/><circle id="Ellipse_2" class="cls-1" cx="379.65" cy="496.98" r=".98"/><path id="Path_2-2" class="cls-1" d="M382.04,503.52l-1.41-3.88v-.04c0-.06,.04-.1,.1-.1h0s.09,.03,.1,.08l.96,2.51c.12,.15,.3,.24,.5,.24,.23,0,.25-.45,.25-.48l-.96-2.41c-.13-.61-.66-1.05-1.28-1.05h-1.25c-.63,0-1.18,.44-1.32,1.05l-.92,2.44s0,.46,.25,.46c.19,0,.45-.07,.5-.25l.92-2.52s.06-.07,.1-.07c.06,0,.1,.04,.11,.1,0,0,0,0,0,0v.04s-1.38,3.88-1.38,3.88c0,.01,0,.29,0,.3,0,.08,.2,.3,.29,.3h.89v3.01c0,.26,.21,.48,.48,.48s.48-.21,.48-.48v-3.13c0-.07,.48-.07,.48,0v3.1c0,.26,.21,.48,.48,.48s.48-.21,.48-.48v-2.99h.92c.09,0,.25-.21,.25-.3,0-.02,0-.28,0-.3Z"/></g></g><g><rect class="cls-6" x="368.01" y="462.69" width="18.5" height="18.5" rx="9.25" ry="9.25"/><path id="Path_3-2" class="cls-1" d="M383.72,472.91s-.06-.03-.09-.06l-5.8-2.51v-.09c0-.18,.1-.34,.26-.43,.25-.17,.44-.43,.52-.72,.14-.44,.07-.92-.2-1.3-.27-.37-.7-.59-1.15-.58-.79,0-1.44,.63-1.44,1.41,0,0,0,.02,0,.03,0,.32,.26,.58,.58,.58s.58-.26,.58-.58c0-.16,.13-.29,.29-.29,.09,0,.18,.04,.23,.12,.05,.09,.06,.19,.03,.29-.02,.04-.05,.08-.09,.12-.47,.31-.75,.83-.75,1.39v.09l-5.8,2.54s-.06,.03-.09,.06c-.52,.34-.67,1.05-.32,1.57,.21,.31,.55,.5,.93,.51h11.72c.5,0,.94-.32,1.07-.81,.18-.5-.02-1.05-.46-1.33Zm-.75,.92h-11.43l5.71-2.48,5.71,2.48Z"/></g><g><rect class="cls-6" x="232.56" y="431.07" width="18.5" height="18.5" rx="9.25" ry="9.25"/><path id="Path_10" class="cls-1" d="M240.85,435c-.64,0-1.21,.65-1.28,1.28l-.22,1.92h-1.06c-.34,.02-.62,.3-.64,.64l-.64,6.42c.02,.34,.3,.62,.64,.64h8.34c.34-.02,.62-.3,.64-.64l-.64-6.42c-.02-.34-.3-.62-.64-.64h-1.06l-.22-1.92c-.07-.64-.64-1.28-1.28-1.28h-1.92Zm0,.64h1.92c.32,0,.61,.32,.64,.64l.22,1.92h-3.65l.22-1.92c.04-.32,.32-.64,.64-.64Z"/></g><g><rect class="cls-6" x="357.73" y="364.79" width="18.5" height="18.5" rx="9.25" ry="9.25"/><g id="Group_2"><path id="Path_4" class="cls-1" d="M361.25,379.92v-8.39h0c-.01-.83,.65-1.52,1.49-1.53,.01,0,.03,0,.04,0h8.41c.84,0,1.52,.67,1.53,1.52,0,0,0,.01,0,.02v8.39c.02,.82-.63,1.5-1.45,1.52-.02,0-.04,0-.07,0h-8.42c-.84,0-1.53-.67-1.53-1.51,0,0,0,0,0-.01Z"/><path id="Path_5" d="M362.83,371.6h8.3v8.25h-8.3v-8.25Z"/><path class="cls-1" d="M368.53,366.11c-.01-.26,.19-.47,.44-.49s.47,.19,.49,.44c0,.01,0,.03,0,.04v1.95s.49-.61,.49-.61c.34-.38,.95,.15,.58,.58l-1.21,1.44c-.15,.17-.42,.19-.59,.04-.01-.01-.03-.03-.04-.04l-1.21-1.45c-.37-.43,.24-.96,.58-.58l.49,.62v-1.95Z"/><path class="cls-1" d="M365.17,369.13c-.01,.26,.19,.47,.44,.49,.26,.01,.47-.19,.49-.44,0-.01,0-.03,0-.04v-1.95s.49,.61,.49,.61c.34,.38,.95-.15,.58-.58l-1.21-1.44c-.15-.17-.42-.19-.59-.04-.01,.01-.03,.03-.04,.04l-1.21,1.45c-.37,.43,.24,.96,.58,.58l.49-.62v1.95s-.01,0-.01,0Z"/><path class="cls-1" d="M370.74,376.33c0,.16-.12,.28-.28,.28,0,0,0,0,0,0h-1.86c-.16,0-.28-.13-.28-.28v-2.02c0-.21,.17-.39,.38-.39,0,0,0,0,0,0h1.65c.21,0,.39,.17,.39,.38,0,0,0,0,0,0v2.02Z"/><path id="Path_7" class="cls-1" d="M370.28,376.54h-.71v2.73c0,.2,.15,.36,.34,.37,.2,0,.36-.15,.37-.34,0,0,0-.02,0-.03v-2.73Zm-.81,0h-.71v2.73c0,.2,.16,.35,.35,.35s.35-.16,.35-.35h0v-2.73Zm.06-2.78c.29,0,.53-.24,.53-.53s-.24-.53-.53-.53c-.29,0-.53,.24-.53,.53,0,.29,.24,.53,.53,.53h0Z"/><path id="Path_8" class="cls-1" d="M365.66,376.33c0,.16-.12,.28-.28,.28,0,0,0,0,0,0h-1.86c-.16,0-.28-.13-.28-.28v-2.02c0-.21,.17-.39,.38-.39,0,0,0,0,0,0h1.65c.21,0,.39,.17,.39,.38,0,0,0,0,0,0v2.02Z"/><path id="Path_9" class="cls-1" d="M365.2,376.54h-.71v2.73c0,.2,.15,.36,.34,.37,.2,0,.36-.15,.37-.34,0,0,0-.02,0-.03v-2.73Zm-.81,0h-.71v2.73c0,.2,.16,.35,.35,.35s.35-.16,.35-.35v-2.73Zm.06-2.78c.29,0,.53-.24,.53-.53s-.24-.53-.53-.53-.53,.24-.53,.53c0,.29,.24,.53,.53,.53h0Z"/></g></g><g><rect class="cls-6" x="367.41" y="522.47" width="18.5" height="18.5" rx="9.25" ry="9.25"/><g id="Group_3"><path id="Path_11" class="cls-1" d="M378.79,527.19c0,.66-.53,1.19-1.19,1.19s-1.19-.53-1.19-1.19,.53-1.19,1.19-1.19,1.19,.53,1.19,1.19h0Zm-2,7.8l.47-.03s0-.06,0-.09c0-1.13-.92-2.05-2.05-2.05-.29,0-.58,.06-.85,.18,0,.3,.04,.59,.12,.88,.47,1.29,2.31,1.11,2.31,1.11Z"/><path id="Path_12" class="cls-2" d="M381.46,536.71c.31,.71-.75,1.24-1.17,.6s-1.46-2.46-1.46-2.46l-.21,.02h0c0,1.89-1.53,3.41-3.41,3.41s-3.41-1.53-3.41-3.41c0-1.42,.88-2.7,2.22-3.19v-2.01l-.89-.67,.41-.55,1.16,.87v.75c.07-.24,.18-.47,.31-.67,.7-.99,.84-1.07,1.62-.99s2.08,2.66,2.08,2.66c0,0,1.65,.39,2.28,.61s.23,1.08-.17,1.07-2.62-.24-2.91-.41-.8-.99-.8-.99l-.05,.65c.38,.25,.71,.57,.97,.94,.61,.05,1.31,.11,1.52,.11,.2-.02,.39,.08,.48,.27,0,0,1.14,2.68,1.44,3.39Zm-4.41-3.86s-.04-.03-.06-.05c-1.14-.99-2.87-.86-3.85,.28-.99,1.14-.86,2.87,.28,3.85,1.14,.99,2.87,.86,3.85-.28,.97-1.12,.87-2.8-.22-3.8Z"/></g></g><rect class="cls-7" x="372" y="424" width="31" height="2" transform="translate(-37.5 812.5) rotate(-90)"/><rect class="cls-5" x="370" y="424" width="31" height="2" transform="translate(-39.5 810.5) rotate(-90)"/><rect class="cls-7" x="364" y="424" width="31" height="2" transform="translate(-45.5 804.5) rotate(-90)"/><rect class="cls-5" x="362" y="424" width="31" height="2" transform="translate(-47.5 802.5) rotate(-90)"/><rect class="cls-7" x="360" y="424" width="31" height="2" transform="translate(-49.5 800.5) rotate(-90)"/><rect class="cls-5" x="358" y="424" width="31" height="2" transform="translate(-51.5 798.5) rotate(-90)"/><rect class="cls-7" x="368" y="424" width="31" height="2" transform="translate(-41.5 808.5) rotate(-90)"/><rect class="cls-5" x="366" y="424" width="31" height="2" transform="translate(-43.5 806.5) rotate(-90)"/><rect class="cls-7" x="356" y="424" width="31" height="2" transform="translate(-53.5 796.5) rotate(-90)"/><rect class="cls-5" x="354" y="424" width="31" height="2" transform="translate(-55.5 794.5) rotate(-90)"/><rect class="cls-7" x="348" y="424" width="31" height="2" transform="translate(-61.5 788.5) rotate(-90)"/><rect class="cls-5" x="346" y="424" width="31" height="2" transform="translate(-63.5 786.5) rotate(-90)"/><rect class="cls-7" x="344" y="424" width="31" height="2" transform="translate(-65.5 784.5) rotate(-90)"/><rect class="cls-5" x="342" y="424" width="31" height="2" transform="translate(-67.5 782.5) rotate(-90)"/><rect class="cls-7" x="352" y="424" width="31" height="2" transform="translate(-57.5 792.5) rotate(-90)"/><rect class="cls-5" x="350" y="424" width="31" height="2" transform="translate(-59.5 790.5) rotate(-90)"/><rect class="cls-7" x="382" y="424" width="31" height="2" transform="translate(-27.5 822.5) rotate(-90)"/><rect class="cls-5" x="380" y="424" width="31" height="2" transform="translate(-29.5 820.5) rotate(-90)"/><rect class="cls-7" x="374" y="424" width="31" height="2" transform="translate(-35.5 814.5) rotate(-90)"/><rect class="cls-7" x="378" y="424" width="31" height="2" transform="translate(-31.5 818.5) rotate(-90)"/><rect class="cls-5" x="376" y="424" width="31" height="2" transform="translate(-33.5 816.5) rotate(-90)"/><g><rect class="cls-7" x="346.12" y="251.96" width="9.5" height="2"/><rect class="cls-5" x="346.12" y="249.96" width="9.5" height="2"/><rect class="cls-7" x="346.12" y="243.96" width="9.5" height="2"/><rect class="cls-7" x="346.12" y="247.96" width="9.5" height="2"/><rect class="cls-5" x="346.12" y="245.96" width="9.5" height="2"/><rect class="cls-7" x="346.12" y="241.96" width="9.5" height="2"/><rect class="cls-5" x="346.12" y="239.96" width="9.5" height="2"/><rect class="cls-7" x="346.12" y="233.96" width="9.5" height="2"/><rect class="cls-7" x="346.12" y="237.96" width="9.5" height="2"/><rect class="cls-5" x="346.12" y="235.96" width="9.5" height="2"/><rect class="cls-7" x="346.12" y="231.96" width="9.5" height="2"/><rect class="cls-5" x="346.12" y="229.96" width="9.5" height="2"/><rect class="cls-7" x="346.12" y="223.96" width="9.5" height="2"/><rect class="cls-7" x="346.12" y="227.96" width="9.5" height="2"/><rect class="cls-5" x="346.12" y="225.96" width="9.5" height="2"/><rect class="cls-7" x="346.12" y="221.96" width="9.5" height="2"/><rect class="cls-5" x="346.12" y="219.96" width="9.5" height="2"/><rect class="cls-7" x="346.12" y="213.96" width="9.5" height="2"/><rect class="cls-7" x="346.12" y="217.96" width="9.5" height="2"/><rect class="cls-5" x="346.12" y="215.96" width="9.5" height="2"/></g><g><rect class="cls-7" x="86.5" y="483.5" width="31" height="2"/><rect class="cls-5" x="86.5" y="481.5" width="31" height="2"/><rect class="cls-7" x="86.5" y="475.5" width="31" height="2"/><rect class="cls-5" x="86.5" y="473.5" width="31" height="2"/><rect class="cls-7" x="86.5" y="471.5" width="31" height="2"/><rect class="cls-5" x="86.5" y="469.5" width="31" height="2"/><rect class="cls-7" x="86.5" y="479.5" width="31" height="2"/><rect class="cls-5" x="86.5" y="477.5" width="31" height="2"/><rect class="cls-7" x="86.5" y="467.5" width="31" height="2"/><rect class="cls-5" x="86.5" y="465.5" width="31" height="2"/><rect class="cls-7" x="86.5" y="463.5" width="31" height="2"/><rect class="cls-5" x="86.5" y="461.5" width="31" height="2"/></g><g><rect class="cls-6" x="294.88" y="603.05" width="18.5" height="18.5" rx="9.25" ry="9.25"/><g id="Group_1-3"><circle id="Ellipse_1-3" class="cls-9" cx="302.6" cy="609.17" r="1"/><path id="Path_1-3" class="cls-9" d="M301.6,616.6v-1.61l-1.44-1.26c-.16-.13-.22-.36-.14-.55l.82-1.98"/><path id="Path_2-3" class="cls-9" d="M298.79,612.18c.46-1.1,1.96-1.62,3.61-.8,.72,1.16,1.58,.86,2.01,.4m-2.81,1.61l.8-2.01m-4.02,4.02h1.2l1.11-1.11m6.93-1.7h-2.01m1.2-1.2l1.2,1.2-1.2,1.2"/><path id="Path_3-3" class="cls-9" d="M305.62,610.57v-3.61h3.61v10.44h-3.61v-2.81"/></g></g><g><rect class="cls-6" x="200.88" y="643.05" width="18.5" height="18.5" rx="9.25" ry="9.25"/><g id="Group_1-4"><circle id="Ellipse_1-4" class="cls-9" cx="208.6" cy="649.17" r="1"/><path id="Path_1-4" class="cls-9" d="M207.6,656.6v-1.61l-1.44-1.26c-.16-.13-.22-.36-.14-.55l.82-1.98"/><path id="Path_2-4" class="cls-9" d="M204.79,652.18c.46-1.1,1.96-1.62,3.61-.8,.72,1.16,1.58,.86,2.01,.4m-2.81,1.61l.8-2.01m-4.02,4.02h1.2l1.11-1.11m6.93-1.7h-2.01m1.2-1.2l1.2,1.2-1.2,1.2"/><path id="Path_3-4" class="cls-9" d="M211.62,650.57v-3.61h3.61v10.44h-3.61v-2.81"/></g></g><g><rect class="cls-6" x="372.88" y="21.05" width="18.5" height="18.5" rx="9.25" ry="9.25"/><g id="Group_1-5"><circle id="Ellipse_1-5" class="cls-9" cx="380.6" cy="27.17" r="1"/><path id="Path_1-5" class="cls-9" d="M379.6,34.6v-1.61l-1.44-1.26c-.16-.13-.22-.36-.14-.55l.82-1.98"/><path id="Path_2-5" class="cls-9" d="M376.79,30.18c.46-1.1,1.96-1.62,3.61-.8,.72,1.16,1.58,.86,2.01,.4m-2.81,1.61l.8-2.01m-4.02,4.02h1.2l1.11-1.11m6.93-1.7h-2.01m1.2-1.2l1.2,1.2-1.2,1.2"/><path id="Path_3-5" class="cls-9" d="M383.62,28.57v-3.61h3.61v10.44h-3.61v-2.81"/></g></g><g><rect class="cls-6" x="367.88" y="384.05" width="18.5" height="18.5" rx="9.25" ry="9.25"/><g id="Group_1-6"><circle id="Ellipse_1-6" class="cls-9" cx="375.6" cy="390.17" r="1"/><path id="Path_1-6" class="cls-9" d="M374.6,397.6v-1.61l-1.44-1.26c-.16-.13-.22-.36-.14-.55l.82-1.98"/><path id="Path_2-6" class="cls-9" d="M371.79,393.18c.46-1.1,1.96-1.62,3.61-.8,.72,1.16,1.58,.86,2.01,.4m-2.81,1.61l.8-2.01m-4.02,4.02h1.2l1.11-1.11m6.93-1.7h-2.01m1.2-1.2l1.2,1.2-1.2,1.2"/><path id="Path_3-6" class="cls-9" d="M378.62,391.57v-3.61h3.61v10.44h-3.61v-2.81"/></g></g><g><rect class="cls-6" x="292.88" y="21.05" width="18.5" height="18.5" rx="9.25" ry="9.25"/><g id="Group_1-7"><circle id="Ellipse_1-7" class="cls-9" cx="300.6" cy="27.17" r="1"/><path id="Path_1-7" class="cls-9" d="M299.6,34.6v-1.61l-1.44-1.26c-.16-.13-.22-.36-.14-.55l.82-1.98"/><path id="Path_2-7" class="cls-9" d="M296.79,30.18c.46-1.1,1.96-1.62,3.61-.8,.72,1.16,1.58,.86,2.01,.4m-2.81,1.61l.8-2.01m-4.02,4.02h1.2l1.11-1.11m6.93-1.7h-2.01m1.2-1.2l1.2,1.2-1.2,1.2"/><path id="Path_3-7" class="cls-9" d="M303.62,28.57v-3.61h3.61v10.44h-3.61v-2.81"/></g></g><g><rect class="cls-6" x="349.09" y="610.39" width="18.5" height="18.5" rx="9.25" ry="9.25"/><path id="Path_16" class="cls-1" d="M354.95,615h0c-.08,0-.15,.07-.15,.15,0,.04,.02,.08,.04,.11l1.06,1.06,.63,.63c.06,.06,.06,.15,0,.21-.06,.06-.15,.06-.21,0,0,0,0,0,0,0l-.63-.63-1.06-1.06c-.06-.06-.15-.06-.21,0-.06,.06-.06,.15,0,.21,0,0,0,0,0,0l1.06,1.06,.63,.63c.06,.06,.05,.16,0,.21-.06,.05-.15,.05-.2,0l-.64-.63-1.06-1.06c-.06-.06-.15-.06-.21,0-.06,.06-.06,.15,0,.21,0,0,0,0,0,0l1.06,1.06h0l.63,.63c.06,.06,.05,.16,0,.21-.06,.05-.15,.05-.2,0l-.64-.63-.95-.95-.11-.11c-.06-.06-.15-.06-.21,0-.06,.06-.06,.15,0,.21,0,0,0,0,0,0l.11,.11,.95,.95,.63,.64,.32,.32c.13,.13,.32,.17,.49,.09l.46-.19,5.76,6.1c.11,.12,.29,.12,.41,.01,0,0,0,0,0,0l.36-.36c.12-.12,.12-.31,0-.43,0,0,0,0,0,0l-6.09-5.75,.19-.46c.07-.17,.03-.36-.1-.49l-.95-.95-1.06-1.06s-.07-.04-.11-.04Zm7.38,.5c-.99,0-1.79,.46-2.57,1.24l-1.79,1.79,1.09,1.03,3.98-3.98c-.23-.05-.47-.07-.71-.07Zm-4.89,4.34l-3.7,3.37c-.12,.11-.13,.29-.02,.4,0,0,0,0,0,.01l.42,.42c.12,.12,.31,.12,.42,0l3.52-3.52-.65-.69h0Z"/></g><g><rect class="cls-6" x="270.35" y="500.18" width="18.5" height="18.5" rx="9.25" ry="9.25"/><path class="cls-2" d="M280.98,506.2c.35-.14,.72-.21,1.1-.2,.37,.01,.74,.1,1.08,.25,.34,.16,.64,.38,.89,.66,.72,.8,.84,1.92,.47,2.87-.45,1.15-1.3,2.2-2.2,3.17-.32,.34-.64,.68-.95,1-.59,.61-1.15,1.19-1.62,1.78-.05,.06-.13,.1-.21,.11-.08,0-.16-.03-.22-.08-.11-.11-.22-.22-.34-.33-.72-.71-1.56-1.53-2.33-2.41-.89-1.02-1.72-2.13-2.16-3.23-.14-.35-.2-.72-.19-1.1,.01-.38,.1-.74,.25-1.09,.16-.34,.38-.65,.66-.9,1.12-1.01,2.85-.84,3.89,.2l.42,.42,.52-.52c.26-.27,.58-.47,.93-.61Zm1.08,.38c-.3,0-.59,.04-.86,.15-.27,.11-.52,.27-.73,.48l-.72,.73c-.05,.05-.13,.09-.2,.09s-.15-.03-.2-.09l-.62-.63c-.85-.85-2.23-.96-3.09-.18h0c-.22,.2-.4,.44-.52,.71-.12,.27-.19,.56-.2,.86,0,.3,.04,.59,.15,.87,.4,1.01,1.17,2.06,2.05,3.06,.76,.86,1.58,1.67,2.3,2.38,.04,.04,.08,.07,.11,.11,.44-.52,.96-1.06,1.48-1.6,.31-.32,.62-.64,.92-.96,.89-.97,1.68-1.95,2.08-2.99,.3-.77,.19-1.65-.36-2.27h0c-.2-.22-.44-.4-.71-.52-.27-.12-.56-.19-.86-.2Z"/><path class="cls-2" d="M280.4,508.18l-2.3,2.97c-.07,.1,0,.23,.11,.23h1.31l-.44,2.24,2.3-2.97c.07-.1,0-.23-.11-.23h-1.31l.44-2.24Z"/><rect class="cls-1" x="279.02" y="502" width="1" height="3"/><rect class="cls-1" x="279.02" y="502" width="1" height="3" transform="translate(-223.98 783.02) rotate(-90)"/></g><rect class="cls-1" x="239" y="537" width="24" height="15"/><g><rect class="cls-6" x="243.3" y="409.35" width="18.5" height="18.5" rx="9.25" ry="9.25"/><rect class="cls-3" x="251.55" y="416.5" width="2" height="8"/><rect class="cls-3" x="251.5" y="412.5" width="2" height="1"/></g><text class="cls-10" transform="translate(229.47 552.1)"><tspan x="0" y="0">H</tspan><tspan class="cls-11" x="4.94" y="0">u</tspan><tspan x="8.89" y="0">vudingång</tspan></text></g></svg>