<?xml version="1.0" encoding="utf-8"?>
<!-- Generator: Adobe Illustrator 27.0.0, SVG Export Plug-In . SVG Version: 6.00 Build 0)  -->
<svg version="1.1" id="Lager_1" xmlns="http://www.w3.org/2000/svg" xmlns:xlink="http://www.w3.org/1999/xlink" x="0px" y="0px"
	 viewBox="0 0 124.6 302.2" style="enable-background:new 0 0 124.6 302.2;" xml:space="preserve">
<style type="text/css">
	.st0{fill:#010101;stroke:#010101;stroke-linecap:round;stroke-linejoin:round;}
	.st1{fill:#FFFFFF;}
	.st2{fill:#010101;}
	.st3{fill-rule:evenodd;clip-rule:evenodd;fill:#FFFFFF;}
	.st4{fill:none;stroke:#F2F2F2;stroke-linecap:round;stroke-linejoin:round;}
	.st5{fill:#FFFFFF;stroke:#FFFFFF;stroke-linecap:round;stroke-linejoin:round;}
	.st6{enable-background:new    ;}
	.st7{fill:#1D1D1B;}
</style>
<g>
	<g>
		<path class="st0" d="M22.5,74.9h0.7c5.1,0,9.2,4.1,9.2,9.2v0.7c0,5.1-4.1,9.2-9.2,9.2h-0.7c-5.1,0-9.2-4.1-9.2-9.2v-0.7
			C13.2,79,17.4,74.9,22.5,74.9z"/>
		<g id="Group_1">
			<path id="Path_1" class="st1" d="M18.1,90.3c0,0.2,0.2,0.5,0.4,0.5c0,0,0,0,0.1,0c0.2,0,0.5-0.2,0.5-0.4c0,0,0-0.1,0-0.1v-4.6
				h0.5v4.6c0,0.2,0.2,0.5,0.4,0.5c0,0,0,0,0.1,0c0.2,0,0.5-0.2,0.5-0.4c0,0,0-0.1,0-0.1v-7.8h0.2v2.8c0,0.6,0.8,0.6,0.7,0v-3
				c0-0.7-0.5-1-1.2-1h-2c-0.7,0-1.2,0.3-1.2,1v3.2c0,0.2,0.2,0.4,0.4,0.4s0.4-0.2,0.4-0.4v-3h0.2L18.1,90.3L18.1,90.3z"/>
			<circle id="Ellipse_1" class="st1" cx="19.3" cy="79.8" r="1"/>
			<circle id="Ellipse_2" class="st1" cx="25.5" cy="79.8" r="1"/>
			<path id="Path_2" class="st1" d="M28,86.6l-1.5-4v0c0-0.1,0-0.1,0.1-0.1l0,0c0,0,0.1,0,0.1,0.1l1,2.6c0.1,0.2,0.3,0.2,0.5,0.2
				c0.2,0,0.3-0.5,0.3-0.5l-1-2.5c-0.1-0.6-0.7-1.1-1.3-1.1h-1.3c-0.7,0-1.2,0.4-1.4,1.1l-1,2.5c0,0,0,0.5,0.3,0.5
				c0.2,0,0.5-0.1,0.5-0.3l1-2.6c0,0,0.1-0.1,0.1-0.1c0.1,0,0.1,0.1,0.1,0.1l0,0v0l-1.4,4c0,0,0,0.3,0,0.3c0,0.1,0.2,0.3,0.3,0.3
				h0.9v3.1c0,0.3,0.2,0.5,0.5,0.5s0.5-0.2,0.5-0.5v-3.2c0-0.1,0.5-0.1,0.5,0v3.2c0,0.3,0.2,0.5,0.5,0.5s0.5-0.2,0.5-0.5v-3.1h1
				c0.1,0,0.3-0.2,0.3-0.3C28,86.9,28,86.6,28,86.6L28,86.6z"/>
		</g>
	</g>
	<g>
		<path class="st0" d="M22.3,108.2H23c5.1,0,9.2,4.1,9.2,9.2v0.7c0,5.1-4.1,9.2-9.2,9.2h-0.7c-5.1,0-9.2-4.1-9.2-9.2v-0.7
			C13,112.3,17.2,108.2,22.3,108.2z"/>
		<path id="Path_3" class="st1" d="M29.3,118.8C29.3,118.8,29.3,118.8,29.3,118.8l-6.1-2.7v-0.1c0-0.2,0.1-0.4,0.3-0.4
			c0.3-0.2,0.5-0.4,0.5-0.8c0.1-0.5,0.1-1-0.2-1.3c-0.3-0.4-0.7-0.6-1.2-0.6c-0.8,0-1.5,0.7-1.5,1.5c0,0,0,0,0,0
			c0,0.3,0.3,0.6,0.6,0.6s0.6-0.3,0.6-0.6c0-0.2,0.1-0.3,0.3-0.3c0.1,0,0.2,0,0.2,0.1c0.1,0.1,0.1,0.2,0,0.3c0,0.1,0,0.1-0.1,0.1
			c-0.5,0.3-0.8,0.9-0.8,1.4v0.1l-6,2.6c0,0-0.1,0-0.1,0.1c-0.5,0.4-0.7,1.1-0.3,1.6c0.2,0.3,0.6,0.5,1,0.5h12.2
			c0.5,0,1-0.3,1.1-0.8C30,119.7,29.8,119.1,29.3,118.8L29.3,118.8z M28.6,119.8H16.7l5.9-2.6C22.6,117.2,28.6,119.8,28.6,119.8z"/>
	</g>
	<g>
		<path class="st0" d="M22.5,41.6h0.7c5.1,0,9.2,4.1,9.2,9.2v0.7c0,5.1-4.1,9.2-9.2,9.2h-0.7c-5.1,0-9.2-4.1-9.2-9.2v-0.7
			C13.2,45.7,17.4,41.6,22.5,41.6z"/>
		<path id="Path_10" class="st1" d="M21.8,45.7c-0.7,0-1.3,0.7-1.3,1.3l-0.2,2h-1.1c-0.4,0-0.6,0.3-0.7,0.7l-0.7,6.7
			c0,0.4,0.3,0.6,0.7,0.7h8.7c0.4,0,0.6-0.3,0.7-0.7l-0.7-6.7c0-0.4-0.3-0.6-0.7-0.7h-1.1l-0.2-2c-0.1-0.7-0.7-1.3-1.3-1.3
			L21.8,45.7L21.8,45.7z M21.8,46.3h2c0.3,0,0.6,0.3,0.7,0.7l0.2,2h-3.8l0.2-2C21.2,46.7,21.5,46.3,21.8,46.3L21.8,46.3z"/>
	</g>
	<g>
		<path class="st0" d="M22.2,174.8h0.7c5.1,0,9.2,4.1,9.2,9.2v0.7c0,5.1-4.1,9.2-9.2,9.2h-0.7c-5.1,0-9.2-4.1-9.2-9.2V184
			C13,178.9,17.1,174.8,22.2,174.8z"/>
		<g id="Group_2">
			<path id="Path_4" class="st1" d="M16.6,190.5v-8.7l0,0c0-0.9,0.7-1.6,1.5-1.6c0,0,0,0,0,0h8.7c0.9,0,1.6,0.7,1.6,1.6c0,0,0,0,0,0
				v8.7c0,0.9-0.7,1.6-1.5,1.6c0,0,0,0-0.1,0h-8.8C17.3,192.1,16.6,191.4,16.6,190.5C16.6,190.5,16.6,190.5,16.6,190.5L16.6,190.5z"
				/>
			<path id="Path_5" class="st2" d="M18.3,181.9h8.6v8.6h-8.6C18.3,190.4,18.3,181.9,18.3,181.9z"/>
			<path class="st1" d="M24.2,176.2c0-0.3,0.2-0.5,0.5-0.5s0.5,0.2,0.5,0.5c0,0,0,0,0,0.1v2l0.5-0.6c0.4-0.4,1,0.1,0.6,0.6l-1.3,1.5
				c-0.2,0.2-0.4,0.2-0.6,0c0,0,0,0,0,0l-1.2-1.5c-0.4-0.4,0.2-1,0.6-0.6l0.5,0.6L24.2,176.2L24.2,176.2z"/>
			<path class="st1" d="M20.7,179.3c0,0.3,0.2,0.5,0.5,0.5c0.3,0,0.5-0.2,0.5-0.5c0,0,0,0,0-0.1v-2l0.5,0.6c0.4,0.4,1-0.1,0.6-0.6
				l-1.3-1.5c-0.2-0.2-0.4-0.2-0.6,0c0,0,0,0,0,0l-1.2,1.5c-0.4,0.4,0.2,1,0.6,0.6l0.5-0.6L20.7,179.3L20.7,179.3L20.7,179.3z"/>
			<path class="st1" d="M26.5,186.8c0,0.2-0.1,0.3-0.3,0.3l0,0h-1.9c-0.2,0-0.3-0.1-0.3-0.3v-2.1c0-0.2,0.2-0.4,0.4-0.4l0,0h1.7
				c0.2,0,0.4,0.2,0.4,0.4l0,0L26.5,186.8L26.5,186.8z"/>
			<path id="Path_7" class="st1" d="M26,187h-0.7v2.8c0,0.2,0.1,0.4,0.4,0.4c0.2,0,0.4-0.1,0.4-0.4c0,0,0,0,0,0V187z M25.1,187h-0.7
				v2.8c0,0.2,0.2,0.4,0.4,0.4s0.4-0.2,0.4-0.4l0,0L25.1,187L25.1,187z M25.2,184.1c0.3,0,0.5-0.2,0.5-0.6s-0.2-0.6-0.5-0.6
				s-0.5,0.2-0.5,0.6S24.9,184.1,25.2,184.1L25.2,184.1z"/>
			<path id="Path_8" class="st1" d="M21.2,186.8c0,0.2-0.1,0.3-0.3,0.3l0,0H19c-0.2,0-0.3-0.1-0.3-0.3v-2.1c0-0.2,0.2-0.4,0.4-0.4
				l0,0h1.7c0.2,0,0.4,0.2,0.4,0.4l0,0L21.2,186.8L21.2,186.8z"/>
			<path id="Path_9" class="st1" d="M20.7,187H20v2.8c0,0.2,0.1,0.4,0.4,0.4c0.2,0,0.4-0.1,0.4-0.4c0,0,0,0,0,0V187z M19.9,187h-0.7
				v2.8c0,0.2,0.2,0.4,0.4,0.4s0.4-0.2,0.4-0.4L19.9,187L19.9,187z M19.9,184.1c0.3,0,0.5-0.2,0.5-0.6s-0.2-0.6-0.5-0.6
				s-0.5,0.2-0.5,0.6S19.6,184.1,19.9,184.1L19.9,184.1z"/>
		</g>
	</g>
	<g>
		<path class="st0" d="M22.2,141.5h0.7c5.1,0,9.2,4.1,9.2,9.2v0.7c0,5.1-4.1,9.2-9.2,9.2h-0.7c-5.1,0-9.2-4.1-9.2-9.2v-0.7
			C13,145.6,17.1,141.5,22.2,141.5z"/>
		<g id="Group_3">
			<path id="Path_11" class="st1" d="M24.8,146.4c0,0.7-0.6,1.2-1.2,1.2s-1.2-0.6-1.2-1.2s0.6-1.2,1.2-1.2S24.8,145.7,24.8,146.4
				L24.8,146.4z M22.7,154.5l0.5,0c0,0,0-0.1,0-0.1c0-1.2-1-2.1-2.1-2.1c-0.3,0-0.6,0.1-0.9,0.2c0,0.3,0,0.6,0.1,0.9
				C20.8,154.7,22.7,154.5,22.7,154.5L22.7,154.5z"/>
			<path id="Path_12" class="st3" d="M27.6,156.3c0.3,0.7-0.8,1.3-1.2,0.6s-1.5-2.6-1.5-2.6l-0.2,0l0,0c0,2-1.6,3.6-3.5,3.6
				s-3.5-1.6-3.5-3.6c0-1.5,0.9-2.8,2.3-3.3V149l-0.9-0.7l0.4-0.6l1.2,0.9v0.8c0.1-0.2,0.2-0.5,0.3-0.7c0.7-1,0.9-1.1,1.7-1
				s2.2,2.8,2.2,2.8s1.7,0.4,2.4,0.6s0.2,1.1-0.2,1.1s-2.7-0.2-3-0.4s-0.8-1-0.8-1l0,0.7c0.4,0.3,0.7,0.6,1,1
				c0.6,0.1,1.4,0.1,1.6,0.1c0.2,0,0.4,0.1,0.5,0.3C26.1,152.8,27.3,155.6,27.6,156.3L27.6,156.3z M23,152.3
				C23,152.3,22.9,152.2,23,152.3c-1.2-1.1-3-0.9-4.1,0.2c-1,1.2-0.9,3,0.3,4c1.2,1,3,0.9,4-0.3C24.2,155.1,24.1,153.3,23,152.3z"/>
		</g>
	</g>
	<g>
		<path class="st0" d="M22.8,274.7h0.7c5.1,0,9.2,4.1,9.2,9.2v0.7c0,5.1-4.1,9.2-9.2,9.2h-0.7c-5.1,0-9.2-4.1-9.2-9.2V284
			C13.6,278.9,17.7,274.7,22.8,274.7z"/>
		<g id="Group_1-2">
			<circle id="Ellipse_1-2" class="st4" cx="21.6" cy="281.1" r="1"/>
			<path id="Path_1-2" class="st4" d="M20.6,288.8v-1.7l-1.5-1.3c-0.2-0.1-0.2-0.4-0.1-0.6l0.9-2.1"/>
			<path id="Path_2-2" class="st4" d="M17.6,284.2c0.5-1.1,2-1.7,3.8-0.8c0.8,1.2,1.6,0.9,2.1,0.4 M20.6,285.5l0.8-2.1 M17.2,287.5
				h1.2l1.1-1.1 M26.8,284.6h-2.1 M26,283.4l1.2,1.2l-1.2,1.2"/>
			<path id="Path_3-2" class="st4" d="M24.7,282.5v-3.8h3.8v10.9h-3.8v-2.9"/>
		</g>
	</g>
	<g>
		<path class="st0" d="M22.8,208.1h0.7c5.1,0,9.2,4.1,9.2,9.2v0.7c0,5.1-4.1,9.2-9.2,9.2h-0.7c-5.1,0-9.2-4.1-9.2-9.2v-0.7
			C13.6,212.2,17.7,208.1,22.8,208.1z"/>
		<path id="Path_16" class="st1" d="M19.7,212.9L19.7,212.9c-0.1,0-0.2,0.1-0.2,0.2c0,0,0,0.1,0,0.1l1.1,1.1l0.7,0.7
			c0.1,0.1,0.1,0.2,0,0.2c-0.1,0.1-0.2,0.1-0.2,0l0,0l-0.7-0.7l-1.1-1.1c-0.1-0.1-0.2-0.1-0.2,0s-0.1,0.2,0,0.2l0,0l1.1,1.1l0.7,0.7
			c0.1,0.1,0,0.2,0,0.2c-0.1,0.1-0.1,0.1-0.2,0l-0.7-0.7l-1.1-1.1c-0.1-0.1-0.2-0.1-0.2,0s-0.1,0.2,0,0.2l0,0l1.1,1.1l0,0l0.7,0.7
			c0.1,0.1,0,0.2,0,0.2c-0.1,0.1-0.1,0.1-0.2,0l-0.7-0.7l-1-1l-0.1-0.1c-0.1-0.1-0.2-0.1-0.2,0s-0.1,0.2,0,0.2l0,0l0.1,0.1l1,1
			l0.7,0.7l0.3,0.3c0.1,0.1,0.3,0.2,0.5,0.1l0.5-0.2l6,6.3c0.1,0.1,0.3,0.1,0.4,0l0,0l0.4-0.4c0.1-0.1,0.1-0.3,0-0.4l0,0l-6.3-6
			l0.2-0.5c0.1-0.2,0-0.4-0.1-0.5l-1-1l-1.1-1.1C19.8,213,19.7,212.9,19.7,212.9L19.7,212.9z M27.3,213.4c-1,0-1.9,0.5-2.7,1.3
			l-1.9,1.9l1.1,1.1l4.1-4.1C27.8,213.4,27.6,213.4,27.3,213.4L27.3,213.4z M22.3,217.9l-3.9,3.5c-0.1,0.1-0.1,0.3,0,0.4
			c0,0,0,0,0,0l0.4,0.4c0.1,0.1,0.3,0.1,0.4,0l3.6-3.6L22.3,217.9L22.3,217.9L22.3,217.9z"/>
	</g>
	<g>
		<path class="st0" d="M23.3,241.4H24c5.1,0,9.2,4.1,9.2,9.2v0.7c0,5.1-4.1,9.2-9.2,9.2h-0.7c-5.1,0-9.2-4.1-9.2-9.2v-0.7
			C14,245.5,18.2,241.4,23.3,241.4z"/>
		<path class="st3" d="M25.1,247.7c0.4-0.1,0.8-0.2,1.1-0.2c0.4,0,0.8,0.1,1.1,0.3c0.4,0.2,0.7,0.4,0.9,0.7c0.8,0.8,0.9,2,0.5,3
			c-0.5,1.2-1.4,2.3-2.3,3.3c-0.3,0.4-0.7,0.7-1,1c-0.6,0.6-1.2,1.2-1.7,1.8c0,0.1-0.1,0.1-0.2,0.1s-0.2,0-0.2-0.1
			c-0.1-0.1-0.2-0.2-0.4-0.3c-0.8-0.7-1.6-1.6-2.4-2.5c-0.9-1.1-1.8-2.2-2.2-3.4c-0.1-0.4-0.2-0.8-0.2-1.1c0-0.4,0.1-0.8,0.3-1.1
			c0.2-0.4,0.4-0.7,0.7-0.9c1.2-1.1,3-0.9,4,0.2l0.4,0.4l0.5-0.5C24.4,248,24.7,247.8,25.1,247.7L25.1,247.7z M26.2,248.1
			c-0.3,0-0.6,0.1-0.9,0.2c-0.3,0.1-0.5,0.3-0.8,0.5l-0.8,0.8c-0.1,0.1-0.1,0.1-0.2,0.1s-0.2,0-0.2-0.1l-0.6-0.6
			c-0.9-0.9-2.3-1-3.2-0.2l0,0c-0.2,0.2-0.4,0.5-0.5,0.7c-0.1,0.3-0.2,0.6-0.2,0.9c0,0.3,0,0.6,0.2,0.9c0.4,1.1,1.2,2.1,2.1,3.2
			c0.8,0.9,1.6,1.7,2.4,2.5c0,0,0.1,0.1,0.1,0.1c0.5-0.5,1-1.1,1.5-1.7c0.3-0.3,0.6-0.7,1-1c0.9-1,1.7-2,2.2-3.1
			c0.3-0.8,0.2-1.7-0.4-2.4l0,0c-0.2-0.2-0.5-0.4-0.7-0.5C26.8,248.1,26.5,248.1,26.2,248.1L26.2,248.1z"/>
		<path class="st3" d="M24.5,249.7l-2.4,3.1c-0.1,0.1,0,0.2,0.1,0.2h1.4l-0.5,2.3l2.4-3.1c0.1-0.1,0-0.2-0.1-0.2H24L24.5,249.7z"/>
		<rect x="23" y="243.3" class="st1" width="1" height="3.1"/>
		<rect x="22" y="244.3" class="st1" width="3.1" height="1"/>
	</g>
	<g>
		<path class="st0" d="M22.3,8.3H23c5.1,0,9.2,4.1,9.2,9.2v0.7c0,5.1-4.1,9.2-9.2,9.2h-0.7c-5.1,0-9.2-4.1-9.2-9.2v-0.7
			C13,12.4,17.2,8.3,22.3,8.3z"/>
		<rect x="21.6" y="15.7" class="st5" width="2.1" height="8.3"/>
		<rect x="21.5" y="11.6" class="st5" width="2.1" height="1"/>
	</g>
	<g class="st6">
		<path class="st7" d="M38.7,18.2v-5.7h0.8v5.7H38.7z"/>
		<path class="st7" d="M40.8,18.2v-4.1h0.6v0.6c0.3-0.5,0.7-0.7,1.3-0.7c0.2,0,0.5,0,0.7,0.1s0.4,0.2,0.5,0.4s0.2,0.3,0.2,0.5
			c0,0.1,0,0.4,0,0.7v2.6h-0.7v-2.5c0-0.3,0-0.5-0.1-0.6s-0.2-0.3-0.3-0.3s-0.3-0.1-0.5-0.1c-0.3,0-0.6,0.1-0.8,0.3
			s-0.3,0.6-0.3,1.1v2.3H40.8z"/>
		<path class="st7" d="M45.4,18.2v-3.6h-0.6v-0.5h0.6v-0.4c0-0.3,0-0.5,0.1-0.6c0.1-0.2,0.2-0.3,0.4-0.4s0.4-0.2,0.7-0.2
			c0.2,0,0.4,0,0.7,0.1l-0.1,0.6c-0.1,0-0.3,0-0.4,0c-0.2,0-0.4,0-0.5,0.1s-0.1,0.3-0.1,0.5v0.4h0.8v0.5h-0.8v3.6H45.4z"/>
		<path class="st7" d="M47.2,16.2c0-0.8,0.2-1.3,0.6-1.7c0.4-0.3,0.8-0.5,1.3-0.5c0.6,0,1,0.2,1.4,0.6s0.5,0.9,0.5,1.5
			c0,0.5-0.1,1-0.2,1.3s-0.4,0.5-0.7,0.7s-0.6,0.3-1,0.3c-0.6,0-1.1-0.2-1.4-0.6S47.2,16.9,47.2,16.2z M47.9,16.2
			c0,0.5,0.1,0.9,0.3,1.2s0.5,0.4,0.9,0.4c0.3,0,0.6-0.1,0.9-0.4s0.3-0.7,0.3-1.2c0-0.5-0.1-0.9-0.3-1.2s-0.5-0.4-0.9-0.4
			c-0.4,0-0.6,0.1-0.9,0.4S47.9,15.6,47.9,16.2z"/>
		<path class="st7" d="M51.9,18.2v-4.1h0.6v0.6c0.2-0.3,0.3-0.5,0.4-0.6s0.3-0.1,0.5-0.1c0.2,0,0.5,0.1,0.7,0.2l-0.2,0.7
			c-0.2-0.1-0.3-0.2-0.5-0.2c-0.2,0-0.3,0-0.4,0.1s-0.2,0.2-0.3,0.4c-0.1,0.2-0.1,0.5-0.1,0.8v2.2H51.9z"/>
		<path class="st7" d="M54.5,18.2v-4.1h0.6v0.6c0.1-0.2,0.3-0.4,0.5-0.5s0.5-0.2,0.7-0.2c0.3,0,0.6,0.1,0.8,0.2s0.3,0.3,0.4,0.5
			c0.3-0.5,0.8-0.7,1.3-0.7c0.4,0,0.7,0.1,0.9,0.3s0.3,0.6,0.3,1.1v2.8h-0.7v-2.6c0-0.3,0-0.5-0.1-0.6s-0.1-0.2-0.2-0.3
			s-0.3-0.1-0.4-0.1c-0.3,0-0.5,0.1-0.7,0.3s-0.3,0.5-0.3,0.9v2.4H57v-2.7c0-0.3-0.1-0.5-0.2-0.7s-0.3-0.2-0.6-0.2
			c-0.2,0-0.4,0.1-0.5,0.2s-0.3,0.3-0.4,0.5s-0.1,0.5-0.1,0.9v2.2H54.5z"/>
		<path class="st7" d="M63.9,17.7c-0.3,0.2-0.5,0.4-0.8,0.5c-0.2,0.1-0.5,0.1-0.8,0.1c-0.5,0-0.8-0.1-1.1-0.3S61,17.5,61,17.1
			c0-0.2,0-0.4,0.1-0.6s0.2-0.3,0.4-0.4S61.8,16,62,16c0.1,0,0.3-0.1,0.6-0.1c0.6-0.1,1-0.1,1.3-0.2c0-0.1,0-0.2,0-0.2
			c0-0.3-0.1-0.5-0.2-0.6c-0.2-0.2-0.4-0.2-0.8-0.2c-0.3,0-0.6,0.1-0.7,0.2s-0.3,0.3-0.3,0.6l-0.7-0.1c0.1-0.3,0.2-0.5,0.3-0.7
			s0.4-0.3,0.6-0.4S62.6,14,63,14c0.4,0,0.6,0,0.9,0.1s0.4,0.2,0.5,0.3s0.2,0.3,0.2,0.5c0,0.1,0,0.3,0,0.6v0.9c0,0.7,0,1.1,0,1.2
			s0.1,0.3,0.2,0.5H64C64,18.1,63.9,17.9,63.9,17.7z M63.8,16.2c-0.3,0.1-0.6,0.2-1.1,0.3c-0.3,0-0.5,0.1-0.6,0.1s-0.2,0.1-0.3,0.2
			s-0.1,0.2-0.1,0.3c0,0.2,0.1,0.3,0.2,0.5s0.3,0.2,0.6,0.2c0.3,0,0.5-0.1,0.7-0.2s0.4-0.3,0.5-0.5c0.1-0.2,0.1-0.4,0.1-0.7V16.2z"
			/>
		<path class="st7" d="M67.2,17.6l0.1,0.6c-0.2,0-0.4,0.1-0.5,0.1c-0.3,0-0.5,0-0.6-0.1s-0.2-0.2-0.3-0.3s-0.1-0.4-0.1-0.8v-2.4
			h-0.5v-0.5h0.5v-1l0.7-0.4v1.4h0.7v0.5h-0.7v2.4c0,0.2,0,0.3,0,0.4s0.1,0.1,0.1,0.1s0.1,0.1,0.2,0.1C67,17.6,67.1,17.6,67.2,17.6z
			"/>
		<path class="st7" d="M67.9,13.3v-0.8h0.7v0.8H67.9z M67.9,18.2v-4.1h0.7v4.1H67.9z"/>
		<path class="st7" d="M69.4,16.2c0-0.8,0.2-1.3,0.6-1.7c0.4-0.3,0.8-0.5,1.3-0.5c0.6,0,1,0.2,1.4,0.6s0.5,0.9,0.5,1.5
			c0,0.5-0.1,1-0.2,1.3s-0.4,0.5-0.7,0.7s-0.6,0.3-1,0.3c-0.6,0-1.1-0.2-1.4-0.6S69.4,16.9,69.4,16.2z M70.1,16.2
			c0,0.5,0.1,0.9,0.3,1.2s0.5,0.4,0.9,0.4c0.3,0,0.6-0.1,0.9-0.4s0.3-0.7,0.3-1.2c0-0.5-0.1-0.9-0.3-1.2s-0.5-0.4-0.9-0.4
			c-0.4,0-0.6,0.1-0.9,0.4S70.1,15.6,70.1,16.2z"/>
		<path class="st7" d="M74.1,18.2v-4.1h0.6v0.6c0.3-0.5,0.7-0.7,1.3-0.7c0.2,0,0.5,0,0.7,0.1s0.4,0.2,0.5,0.4s0.2,0.3,0.2,0.5
			c0,0.1,0,0.4,0,0.7v2.6h-0.7v-2.5c0-0.3,0-0.5-0.1-0.6s-0.2-0.3-0.3-0.3s-0.3-0.1-0.5-0.1c-0.3,0-0.6,0.1-0.8,0.3
			s-0.3,0.6-0.3,1.1v2.3H74.1z"/>
	</g>
	<g class="st6">
		<path class="st7" d="M39.3,51.6v-5.7h1.1l1.4,4.1c0.1,0.4,0.2,0.7,0.3,0.8c0.1-0.2,0.2-0.5,0.3-0.9l1.4-4h1v5.7H44v-4.8l-1.7,4.8
			h-0.7L40,46.8v4.9H39.3z"/>
		<path class="st7" d="M48.6,51.6V51c-0.3,0.5-0.8,0.7-1.3,0.7c-0.2,0-0.5,0-0.7-0.1s-0.4-0.2-0.5-0.4s-0.2-0.3-0.2-0.5
			c0-0.1,0-0.4,0-0.7v-2.6h0.7v2.3c0,0.4,0,0.6,0,0.7c0,0.2,0.1,0.3,0.3,0.4s0.3,0.2,0.5,0.2s0.4-0.1,0.6-0.2s0.3-0.3,0.4-0.4
			s0.1-0.5,0.1-0.8v-2.2h0.7v4.1H48.6z"/>
		<path class="st7" d="M50.1,50.4l0.7-0.1c0,0.3,0.1,0.5,0.3,0.6s0.4,0.2,0.7,0.2c0.3,0,0.6-0.1,0.7-0.2s0.2-0.3,0.2-0.5
			c0-0.2-0.1-0.3-0.2-0.4c-0.1-0.1-0.3-0.1-0.7-0.2c-0.5-0.1-0.9-0.2-1.1-0.3s-0.4-0.2-0.5-0.4s-0.2-0.4-0.2-0.6
			c0-0.2,0-0.4,0.1-0.5s0.2-0.3,0.3-0.4c0.1-0.1,0.3-0.1,0.4-0.2s0.4-0.1,0.6-0.1c0.3,0,0.6,0,0.9,0.1s0.4,0.2,0.5,0.4
			s0.2,0.4,0.2,0.6l-0.7,0.1c0-0.2-0.1-0.4-0.3-0.5S52,48,51.8,48c-0.3,0-0.6,0.1-0.7,0.2s-0.2,0.2-0.2,0.4c0,0.1,0,0.2,0.1,0.2
			c0.1,0.1,0.1,0.1,0.3,0.2c0.1,0,0.3,0.1,0.6,0.2c0.5,0.1,0.8,0.2,1,0.3s0.4,0.2,0.5,0.4s0.2,0.4,0.2,0.6c0,0.2-0.1,0.5-0.2,0.7
			s-0.3,0.4-0.6,0.5s-0.5,0.2-0.9,0.2c-0.5,0-0.9-0.1-1.2-0.3S50.1,50.8,50.1,50.4z"/>
		<path class="st7" d="M57.2,50.3l0.7,0.1c-0.1,0.4-0.3,0.8-0.6,1s-0.7,0.4-1.2,0.4c-0.6,0-1.1-0.2-1.4-0.6s-0.5-0.9-0.5-1.6
			c0-0.7,0.2-1.2,0.5-1.6s0.8-0.6,1.4-0.6c0.6,0,1,0.2,1.4,0.6s0.5,0.9,0.5,1.6c0,0,0,0.1,0,0.2h-3.1c0,0.5,0.2,0.8,0.4,1
			s0.5,0.4,0.9,0.4c0.3,0,0.5-0.1,0.7-0.2S57.1,50.6,57.2,50.3z M54.9,49.2h2.3c0-0.3-0.1-0.6-0.3-0.8c-0.2-0.3-0.5-0.4-0.9-0.4
			c-0.3,0-0.6,0.1-0.8,0.3S54.9,48.8,54.9,49.2z"/>
		<path class="st7" d="M58.8,46.7v-0.8h0.7v0.8H58.8z M58.8,51.6v-4.1h0.7v4.1H58.8z"/>
		<path class="st7" d="M60.3,50.4l0.7-0.1c0,0.3,0.1,0.5,0.3,0.6s0.4,0.2,0.7,0.2c0.3,0,0.6-0.1,0.7-0.2s0.2-0.3,0.2-0.5
			c0-0.2-0.1-0.3-0.2-0.4c-0.1-0.1-0.3-0.1-0.7-0.2c-0.5-0.1-0.9-0.2-1.1-0.3s-0.4-0.2-0.5-0.4s-0.2-0.4-0.2-0.6
			c0-0.2,0-0.4,0.1-0.5s0.2-0.3,0.3-0.4c0.1-0.1,0.3-0.1,0.4-0.2s0.4-0.1,0.6-0.1c0.3,0,0.6,0,0.9,0.1s0.4,0.2,0.5,0.4
			s0.2,0.4,0.2,0.6l-0.7,0.1c0-0.2-0.1-0.4-0.3-0.5S62.3,48,62,48c-0.3,0-0.6,0.1-0.7,0.2s-0.2,0.2-0.2,0.4c0,0.1,0,0.2,0.1,0.2
			c0.1,0.1,0.1,0.1,0.3,0.2c0.1,0,0.3,0.1,0.6,0.2c0.5,0.1,0.8,0.2,1,0.3c0.2,0.1,0.4,0.2,0.5,0.4c0.1,0.2,0.2,0.4,0.2,0.6
			c0,0.2-0.1,0.5-0.2,0.7s-0.3,0.4-0.6,0.5s-0.5,0.2-0.9,0.2c-0.5,0-0.9-0.1-1.2-0.3S60.4,50.8,60.3,50.4z"/>
		<path class="st7" d="M64.6,51.6v-5.7h0.7V48c0.3-0.4,0.7-0.6,1.2-0.6c0.3,0,0.6,0.1,0.8,0.2s0.4,0.3,0.5,0.5s0.1,0.5,0.1,0.9v2.6
			h-0.7V49c0-0.4-0.1-0.6-0.2-0.8S66.6,48,66.4,48c-0.2,0-0.4,0.1-0.6,0.2s-0.3,0.3-0.4,0.4s-0.1,0.4-0.1,0.8v2.3H64.6z"/>
		<path class="st7" d="M68.8,49.6c0-0.8,0.2-1.3,0.6-1.7c0.4-0.3,0.8-0.5,1.3-0.5c0.6,0,1,0.2,1.4,0.6c0.4,0.4,0.5,0.9,0.5,1.5
			c0,0.5-0.1,1-0.2,1.3s-0.4,0.5-0.7,0.7c-0.3,0.2-0.6,0.3-1,0.3c-0.6,0-1.1-0.2-1.4-0.6C68.9,50.8,68.8,50.3,68.8,49.6z M69.5,49.6
			c0,0.5,0.1,0.9,0.3,1.2c0.2,0.3,0.5,0.4,0.9,0.4c0.3,0,0.6-0.1,0.9-0.4c0.2-0.3,0.3-0.7,0.3-1.2c0-0.5-0.1-0.9-0.3-1.2
			C71.3,48.1,71,48,70.7,48c-0.4,0-0.6,0.1-0.9,0.4C69.6,48.6,69.5,49,69.5,49.6z"/>
		<path class="st7" d="M73.5,53.2v-5.7h0.6V48c0.2-0.2,0.3-0.4,0.5-0.5c0.2-0.1,0.4-0.2,0.7-0.2c0.4,0,0.7,0.1,0.9,0.3
			c0.3,0.2,0.5,0.4,0.6,0.8c0.1,0.3,0.2,0.7,0.2,1.1c0,0.4-0.1,0.8-0.2,1.1s-0.4,0.6-0.7,0.8c-0.3,0.2-0.6,0.3-0.9,0.3
			c-0.2,0-0.4,0-0.6-0.1c-0.2-0.1-0.3-0.2-0.5-0.4v2H73.5z M74.1,49.6c0,0.5,0.1,0.9,0.3,1.2c0.2,0.3,0.5,0.4,0.8,0.4
			c0.3,0,0.6-0.1,0.8-0.4s0.3-0.7,0.3-1.2c0-0.5-0.1-0.9-0.3-1.2c-0.2-0.3-0.5-0.4-0.8-0.4c-0.3,0-0.6,0.1-0.8,0.4
			S74.1,49,74.1,49.6z"/>
	</g>
	<g class="st6">
		<path class="st7" d="M40.8,86.1V81h-1.9v-0.7h4.5V81h-1.9v5.1H40.8z"/>
	</g>
	<g class="st6">
		<path class="st7" d="M43,84c0-0.8,0.2-1.3,0.6-1.7c0.4-0.3,0.8-0.5,1.3-0.5c0.6,0,1,0.2,1.4,0.6s0.5,0.9,0.5,1.5
			c0,0.5-0.1,1-0.2,1.3s-0.4,0.5-0.7,0.7s-0.6,0.3-1,0.3c-0.6,0-1.1-0.2-1.4-0.6S43,84.7,43,84z M43.7,84c0,0.5,0.1,0.9,0.3,1.2
			s0.5,0.4,0.9,0.4c0.3,0,0.6-0.1,0.9-0.4s0.3-0.7,0.3-1.2c0-0.5-0.1-0.9-0.3-1.2s-0.5-0.4-0.9-0.4c-0.4,0-0.6,0.1-0.9,0.4
			S43.7,83.5,43.7,84z"/>
		<path class="st7" d="M50.4,85.6c-0.3,0.2-0.5,0.4-0.8,0.5s-0.5,0.1-0.8,0.1c-0.5,0-0.8-0.1-1.1-0.3s-0.4-0.5-0.4-0.9
			c0-0.2,0-0.4,0.1-0.6s0.2-0.3,0.4-0.4s0.3-0.2,0.5-0.2c0.1,0,0.3-0.1,0.6-0.1c0.6-0.1,1-0.1,1.3-0.2c0-0.1,0-0.2,0-0.2
			c0-0.3-0.1-0.5-0.2-0.6c-0.2-0.2-0.4-0.2-0.8-0.2c-0.3,0-0.6,0.1-0.7,0.2s-0.3,0.3-0.3,0.6l-0.7-0.1c0.1-0.3,0.2-0.5,0.3-0.7
			s0.4-0.3,0.6-0.4s0.6-0.1,0.9-0.1c0.4,0,0.6,0,0.9,0.1s0.4,0.2,0.5,0.3s0.2,0.3,0.2,0.5c0,0.1,0,0.3,0,0.6v0.9c0,0.7,0,1.1,0,1.2
			s0.1,0.3,0.2,0.5h-0.7C50.5,85.9,50.4,85.8,50.4,85.6z M50.3,84c-0.3,0.1-0.6,0.2-1.1,0.3c-0.3,0-0.5,0.1-0.6,0.1
			s-0.2,0.1-0.3,0.2s-0.1,0.2-0.1,0.3c0,0.2,0.1,0.3,0.2,0.5s0.3,0.2,0.6,0.2c0.3,0,0.5-0.1,0.7-0.2s0.4-0.3,0.5-0.5
			c0.1-0.2,0.1-0.4,0.1-0.7V84z"/>
		<path class="st7" d="M52.1,86.1v-5.7h0.7v5.7H52.1z"/>
		<path class="st7" d="M56.7,84.8l0.7,0.1c-0.1,0.4-0.3,0.8-0.6,1s-0.7,0.4-1.2,0.4c-0.6,0-1.1-0.2-1.4-0.6s-0.5-0.9-0.5-1.6
			c0-0.7,0.2-1.2,0.5-1.6s0.8-0.6,1.4-0.6c0.6,0,1,0.2,1.4,0.6s0.5,0.9,0.5,1.6c0,0,0,0.1,0,0.2h-3.1c0,0.5,0.2,0.8,0.4,1
			s0.5,0.4,0.9,0.4c0.3,0,0.5-0.1,0.7-0.2S56.6,85.1,56.7,84.8z M54.4,83.6h2.3c0-0.3-0.1-0.6-0.3-0.8c-0.2-0.3-0.5-0.4-0.9-0.4
			c-0.3,0-0.6,0.1-0.8,0.3S54.5,83.3,54.4,83.6z"/>
		<path class="st7" d="M59.9,85.5l0.1,0.6c-0.2,0-0.4,0.1-0.5,0.1c-0.3,0-0.5,0-0.6-0.1s-0.2-0.2-0.3-0.3s-0.1-0.4-0.1-0.8v-2.4H58
			v-0.5h0.5v-1l0.7-0.4v1.4h0.7v0.5h-0.7v2.4c0,0.2,0,0.3,0,0.4s0.1,0.1,0.1,0.1s0.1,0.1,0.2,0.1C59.7,85.5,59.8,85.5,59.9,85.5z"/>
		<path class="st7" d="M62.1,85.5l0.1,0.6c-0.2,0-0.4,0.1-0.5,0.1c-0.3,0-0.5,0-0.6-0.1s-0.2-0.2-0.3-0.3s-0.1-0.4-0.1-0.8v-2.4
			h-0.5v-0.5h0.5v-1l0.7-0.4v1.4h0.7v0.5h-0.7v2.4c0,0.2,0,0.3,0,0.4s0.1,0.1,0.1,0.1s0.1,0.1,0.2,0.1C61.9,85.5,62,85.5,62.1,85.5z
			"/>
	</g>
	<g class="st6">
		<path class="st7" d="M39.3,118v-5.7H40v2.8l2.8-2.8h1l-2.4,2.3L44,118h-1l-2-2.9L40,116v2H39.3z"/>
		<path class="st7" d="M47.3,117.5c-0.3,0.2-0.5,0.4-0.8,0.5s-0.5,0.1-0.8,0.1c-0.5,0-0.8-0.1-1.1-0.3s-0.4-0.5-0.4-0.9
			c0-0.2,0-0.4,0.1-0.6s0.2-0.3,0.4-0.4s0.3-0.2,0.5-0.2c0.1,0,0.3-0.1,0.6-0.1c0.6-0.1,1-0.1,1.3-0.2c0-0.1,0-0.2,0-0.2
			c0-0.3-0.1-0.5-0.2-0.6c-0.2-0.2-0.4-0.2-0.8-0.2c-0.3,0-0.6,0.1-0.7,0.2s-0.3,0.3-0.3,0.6l-0.7-0.1c0.1-0.3,0.2-0.5,0.3-0.7
			s0.4-0.3,0.6-0.4s0.6-0.1,0.9-0.1c0.4,0,0.6,0,0.9,0.1s0.4,0.2,0.5,0.3s0.2,0.3,0.2,0.5c0,0.1,0,0.3,0,0.6v0.9c0,0.7,0,1.1,0,1.2
			s0.1,0.3,0.2,0.5h-0.7C47.3,117.9,47.3,117.7,47.3,117.5z M47.2,115.9c-0.3,0.1-0.6,0.2-1.1,0.3c-0.3,0-0.5,0.1-0.6,0.1
			s-0.2,0.1-0.3,0.2s-0.1,0.2-0.1,0.3c0,0.2,0.1,0.3,0.2,0.5s0.3,0.2,0.6,0.2c0.3,0,0.5-0.1,0.7-0.2s0.4-0.3,0.5-0.5
			c0.1-0.2,0.1-0.4,0.1-0.7V115.9z"/>
		<path class="st7" d="M49,119.6v-5.7h0.6v0.5c0.2-0.2,0.3-0.4,0.5-0.5s0.4-0.2,0.7-0.2c0.4,0,0.7,0.1,0.9,0.3s0.5,0.4,0.6,0.8
			s0.2,0.7,0.2,1.1c0,0.4-0.1,0.8-0.2,1.1s-0.4,0.6-0.7,0.8s-0.6,0.3-0.9,0.3c-0.2,0-0.4,0-0.6-0.1s-0.3-0.2-0.5-0.4v2H49z
			 M49.6,116c0,0.5,0.1,0.9,0.3,1.2s0.5,0.4,0.8,0.4c0.3,0,0.6-0.1,0.8-0.4s0.3-0.7,0.3-1.2c0-0.5-0.1-0.9-0.3-1.2s-0.5-0.4-0.8-0.4
			c-0.3,0-0.6,0.1-0.8,0.4S49.6,115.4,49.6,116z"/>
		<path class="st7" d="M53.5,119.6v-5.7h0.6v0.5c0.2-0.2,0.3-0.4,0.5-0.5s0.4-0.2,0.7-0.2c0.4,0,0.7,0.1,0.9,0.3s0.5,0.4,0.6,0.8
			s0.2,0.7,0.2,1.1c0,0.4-0.1,0.8-0.2,1.1s-0.4,0.6-0.7,0.8s-0.6,0.3-0.9,0.3c-0.2,0-0.4,0-0.6-0.1s-0.3-0.2-0.5-0.4v2H53.5z
			 M54.1,116c0,0.5,0.1,0.9,0.3,1.2s0.5,0.4,0.8,0.4c0.3,0,0.6-0.1,0.8-0.4s0.3-0.7,0.3-1.2c0-0.5-0.1-0.9-0.3-1.2s-0.5-0.4-0.8-0.4
			c-0.3,0-0.6,0.1-0.8,0.4S54.1,115.4,54.1,116z"/>
		<path class="st7" d="M57.9,118v-4.1h0.6v0.6c0.2-0.3,0.3-0.5,0.4-0.6s0.3-0.1,0.5-0.1c0.2,0,0.5,0.1,0.7,0.2l-0.2,0.7
			c-0.2-0.1-0.3-0.2-0.5-0.2c-0.2,0-0.3,0-0.4,0.1s-0.2,0.2-0.3,0.4c-0.1,0.2-0.1,0.5-0.1,0.8v2.2H57.9z"/>
		<path class="st7" d="M63.3,118v-0.6c-0.3,0.5-0.8,0.7-1.3,0.7c-0.2,0-0.5,0-0.7-0.1s-0.4-0.2-0.5-0.4s-0.2-0.3-0.2-0.5
			c0-0.1,0-0.4,0-0.7v-2.6h0.7v2.3c0,0.4,0,0.6,0,0.7c0,0.2,0.1,0.3,0.3,0.4s0.3,0.2,0.5,0.2s0.4-0.1,0.6-0.2s0.3-0.3,0.4-0.4
			c0.1-0.2,0.1-0.5,0.1-0.8v-2.2h0.7v4.1H63.3z"/>
		<path class="st7" d="M65,118v-4.1h0.6v0.6c0.1-0.2,0.3-0.4,0.5-0.5c0.2-0.1,0.5-0.2,0.7-0.2c0.3,0,0.6,0.1,0.8,0.2
			c0.2,0.1,0.3,0.3,0.4,0.5c0.3-0.5,0.8-0.7,1.3-0.7c0.4,0,0.7,0.1,0.9,0.3c0.2,0.2,0.3,0.6,0.3,1.1v2.8h-0.7v-2.6
			c0-0.3,0-0.5-0.1-0.6c0-0.1-0.1-0.2-0.2-0.3c-0.1-0.1-0.3-0.1-0.4-0.1c-0.3,0-0.5,0.1-0.7,0.3c-0.2,0.2-0.3,0.5-0.3,0.9v2.4h-0.7
			v-2.7c0-0.3-0.1-0.5-0.2-0.7c-0.1-0.2-0.3-0.2-0.6-0.2c-0.2,0-0.4,0.1-0.5,0.2s-0.3,0.3-0.4,0.5c-0.1,0.2-0.1,0.5-0.1,0.9v2.2H65z
			"/>
	</g>
	<g class="st6">
		<path class="st7" d="M39.3,151.4v-5.7h0.8v2.4h3v-2.4h0.8v5.7h-0.8v-2.7h-3v2.7H39.3z"/>
		<path class="st7" d="M47.7,150.9c-0.3,0.2-0.5,0.4-0.8,0.5s-0.5,0.1-0.8,0.1c-0.5,0-0.8-0.1-1.1-0.3s-0.4-0.5-0.4-0.9
			c0-0.2,0-0.4,0.1-0.6s0.2-0.3,0.4-0.4s0.3-0.2,0.5-0.2c0.1,0,0.3-0.1,0.6-0.1c0.6-0.1,1-0.1,1.3-0.2c0-0.1,0-0.2,0-0.2
			c0-0.3-0.1-0.5-0.2-0.6c-0.2-0.2-0.4-0.2-0.8-0.2c-0.3,0-0.6,0.1-0.7,0.2s-0.3,0.3-0.3,0.6l-0.7-0.1c0.1-0.3,0.2-0.5,0.3-0.7
			s0.4-0.3,0.6-0.4s0.6-0.1,0.9-0.1c0.4,0,0.6,0,0.9,0.1s0.4,0.2,0.5,0.3s0.2,0.3,0.2,0.5c0,0.1,0,0.3,0,0.6v0.9c0,0.7,0,1.1,0,1.2
			s0.1,0.3,0.2,0.5h-0.7C47.8,151.2,47.7,151.1,47.7,150.9z M47.7,149.3c-0.3,0.1-0.6,0.2-1.1,0.3c-0.3,0-0.5,0.1-0.6,0.1
			s-0.2,0.1-0.3,0.2s-0.1,0.2-0.1,0.3c0,0.2,0.1,0.3,0.2,0.5s0.3,0.2,0.6,0.2c0.3,0,0.5-0.1,0.7-0.2s0.4-0.3,0.5-0.5
			c0.1-0.2,0.1-0.4,0.1-0.7V149.3z"/>
		<path class="st7" d="M49.5,151.4v-4.1h0.6v0.6c0.3-0.5,0.7-0.7,1.3-0.7c0.2,0,0.5,0,0.7,0.1s0.4,0.2,0.5,0.4s0.2,0.3,0.2,0.5
			c0,0.1,0,0.4,0,0.7v2.6h-0.7v-2.5c0-0.3,0-0.5-0.1-0.6s-0.2-0.3-0.3-0.3s-0.3-0.1-0.5-0.1c-0.3,0-0.6,0.1-0.8,0.3
			s-0.3,0.6-0.3,1.1v2.3H49.5z"/>
		<path class="st7" d="M56.6,151.4v-0.5c-0.3,0.4-0.6,0.6-1.2,0.6c-0.3,0-0.6-0.1-0.9-0.3s-0.5-0.4-0.6-0.8s-0.2-0.7-0.2-1.1
			c0-0.4,0.1-0.8,0.2-1.1s0.3-0.6,0.6-0.8s0.6-0.3,0.9-0.3c0.2,0,0.5,0.1,0.7,0.2s0.4,0.2,0.5,0.4v-2.1h0.7v5.7H56.6z M54.4,149.3
			c0,0.5,0.1,0.9,0.3,1.2s0.5,0.4,0.8,0.4c0.3,0,0.6-0.1,0.8-0.4s0.3-0.6,0.3-1.2c0-0.6-0.1-1-0.3-1.2s-0.5-0.4-0.8-0.4
			c-0.3,0-0.6,0.1-0.8,0.4S54.4,148.8,54.4,149.3z"/>
		<path class="st7" d="M58.4,146.5v-0.8h0.7v0.8H58.4z M58.4,151.4v-4.1h0.7v4.1H58.4z"/>
		<path class="st7" d="M60.1,151.4v-5.7h0.7v3.3l1.7-1.7h0.9l-1.6,1.5l1.7,2.6h-0.9l-1.4-2.1l-0.5,0.5v1.6H60.1z"/>
		<path class="st7" d="M66.8,150.9c-0.3,0.2-0.5,0.4-0.8,0.5c-0.2,0.1-0.5,0.1-0.8,0.1c-0.5,0-0.8-0.1-1.1-0.3
			c-0.2-0.2-0.4-0.5-0.4-0.9c0-0.2,0-0.4,0.1-0.6c0.1-0.2,0.2-0.3,0.4-0.4c0.1-0.1,0.3-0.2,0.5-0.2c0.1,0,0.3-0.1,0.6-0.1
			c0.6-0.1,1-0.1,1.3-0.2c0-0.1,0-0.2,0-0.2c0-0.3-0.1-0.5-0.2-0.6c-0.2-0.2-0.4-0.2-0.8-0.2c-0.3,0-0.6,0.1-0.7,0.2
			c-0.2,0.1-0.3,0.3-0.3,0.6l-0.7-0.1c0.1-0.3,0.2-0.5,0.3-0.7c0.1-0.2,0.3-0.3,0.6-0.4c0.3-0.1,0.6-0.1,0.9-0.1
			c0.4,0,0.6,0,0.9,0.1c0.2,0.1,0.4,0.2,0.5,0.3c0.1,0.1,0.2,0.3,0.2,0.5c0,0.1,0,0.3,0,0.6v0.9c0,0.7,0,1.1,0,1.2
			c0,0.2,0.1,0.3,0.2,0.5H67C66.9,151.2,66.9,151.1,66.8,150.9z M66.8,149.3c-0.3,0.1-0.6,0.2-1.1,0.3c-0.3,0-0.5,0.1-0.6,0.1
			c-0.1,0.1-0.2,0.1-0.3,0.2c-0.1,0.1-0.1,0.2-0.1,0.3c0,0.2,0.1,0.3,0.2,0.5c0.1,0.1,0.3,0.2,0.6,0.2c0.3,0,0.5-0.1,0.7-0.2
			s0.4-0.3,0.5-0.5c0.1-0.2,0.1-0.4,0.1-0.7V149.3z"/>
		<path class="st7" d="M68.6,153v-5.7h0.6v0.5c0.2-0.2,0.3-0.4,0.5-0.5c0.2-0.1,0.4-0.2,0.7-0.2c0.4,0,0.7,0.1,0.9,0.3
			c0.3,0.2,0.5,0.4,0.6,0.8c0.1,0.3,0.2,0.7,0.2,1.1c0,0.4-0.1,0.8-0.2,1.1s-0.4,0.6-0.7,0.8c-0.3,0.2-0.6,0.3-0.9,0.3
			c-0.2,0-0.4,0-0.6-0.1c-0.2-0.1-0.3-0.2-0.5-0.4v2H68.6z M69.2,149.3c0,0.5,0.1,0.9,0.3,1.2c0.2,0.3,0.5,0.4,0.8,0.4
			c0.3,0,0.6-0.1,0.8-0.4s0.3-0.7,0.3-1.2c0-0.5-0.1-0.9-0.3-1.2c-0.2-0.3-0.5-0.4-0.8-0.4c-0.3,0-0.6,0.1-0.8,0.4
			S69.2,148.8,69.2,149.3z"/>
		<path class="st7" d="M73,153v-5.7h0.6v0.5c0.2-0.2,0.3-0.4,0.5-0.5c0.2-0.1,0.4-0.2,0.7-0.2c0.4,0,0.7,0.1,0.9,0.3
			c0.3,0.2,0.5,0.4,0.6,0.8c0.1,0.3,0.2,0.7,0.2,1.1c0,0.4-0.1,0.8-0.2,1.1s-0.4,0.6-0.7,0.8c-0.3,0.2-0.6,0.3-0.9,0.3
			c-0.2,0-0.4,0-0.6-0.1c-0.2-0.1-0.3-0.2-0.5-0.4v2H73z M73.7,149.3c0,0.5,0.1,0.9,0.3,1.2c0.2,0.3,0.5,0.4,0.8,0.4
			c0.3,0,0.6-0.1,0.8-0.4s0.3-0.7,0.3-1.2c0-0.5-0.1-0.9-0.3-1.2c-0.2-0.3-0.5-0.4-0.8-0.4c-0.3,0-0.6,0.1-0.8,0.4
			S73.7,148.8,73.7,149.3z"/>
		<path class="st7" d="M77.2,150.1l0.7-0.1c0,0.3,0.1,0.5,0.3,0.6c0.2,0.1,0.4,0.2,0.7,0.2c0.3,0,0.6-0.1,0.7-0.2s0.2-0.3,0.2-0.5
			c0-0.2-0.1-0.3-0.2-0.4c-0.1-0.1-0.3-0.1-0.7-0.2c-0.5-0.1-0.9-0.2-1.1-0.3s-0.4-0.2-0.5-0.4c-0.1-0.2-0.2-0.4-0.2-0.6
			c0-0.2,0-0.4,0.1-0.5c0.1-0.2,0.2-0.3,0.3-0.4c0.1-0.1,0.3-0.1,0.4-0.2c0.2-0.1,0.4-0.1,0.6-0.1c0.3,0,0.6,0,0.9,0.1
			s0.4,0.2,0.5,0.4s0.2,0.4,0.2,0.6l-0.7,0.1c0-0.2-0.1-0.4-0.3-0.5c-0.2-0.1-0.4-0.2-0.6-0.2c-0.3,0-0.6,0.1-0.7,0.2
			c-0.1,0.1-0.2,0.2-0.2,0.4c0,0.1,0,0.2,0.1,0.2c0.1,0.1,0.1,0.1,0.3,0.2c0.1,0,0.3,0.1,0.6,0.2c0.5,0.1,0.8,0.2,1,0.3
			c0.2,0.1,0.4,0.2,0.5,0.4c0.1,0.2,0.2,0.4,0.2,0.6c0,0.2-0.1,0.5-0.2,0.7s-0.3,0.4-0.6,0.5s-0.5,0.2-0.9,0.2c-0.5,0-1-0.1-1.2-0.3
			C77.5,150.9,77.3,150.6,77.2,150.1z"/>
		<path class="st7" d="M83,150.7l0.1,0.6c-0.2,0-0.4,0.1-0.5,0.1c-0.3,0-0.5,0-0.6-0.1s-0.2-0.2-0.3-0.3c-0.1-0.1-0.1-0.4-0.1-0.8
			v-2.4h-0.5v-0.5h0.5v-1l0.7-0.4v1.4H83v0.5h-0.7v2.4c0,0.2,0,0.3,0,0.4c0,0.1,0.1,0.1,0.1,0.1c0.1,0,0.1,0.1,0.2,0.1
			C82.8,150.8,82.9,150.8,83,150.7z"/>
		<path class="st7" d="M83.4,149.3c0-0.8,0.2-1.3,0.6-1.7c0.4-0.3,0.8-0.5,1.3-0.5c0.6,0,1,0.2,1.4,0.6c0.4,0.4,0.5,0.9,0.5,1.5
			c0,0.5-0.1,1-0.2,1.3s-0.4,0.5-0.7,0.7c-0.3,0.2-0.6,0.3-1,0.3c-0.6,0-1.1-0.2-1.4-0.6C83.6,150.5,83.4,150,83.4,149.3z
			 M84.2,149.3c0,0.5,0.1,0.9,0.3,1.2c0.2,0.3,0.5,0.4,0.9,0.4c0.3,0,0.6-0.1,0.9-0.4c0.2-0.3,0.3-0.7,0.3-1.2
			c0-0.5-0.1-0.9-0.3-1.2c-0.2-0.3-0.5-0.4-0.9-0.4c-0.4,0-0.6,0.1-0.9,0.4C84.3,148.4,84.2,148.8,84.2,149.3z"/>
		<path class="st7" d="M90.9,150.9c-0.3,0.2-0.5,0.4-0.8,0.5c-0.2,0.1-0.5,0.1-0.8,0.1c-0.5,0-0.8-0.1-1.1-0.3
			c-0.2-0.2-0.4-0.5-0.4-0.9c0-0.2,0-0.4,0.1-0.6c0.1-0.2,0.2-0.3,0.4-0.4c0.1-0.1,0.3-0.2,0.5-0.2c0.1,0,0.3-0.1,0.6-0.1
			c0.6-0.1,1-0.1,1.3-0.2c0-0.1,0-0.2,0-0.2c0-0.3-0.1-0.5-0.2-0.6c-0.2-0.2-0.4-0.2-0.8-0.2c-0.3,0-0.6,0.1-0.7,0.2
			c-0.2,0.1-0.3,0.3-0.3,0.6l-0.7-0.1c0.1-0.3,0.2-0.5,0.3-0.7c0.1-0.2,0.3-0.3,0.6-0.4c0.3-0.1,0.6-0.1,0.9-0.1
			c0.4,0,0.6,0,0.9,0.1c0.2,0.1,0.4,0.2,0.5,0.3c0.1,0.1,0.2,0.3,0.2,0.5c0,0.1,0,0.3,0,0.6v0.9c0,0.7,0,1.1,0,1.2
			c0,0.2,0.1,0.3,0.2,0.5H91C90.9,151.2,90.9,151.1,90.9,150.9z M90.8,149.3c-0.3,0.1-0.6,0.2-1.1,0.3c-0.3,0-0.5,0.1-0.6,0.1
			c-0.1,0.1-0.2,0.1-0.3,0.2c-0.1,0.1-0.1,0.2-0.1,0.3c0,0.2,0.1,0.3,0.2,0.5c0.1,0.1,0.3,0.2,0.6,0.2c0.3,0,0.5-0.1,0.7-0.2
			s0.4-0.3,0.5-0.5c0.1-0.2,0.1-0.4,0.1-0.7V149.3z"/>
		<path class="st7" d="M92.6,151.4v-5.7h0.7v5.7H92.6z"/>
		<path class="st7" d="M97.2,150l0.7,0.1c-0.1,0.4-0.3,0.8-0.6,1c-0.3,0.2-0.7,0.4-1.2,0.4c-0.6,0-1.1-0.2-1.4-0.6s-0.5-0.9-0.5-1.6
			c0-0.7,0.2-1.2,0.5-1.6s0.8-0.6,1.4-0.6c0.6,0,1,0.2,1.4,0.6s0.5,0.9,0.5,1.6c0,0,0,0.1,0,0.2h-3.1c0,0.5,0.2,0.8,0.4,1
			c0.2,0.2,0.5,0.4,0.9,0.4c0.3,0,0.5-0.1,0.7-0.2C97,150.5,97.1,150.3,97.2,150z M94.9,148.9h2.3c0-0.3-0.1-0.6-0.3-0.8
			c-0.2-0.3-0.5-0.4-0.9-0.4c-0.3,0-0.6,0.1-0.8,0.3C95.1,148.2,94.9,148.5,94.9,148.9z"/>
		<path class="st7" d="M100.4,150.7l0.1,0.6c-0.2,0-0.4,0.1-0.5,0.1c-0.3,0-0.5,0-0.6-0.1s-0.2-0.2-0.3-0.3
			c-0.1-0.1-0.1-0.4-0.1-0.8v-2.4h-0.5v-0.5H99v-1l0.7-0.4v1.4h0.7v0.5h-0.7v2.4c0,0.2,0,0.3,0,0.4c0,0.1,0.1,0.1,0.1,0.1
			c0.1,0,0.1,0.1,0.2,0.1C100.1,150.8,100.2,150.8,100.4,150.7z"/>
		<path class="st7" d="M102.6,150.7l0.1,0.6c-0.2,0-0.4,0.1-0.5,0.1c-0.3,0-0.5,0-0.6-0.1s-0.2-0.2-0.3-0.3
			c-0.1-0.1-0.1-0.4-0.1-0.8v-2.4h-0.5v-0.5h0.5v-1l0.7-0.4v1.4h0.7v0.5h-0.7v2.4c0,0.2,0,0.3,0,0.4c0,0.1,0.1,0.1,0.1,0.1
			c0.1,0,0.1,0.1,0.2,0.1C102.4,150.8,102.5,150.8,102.6,150.7z"/>
	</g>
	<g class="st6">
		<path class="st7" d="M39.4,183.7V178h0.8v2.4h3V178h0.8v5.7h-0.8V181h-3v2.7H39.4z"/>
		<path class="st7" d="M45,178.8V178h0.7v0.8H45z M45,183.7v-4.1h0.7v4.1H45z"/>
		<path class="st7" d="M46.5,182.5l0.7-0.1c0,0.3,0.1,0.5,0.3,0.6s0.4,0.2,0.7,0.2c0.3,0,0.6-0.1,0.7-0.2s0.2-0.3,0.2-0.5
			c0-0.2-0.1-0.3-0.2-0.4c-0.1-0.1-0.3-0.1-0.7-0.2c-0.5-0.1-0.9-0.2-1.1-0.3s-0.4-0.2-0.5-0.4s-0.2-0.4-0.2-0.6
			c0-0.2,0-0.4,0.1-0.5s0.2-0.3,0.3-0.4c0.1-0.1,0.3-0.1,0.4-0.2s0.4-0.1,0.6-0.1c0.3,0,0.6,0,0.9,0.1s0.4,0.2,0.5,0.4
			s0.2,0.4,0.2,0.6l-0.7,0.1c0-0.2-0.1-0.4-0.3-0.5s-0.4-0.2-0.6-0.2c-0.3,0-0.6,0.1-0.7,0.2s-0.2,0.2-0.2,0.4c0,0.1,0,0.2,0.1,0.2
			c0.1,0.1,0.1,0.1,0.3,0.2c0.1,0,0.3,0.1,0.6,0.2c0.5,0.1,0.8,0.2,1,0.3s0.4,0.2,0.5,0.4s0.2,0.4,0.2,0.6c0,0.2-0.1,0.5-0.2,0.7
			s-0.3,0.4-0.6,0.5s-0.5,0.2-0.9,0.2c-0.5,0-0.9-0.1-1.2-0.3S46.6,182.9,46.5,182.5z"/>
		<path class="st7" d="M50.5,182.5l0.7-0.1c0,0.3,0.1,0.5,0.3,0.6s0.4,0.2,0.7,0.2c0.3,0,0.6-0.1,0.7-0.2s0.2-0.3,0.2-0.5
			c0-0.2-0.1-0.3-0.2-0.4c-0.1-0.1-0.3-0.1-0.7-0.2c-0.5-0.1-0.9-0.2-1.1-0.3s-0.4-0.2-0.5-0.4s-0.2-0.4-0.2-0.6
			c0-0.2,0-0.4,0.1-0.5s0.2-0.3,0.3-0.4c0.1-0.1,0.3-0.1,0.4-0.2s0.4-0.1,0.6-0.1c0.3,0,0.6,0,0.9,0.1s0.4,0.2,0.5,0.4
			s0.2,0.4,0.2,0.6l-0.7,0.1c0-0.2-0.1-0.4-0.3-0.5s-0.4-0.2-0.6-0.2c-0.3,0-0.6,0.1-0.7,0.2s-0.2,0.2-0.2,0.4c0,0.1,0,0.2,0.1,0.2
			c0.1,0.1,0.1,0.1,0.3,0.2c0.1,0,0.3,0.1,0.6,0.2c0.5,0.1,0.8,0.2,1,0.3s0.4,0.2,0.5,0.4s0.2,0.4,0.2,0.6c0,0.2-0.1,0.5-0.2,0.7
			s-0.3,0.4-0.6,0.5s-0.5,0.2-0.9,0.2c-0.5,0-0.9-0.1-1.2-0.3S50.6,182.9,50.5,182.5z"/>
	</g>
	<g class="st6">
		<path class="st7" d="M39.4,217.9v-5.7h2.5c0.5,0,0.9,0.1,1.2,0.2s0.5,0.3,0.6,0.5s0.2,0.5,0.2,0.9c0,0.4-0.1,0.7-0.4,1
			s-0.7,0.5-1.2,0.5c0.2,0.1,0.4,0.2,0.5,0.3c0.2,0.2,0.4,0.5,0.6,0.8l1,1.6h-1l-0.8-1.2c-0.2-0.3-0.4-0.6-0.5-0.8s-0.3-0.3-0.4-0.4
			s-0.2-0.1-0.3-0.2c-0.1,0-0.2,0-0.4,0h-0.9v2.5H39.4z M40.1,214.7h1.6c0.3,0,0.6,0,0.8-0.1s0.3-0.2,0.4-0.3s0.2-0.3,0.2-0.5
			c0-0.3-0.1-0.5-0.3-0.7s-0.5-0.3-0.9-0.3h-1.8V214.7z"/>
		<path class="st7" d="M47.9,216.6l0.7,0.1c-0.1,0.4-0.3,0.8-0.6,1s-0.7,0.4-1.2,0.4c-0.6,0-1.1-0.2-1.4-0.6s-0.5-0.9-0.5-1.6
			c0-0.7,0.2-1.2,0.5-1.6s0.8-0.6,1.4-0.6c0.6,0,1,0.2,1.4,0.6s0.5,0.9,0.5,1.6c0,0,0,0.1,0,0.2h-3.1c0,0.5,0.2,0.8,0.4,1
			s0.5,0.4,0.9,0.4c0.3,0,0.5-0.1,0.7-0.2S47.8,216.9,47.9,216.6z M45.6,215.4h2.3c0-0.3-0.1-0.6-0.3-0.8c-0.2-0.3-0.5-0.4-0.9-0.4
			c-0.3,0-0.6,0.1-0.8,0.3S45.6,215.1,45.6,215.4z"/>
		<path class="st7" d="M49.2,216.7l0.7-0.1c0,0.3,0.1,0.5,0.3,0.6s0.4,0.2,0.7,0.2c0.3,0,0.6-0.1,0.7-0.2s0.2-0.3,0.2-0.5
			c0-0.2-0.1-0.3-0.2-0.4c-0.1-0.1-0.3-0.1-0.7-0.2c-0.5-0.1-0.9-0.2-1.1-0.3s-0.4-0.2-0.5-0.4s-0.2-0.4-0.2-0.6
			c0-0.2,0-0.4,0.1-0.5s0.2-0.3,0.3-0.4c0.1-0.1,0.3-0.1,0.4-0.2s0.4-0.1,0.6-0.1c0.3,0,0.6,0,0.9,0.1s0.4,0.2,0.5,0.4
			s0.2,0.4,0.2,0.6l-0.7,0.1c0-0.2-0.1-0.4-0.3-0.5s-0.4-0.2-0.6-0.2c-0.3,0-0.6,0.1-0.7,0.2s-0.2,0.2-0.2,0.4c0,0.1,0,0.2,0.1,0.2
			c0.1,0.1,0.1,0.1,0.3,0.2c0.1,0,0.3,0.1,0.6,0.2c0.5,0.1,0.8,0.2,1,0.3s0.4,0.2,0.5,0.4s0.2,0.4,0.2,0.6c0,0.2-0.1,0.5-0.2,0.7
			s-0.3,0.4-0.6,0.5S51.3,218,51,218c-0.5,0-0.9-0.1-1.2-0.3S49.3,217.1,49.2,216.7z"/>
		<path class="st7" d="M55,217.3l0.1,0.6c-0.2,0-0.4,0.1-0.5,0.1c-0.3,0-0.5,0-0.6-0.1s-0.2-0.2-0.3-0.3s-0.1-0.4-0.1-0.8v-2.4h-0.5
			v-0.5h0.5v-1l0.7-0.4v1.4H55v0.5h-0.7v2.4c0,0.2,0,0.3,0,0.4s0.1,0.1,0.1,0.1s0.1,0.1,0.2,0.1C54.8,217.3,54.9,217.3,55,217.3z"/>
		<path class="st7" d="M58.4,217.4c-0.3,0.2-0.5,0.4-0.8,0.5s-0.5,0.1-0.8,0.1c-0.5,0-0.8-0.1-1.1-0.3s-0.4-0.5-0.4-0.9
			c0-0.2,0-0.4,0.1-0.6s0.2-0.3,0.4-0.4s0.3-0.2,0.5-0.2c0.1,0,0.3-0.1,0.6-0.1c0.6-0.1,1-0.1,1.3-0.2c0-0.1,0-0.2,0-0.2
			c0-0.3-0.1-0.5-0.2-0.6c-0.2-0.2-0.4-0.2-0.8-0.2c-0.3,0-0.6,0.1-0.7,0.2s-0.3,0.3-0.3,0.6l-0.7-0.1c0.1-0.3,0.2-0.5,0.3-0.7
			s0.4-0.3,0.6-0.4s0.6-0.1,0.9-0.1c0.4,0,0.6,0,0.9,0.1s0.4,0.2,0.5,0.3s0.2,0.3,0.2,0.5c0,0.1,0,0.3,0,0.6v0.9c0,0.7,0,1.1,0,1.2
			s0.1,0.3,0.2,0.5h-0.7C58.5,217.8,58.4,217.6,58.4,217.4z M58.4,215.8c-0.3,0.1-0.6,0.2-1.1,0.3c-0.3,0-0.5,0.1-0.6,0.1
			s-0.2,0.1-0.3,0.2s-0.1,0.2-0.1,0.3c0,0.2,0.1,0.3,0.2,0.5s0.3,0.2,0.6,0.2c0.3,0,0.5-0.1,0.7-0.2s0.4-0.3,0.5-0.5
			c0.1-0.2,0.1-0.4,0.1-0.7V215.8z"/>
		<path class="st7" d="M62.9,217.9v-0.6c-0.3,0.5-0.8,0.7-1.3,0.7c-0.2,0-0.5,0-0.7-0.1s-0.4-0.2-0.5-0.4s-0.2-0.3-0.2-0.5
			c0-0.1,0-0.4,0-0.7v-2.6h0.7v2.3c0,0.4,0,0.6,0,0.7c0,0.2,0.1,0.3,0.3,0.4s0.3,0.2,0.5,0.2s0.4-0.1,0.6-0.2s0.3-0.3,0.4-0.4
			s0.1-0.5,0.1-0.8v-2.2h0.7v4.1H62.9z"/>
		<path class="st7" d="M64.6,217.9v-4.1h0.6v0.6c0.2-0.3,0.3-0.5,0.4-0.6s0.3-0.1,0.5-0.1c0.2,0,0.5,0.1,0.7,0.2l-0.2,0.7
			c-0.2-0.1-0.3-0.2-0.5-0.2c-0.2,0-0.3,0-0.4,0.1c-0.1,0.1-0.2,0.2-0.3,0.4c-0.1,0.2-0.1,0.5-0.1,0.8v2.2H64.6z"/>
		<path class="st7" d="M70,217.4c-0.3,0.2-0.5,0.4-0.8,0.5c-0.2,0.1-0.5,0.1-0.8,0.1c-0.5,0-0.8-0.1-1.1-0.3
			c-0.2-0.2-0.4-0.5-0.4-0.9c0-0.2,0-0.4,0.1-0.6c0.1-0.2,0.2-0.3,0.4-0.4c0.1-0.1,0.3-0.2,0.5-0.2c0.1,0,0.3-0.1,0.6-0.1
			c0.6-0.1,1-0.1,1.3-0.2c0-0.1,0-0.2,0-0.2c0-0.3-0.1-0.5-0.2-0.6c-0.2-0.2-0.4-0.2-0.8-0.2c-0.3,0-0.6,0.1-0.7,0.2
			c-0.2,0.1-0.3,0.3-0.3,0.6l-0.7-0.1c0.1-0.3,0.2-0.5,0.3-0.7c0.1-0.2,0.3-0.3,0.6-0.4c0.3-0.1,0.6-0.1,0.9-0.1
			c0.4,0,0.6,0,0.9,0.1c0.2,0.1,0.4,0.2,0.5,0.3c0.1,0.1,0.2,0.3,0.2,0.5c0,0.1,0,0.3,0,0.6v0.9c0,0.7,0,1.1,0,1.2
			c0,0.2,0.1,0.3,0.2,0.5h-0.7C70.1,217.8,70,217.6,70,217.4z M69.9,215.8c-0.3,0.1-0.6,0.2-1.1,0.3c-0.3,0-0.5,0.1-0.6,0.1
			c-0.1,0.1-0.2,0.1-0.3,0.2c-0.1,0.1-0.1,0.2-0.1,0.3c0,0.2,0.1,0.3,0.2,0.5c0.1,0.1,0.3,0.2,0.6,0.2c0.3,0,0.5-0.1,0.7-0.2
			s0.4-0.3,0.5-0.5c0.1-0.2,0.1-0.4,0.1-0.7V215.8z"/>
		<path class="st7" d="M71.7,217.9v-4.1h0.6v0.6c0.3-0.5,0.7-0.7,1.3-0.7c0.2,0,0.5,0,0.7,0.1c0.2,0.1,0.4,0.2,0.5,0.4
			c0.1,0.1,0.2,0.3,0.2,0.5c0,0.1,0,0.4,0,0.7v2.6h-0.7v-2.5c0-0.3,0-0.5-0.1-0.6s-0.2-0.3-0.3-0.3c-0.1-0.1-0.3-0.1-0.5-0.1
			c-0.3,0-0.6,0.1-0.8,0.3c-0.2,0.2-0.3,0.6-0.3,1.1v2.3H71.7z"/>
		<path class="st7" d="M76,218.3l0.7,0.1c0,0.2,0.1,0.4,0.2,0.5c0.2,0.1,0.4,0.2,0.7,0.2c0.3,0,0.6-0.1,0.8-0.2
			c0.2-0.1,0.3-0.3,0.4-0.5c0-0.1,0.1-0.4,0.1-0.9c-0.3,0.4-0.7,0.5-1.1,0.5c-0.6,0-1-0.2-1.3-0.6s-0.5-0.9-0.5-1.5
			c0-0.4,0.1-0.8,0.2-1.1c0.1-0.3,0.4-0.6,0.6-0.8c0.3-0.2,0.6-0.3,1-0.3c0.5,0,0.9,0.2,1.2,0.6v-0.5h0.6v3.6c0,0.6-0.1,1.1-0.2,1.4
			c-0.1,0.3-0.3,0.5-0.6,0.6s-0.6,0.2-1.1,0.2c-0.5,0-0.9-0.1-1.2-0.3S76,218.7,76,218.3z M76.6,215.8c0,0.5,0.1,0.9,0.3,1.2
			c0.2,0.2,0.5,0.4,0.8,0.4c0.3,0,0.6-0.1,0.8-0.4s0.3-0.6,0.3-1.2c0-0.5-0.1-0.9-0.3-1.1c-0.2-0.3-0.5-0.4-0.8-0.4
			c-0.3,0-0.6,0.1-0.8,0.4S76.6,215.3,76.6,215.8z"/>
	</g>
	<g class="st6">
		<path class="st7" d="M39.3,251v-5.7h0.8v2.4h3v-2.4h0.8v5.7h-0.8v-2.7h-3v2.7H39.3z"/>
		<path class="st7" d="M44.1,252.7l0.1-0.6c0.1,0,0.3,0.1,0.3,0.1c0.1,0,0.2,0,0.3-0.1s0.1-0.3,0.1-0.7v-4.4h0.7v4.4
			c0,0.5-0.1,0.9-0.2,1.1c-0.2,0.3-0.5,0.4-0.8,0.4C44.5,252.7,44.3,252.7,44.1,252.7z M45,246.1v-0.8h0.7v0.8H45z"/>
		<path class="st7" d="M49.5,250.5c-0.3,0.2-0.5,0.4-0.8,0.5s-0.5,0.1-0.8,0.1c-0.5,0-0.8-0.1-1.1-0.3s-0.4-0.5-0.4-0.9
			c0-0.2,0-0.4,0.1-0.6s0.2-0.3,0.4-0.4s0.3-0.2,0.5-0.2c0.1,0,0.3-0.1,0.6-0.1c0.6-0.1,1-0.1,1.3-0.2c0-0.1,0-0.2,0-0.2
			c0-0.3-0.1-0.5-0.2-0.6c-0.2-0.2-0.4-0.2-0.8-0.2c-0.3,0-0.6,0.1-0.7,0.2s-0.3,0.3-0.3,0.6l-0.7-0.1c0.1-0.3,0.2-0.5,0.3-0.7
			s0.4-0.3,0.6-0.4s0.6-0.1,0.9-0.1c0.4,0,0.6,0,0.9,0.1s0.4,0.2,0.5,0.3s0.2,0.3,0.2,0.5c0,0.1,0,0.3,0,0.6v0.9c0,0.7,0,1.1,0,1.2
			s0.1,0.3,0.2,0.5h-0.7C49.6,250.9,49.5,250.7,49.5,250.5z M49.4,249c-0.3,0.1-0.6,0.2-1.1,0.3c-0.3,0-0.5,0.1-0.6,0.1
			s-0.2,0.1-0.3,0.2s-0.1,0.2-0.1,0.3c0,0.2,0.1,0.3,0.2,0.5s0.3,0.2,0.6,0.2c0.3,0,0.5-0.1,0.7-0.2s0.4-0.3,0.5-0.5
			c0.1-0.2,0.1-0.4,0.1-0.7V249z M47.4,246.1v-0.8h0.7v0.8H47.4z M48.8,246.1v-0.8h0.7v0.8H48.8z"/>
		<path class="st7" d="M51.2,251v-4.1h0.6v0.6c0.2-0.3,0.3-0.5,0.4-0.6s0.3-0.1,0.5-0.1c0.2,0,0.5,0.1,0.7,0.2l-0.2,0.7
			c-0.2-0.1-0.3-0.2-0.5-0.2c-0.2,0-0.3,0-0.4,0.1s-0.2,0.2-0.3,0.4c-0.1,0.2-0.1,0.5-0.1,0.8v2.2H51.2z"/>
		<path class="st7" d="M55.4,250.4l0.1,0.6c-0.2,0-0.4,0.1-0.5,0.1c-0.3,0-0.5,0-0.6-0.1s-0.2-0.2-0.3-0.3s-0.1-0.4-0.1-0.8v-2.4
			h-0.5v-0.5H54v-1l0.7-0.4v1.4h0.7v0.5h-0.7v2.4c0,0.2,0,0.3,0,0.4s0.1,0.1,0.1,0.1s0.1,0.1,0.2,0.1
			C55.2,250.4,55.3,250.4,55.4,250.4z"/>
		<path class="st7" d="M55.8,249.8l0.7-0.1c0,0.3,0.1,0.5,0.3,0.6s0.4,0.2,0.7,0.2c0.3,0,0.6-0.1,0.7-0.2s0.2-0.3,0.2-0.5
			c0-0.2-0.1-0.3-0.2-0.4c-0.1-0.1-0.3-0.1-0.7-0.2c-0.5-0.1-0.9-0.2-1.1-0.3s-0.4-0.2-0.5-0.4S56,248.2,56,248c0-0.2,0-0.4,0.1-0.5
			s0.2-0.3,0.3-0.4c0.1-0.1,0.3-0.1,0.4-0.2s0.4-0.1,0.6-0.1c0.3,0,0.6,0,0.9,0.1s0.4,0.2,0.5,0.4s0.2,0.4,0.2,0.6l-0.7,0.1
			c0-0.2-0.1-0.4-0.3-0.5s-0.4-0.2-0.6-0.2c-0.3,0-0.6,0.1-0.7,0.2s-0.2,0.2-0.2,0.4c0,0.1,0,0.2,0.1,0.2c0.1,0.1,0.1,0.1,0.3,0.2
			c0.1,0,0.3,0.1,0.6,0.2c0.5,0.1,0.8,0.2,1,0.3s0.4,0.2,0.5,0.4s0.2,0.4,0.2,0.6c0,0.2-0.1,0.5-0.2,0.7s-0.3,0.4-0.6,0.5
			s-0.5,0.2-0.9,0.2c-0.5,0-0.9-0.1-1.2-0.3S55.9,250.3,55.8,249.8z"/>
		<path class="st7" d="M61.7,250.4l0.1,0.6c-0.2,0-0.4,0.1-0.5,0.1c-0.3,0-0.5,0-0.6-0.1s-0.2-0.2-0.3-0.3s-0.1-0.4-0.1-0.8v-2.4
			h-0.5v-0.5h0.5v-1l0.7-0.4v1.4h0.7v0.5h-0.7v2.4c0,0.2,0,0.3,0,0.4s0.1,0.1,0.1,0.1s0.1,0.1,0.2,0.1
			C61.4,250.4,61.5,250.4,61.7,250.4z"/>
		<path class="st7" d="M65,250.5c-0.3,0.2-0.5,0.4-0.8,0.5c-0.2,0.1-0.5,0.1-0.8,0.1c-0.5,0-0.8-0.1-1.1-0.3s-0.4-0.5-0.4-0.9
			c0-0.2,0-0.4,0.1-0.6s0.2-0.3,0.4-0.4s0.3-0.2,0.5-0.2c0.1,0,0.3-0.1,0.6-0.1c0.6-0.1,1-0.1,1.3-0.2c0-0.1,0-0.2,0-0.2
			c0-0.3-0.1-0.5-0.2-0.6c-0.2-0.2-0.4-0.2-0.8-0.2c-0.3,0-0.6,0.1-0.7,0.2c-0.2,0.1-0.3,0.3-0.3,0.6l-0.7-0.1
			c0.1-0.3,0.2-0.5,0.3-0.7s0.4-0.3,0.6-0.4c0.3-0.1,0.6-0.1,0.9-0.1c0.4,0,0.6,0,0.9,0.1c0.2,0.1,0.4,0.2,0.5,0.3
			c0.1,0.1,0.2,0.3,0.2,0.5c0,0.1,0,0.3,0,0.6v0.9c0,0.7,0,1.1,0,1.2c0,0.2,0.1,0.3,0.2,0.5h-0.7C65.1,250.9,65.1,250.7,65,250.5z
			 M65,249c-0.3,0.1-0.6,0.2-1.1,0.3c-0.3,0-0.5,0.1-0.6,0.1c-0.1,0.1-0.2,0.1-0.3,0.2c-0.1,0.1-0.1,0.2-0.1,0.3
			c0,0.2,0.1,0.3,0.2,0.5c0.1,0.1,0.3,0.2,0.6,0.2c0.3,0,0.5-0.1,0.7-0.2s0.4-0.3,0.5-0.5c0.1-0.2,0.1-0.4,0.1-0.7V249z"/>
		<path class="st7" d="M66.8,251v-4.1h0.6v0.6c0.2-0.3,0.3-0.5,0.4-0.6s0.3-0.1,0.5-0.1c0.2,0,0.5,0.1,0.7,0.2l-0.2,0.7
			c-0.2-0.1-0.3-0.2-0.5-0.2c-0.2,0-0.3,0-0.4,0.1c-0.1,0.1-0.2,0.2-0.3,0.4c-0.1,0.2-0.1,0.5-0.1,0.8v2.2H66.8z"/>
		<path class="st7" d="M71,250.4l0.1,0.6c-0.2,0-0.4,0.1-0.5,0.1c-0.3,0-0.5,0-0.6-0.1s-0.2-0.2-0.3-0.3c-0.1-0.1-0.1-0.4-0.1-0.8
			v-2.4h-0.5v-0.5h0.5v-1l0.7-0.4v1.4H71v0.5h-0.7v2.4c0,0.2,0,0.3,0,0.4c0,0.1,0.1,0.1,0.1,0.1c0.1,0,0.1,0.1,0.2,0.1
			C70.8,250.4,70.9,250.4,71,250.4z"/>
		<path class="st7" d="M74.4,250.5c-0.3,0.2-0.5,0.4-0.8,0.5c-0.2,0.1-0.5,0.1-0.8,0.1c-0.5,0-0.8-0.1-1.1-0.3
			c-0.2-0.2-0.4-0.5-0.4-0.9c0-0.2,0-0.4,0.1-0.6c0.1-0.2,0.2-0.3,0.4-0.4c0.1-0.1,0.3-0.2,0.5-0.2c0.1,0,0.3-0.1,0.6-0.1
			c0.6-0.1,1-0.1,1.3-0.2c0-0.1,0-0.2,0-0.2c0-0.3-0.1-0.5-0.2-0.6c-0.2-0.2-0.4-0.2-0.8-0.2c-0.3,0-0.6,0.1-0.7,0.2
			c-0.2,0.1-0.3,0.3-0.3,0.6l-0.7-0.1c0.1-0.3,0.2-0.5,0.3-0.7c0.1-0.2,0.3-0.3,0.6-0.4c0.3-0.1,0.6-0.1,0.9-0.1
			c0.4,0,0.6,0,0.9,0.1c0.2,0.1,0.4,0.2,0.5,0.3c0.1,0.1,0.2,0.3,0.2,0.5c0,0.1,0,0.3,0,0.6v0.9c0,0.7,0,1.1,0,1.2
			c0,0.2,0.1,0.3,0.2,0.5h-0.7C74.5,250.9,74.4,250.7,74.4,250.5z M74.3,249c-0.3,0.1-0.6,0.2-1.1,0.3c-0.3,0-0.5,0.1-0.6,0.1
			c-0.1,0.1-0.2,0.1-0.3,0.2c-0.1,0.1-0.1,0.2-0.1,0.3c0,0.2,0.1,0.3,0.2,0.5c0.1,0.1,0.3,0.2,0.6,0.2c0.3,0,0.5-0.1,0.7-0.2
			s0.4-0.3,0.5-0.5c0.1-0.2,0.1-0.4,0.1-0.7V249z"/>
		<path class="st7" d="M76.1,251v-4.1h0.6v0.6c0.2-0.3,0.3-0.5,0.4-0.6s0.3-0.1,0.5-0.1c0.2,0,0.5,0.1,0.7,0.2l-0.2,0.7
			c-0.2-0.1-0.3-0.2-0.5-0.2c-0.2,0-0.3,0-0.4,0.1c-0.1,0.1-0.2,0.2-0.3,0.4c-0.1,0.2-0.1,0.5-0.1,0.8v2.2H76.1z"/>
		<path class="st7" d="M81.6,249.7l0.7,0.1c-0.1,0.4-0.3,0.8-0.6,1c-0.3,0.2-0.7,0.4-1.2,0.4c-0.6,0-1.1-0.2-1.4-0.6
			s-0.5-0.9-0.5-1.6c0-0.7,0.2-1.2,0.5-1.6s0.8-0.6,1.4-0.6c0.6,0,1,0.2,1.4,0.6s0.5,0.9,0.5,1.6c0,0,0,0.1,0,0.2h-3.1
			c0,0.5,0.2,0.8,0.4,1c0.2,0.2,0.5,0.4,0.9,0.4c0.3,0,0.5-0.1,0.7-0.2C81.4,250.2,81.5,250,81.6,249.7z M79.3,248.6h2.3
			c0-0.3-0.1-0.6-0.3-0.8c-0.2-0.3-0.5-0.4-0.9-0.4c-0.3,0-0.6,0.1-0.8,0.3C79.5,247.9,79.3,248.2,79.3,248.6z"/>
	</g>
	<g class="st6">
		<path class="st7" d="M39.2,283.5v-5.7H40l3,4.5v-4.5h0.7v5.7H43l-3-4.5v4.5H39.2z"/>
		<path class="st7" d="M44.7,281.5c0-0.8,0.2-1.3,0.6-1.7c0.4-0.3,0.8-0.5,1.3-0.5c0.6,0,1,0.2,1.4,0.6s0.5,0.9,0.5,1.5
			c0,0.5-0.1,1-0.2,1.3s-0.4,0.5-0.7,0.7s-0.6,0.3-1,0.3c-0.6,0-1.1-0.2-1.4-0.6S44.7,282.2,44.7,281.5z M45.4,281.5
			c0,0.5,0.1,0.9,0.3,1.2s0.5,0.4,0.9,0.4c0.3,0,0.6-0.1,0.9-0.4s0.3-0.7,0.3-1.2c0-0.5-0.1-0.9-0.3-1.2s-0.5-0.4-0.9-0.4
			c-0.4,0-0.6,0.1-0.9,0.4S45.4,280.9,45.4,281.5z M45.5,278.6v-0.8h0.7v0.8H45.5z M47,278.6v-0.8h0.7v0.8H47z"/>
		<path class="st7" d="M52.1,283.5V283c-0.3,0.4-0.6,0.6-1.2,0.6c-0.3,0-0.6-0.1-0.9-0.3s-0.5-0.4-0.6-0.8s-0.2-0.7-0.2-1.1
			c0-0.4,0.1-0.8,0.2-1.1s0.3-0.6,0.6-0.8s0.6-0.3,0.9-0.3c0.2,0,0.5,0.1,0.7,0.2s0.4,0.2,0.5,0.4v-2.1h0.7v5.7H52.1z M49.8,281.5
			c0,0.5,0.1,0.9,0.3,1.2s0.5,0.4,0.8,0.4c0.3,0,0.6-0.1,0.8-0.4s0.3-0.6,0.3-1.2c0-0.6-0.1-1-0.3-1.2s-0.5-0.4-0.8-0.4
			c-0.3,0-0.6,0.1-0.8,0.4S49.8,280.9,49.8,281.5z"/>
		<path class="st7" d="M56.5,283.5v-0.6c-0.3,0.5-0.8,0.7-1.3,0.7c-0.2,0-0.5,0-0.7-0.1s-0.4-0.2-0.5-0.4s-0.2-0.3-0.2-0.5
			c0-0.1,0-0.4,0-0.7v-2.6h0.7v2.3c0,0.4,0,0.6,0,0.7c0,0.2,0.1,0.3,0.3,0.4s0.3,0.2,0.5,0.2s0.4-0.1,0.6-0.2s0.3-0.3,0.4-0.4
			s0.1-0.5,0.1-0.8v-2.2h0.7v4.1H56.5z"/>
		<path class="st7" d="M59.8,282.9l0.1,0.6c-0.2,0-0.4,0.1-0.5,0.1c-0.3,0-0.5,0-0.6-0.1s-0.2-0.2-0.3-0.3s-0.1-0.4-0.1-0.8v-2.4
			h-0.5v-0.5h0.5v-1l0.7-0.4v1.4h0.7v0.5h-0.7v2.4c0,0.2,0,0.3,0,0.4s0.1,0.1,0.1,0.1s0.1,0.1,0.2,0.1
			C59.6,282.9,59.7,282.9,59.8,282.9z"/>
		<path class="st7" d="M60.4,283.9L61,284c0,0.2,0.1,0.4,0.2,0.5c0.2,0.1,0.4,0.2,0.7,0.2c0.3,0,0.6-0.1,0.8-0.2s0.3-0.3,0.4-0.5
			c0-0.1,0.1-0.4,0.1-0.9c-0.3,0.4-0.7,0.5-1.1,0.5c-0.6,0-1-0.2-1.3-0.6s-0.5-0.9-0.5-1.5c0-0.4,0.1-0.8,0.2-1.1s0.4-0.6,0.6-0.8
			s0.6-0.3,1-0.3c0.5,0,0.9,0.2,1.2,0.6v-0.5h0.6v3.6c0,0.6-0.1,1.1-0.2,1.4c-0.1,0.3-0.3,0.5-0.6,0.6s-0.6,0.2-1.1,0.2
			c-0.5,0-0.9-0.1-1.2-0.3S60.4,284.3,60.4,283.9z M60.9,281.4c0,0.5,0.1,0.9,0.3,1.2s0.5,0.4,0.8,0.4c0.3,0,0.6-0.1,0.8-0.4
			s0.3-0.6,0.3-1.2c0-0.5-0.1-0.9-0.3-1.1c-0.2-0.3-0.5-0.4-0.8-0.4c-0.3,0-0.6,0.1-0.8,0.4S60.9,280.9,60.9,281.4z"/>
		<path class="st7" d="M67.7,283c-0.3,0.2-0.5,0.4-0.8,0.5c-0.2,0.1-0.5,0.1-0.8,0.1c-0.5,0-0.8-0.1-1.1-0.3
			c-0.2-0.2-0.4-0.5-0.4-0.9c0-0.2,0-0.4,0.1-0.6c0.1-0.2,0.2-0.3,0.4-0.4c0.1-0.1,0.3-0.2,0.5-0.2c0.1,0,0.3-0.1,0.6-0.1
			c0.6-0.1,1-0.1,1.3-0.2c0-0.1,0-0.2,0-0.2c0-0.3-0.1-0.5-0.2-0.6c-0.2-0.2-0.4-0.2-0.8-0.2c-0.3,0-0.6,0.1-0.7,0.2
			c-0.2,0.1-0.3,0.3-0.3,0.6l-0.7-0.1c0.1-0.3,0.2-0.5,0.3-0.7c0.1-0.2,0.3-0.3,0.6-0.4c0.3-0.1,0.6-0.1,0.9-0.1
			c0.4,0,0.6,0,0.9,0.1c0.2,0.1,0.4,0.2,0.5,0.3c0.1,0.1,0.2,0.3,0.2,0.5c0,0.1,0,0.3,0,0.6v0.9c0,0.7,0,1.1,0,1.2
			c0,0.2,0.1,0.3,0.2,0.5h-0.7C67.7,283.4,67.7,283.2,67.7,283z M67.6,281.5c-0.3,0.1-0.6,0.2-1.1,0.3c-0.3,0-0.5,0.1-0.6,0.1
			c-0.1,0.1-0.2,0.1-0.3,0.2c-0.1,0.1-0.1,0.2-0.1,0.3c0,0.2,0.1,0.3,0.2,0.5c0.1,0.1,0.3,0.2,0.6,0.2c0.3,0,0.5-0.1,0.7-0.2
			s0.4-0.3,0.5-0.5c0.1-0.2,0.1-0.4,0.1-0.7V281.5z M65.9,278.3c0-0.2,0.1-0.4,0.2-0.5c0.1-0.1,0.3-0.2,0.5-0.2
			c0.2,0,0.4,0.1,0.5,0.2c0.1,0.1,0.2,0.3,0.2,0.5c0,0.2-0.1,0.4-0.2,0.5c-0.1,0.1-0.3,0.2-0.5,0.2c-0.2,0-0.4-0.1-0.5-0.2
			C66,278.7,65.9,278.5,65.9,278.3z M66.2,278.3c0,0.1,0,0.2,0.1,0.3s0.2,0.1,0.3,0.1c0.1,0,0.2,0,0.3-0.1s0.1-0.2,0.1-0.3
			s0-0.2-0.1-0.3c-0.1-0.1-0.2-0.1-0.3-0.1c-0.1,0-0.2,0-0.3,0.1S66.2,278.2,66.2,278.3z"/>
		<path class="st7" d="M69.4,283.5v-4.1H70v0.6c0.3-0.5,0.7-0.7,1.3-0.7c0.2,0,0.5,0,0.7,0.1c0.2,0.1,0.4,0.2,0.5,0.4
			c0.1,0.1,0.2,0.3,0.2,0.5c0,0.1,0,0.4,0,0.7v2.6h-0.7V281c0-0.3,0-0.5-0.1-0.6s-0.2-0.3-0.3-0.3c-0.1-0.1-0.3-0.1-0.5-0.1
			c-0.3,0-0.6,0.1-0.8,0.3c-0.2,0.2-0.3,0.6-0.3,1.1v2.3H69.4z"/>
		<path class="st7" d="M73.7,283.9l0.7,0.1c0,0.2,0.1,0.4,0.2,0.5c0.2,0.1,0.4,0.2,0.7,0.2c0.3,0,0.6-0.1,0.8-0.2
			c0.2-0.1,0.3-0.3,0.4-0.5c0-0.1,0.1-0.4,0.1-0.9c-0.3,0.4-0.7,0.5-1.1,0.5c-0.6,0-1-0.2-1.3-0.6s-0.5-0.9-0.5-1.5
			c0-0.4,0.1-0.8,0.2-1.1c0.1-0.3,0.4-0.6,0.6-0.8c0.3-0.2,0.6-0.3,1-0.3c0.5,0,0.9,0.2,1.2,0.6v-0.5h0.6v3.6c0,0.6-0.1,1.1-0.2,1.4
			c-0.1,0.3-0.3,0.5-0.6,0.6s-0.6,0.2-1.1,0.2c-0.5,0-0.9-0.1-1.2-0.3S73.7,284.3,73.7,283.9z M74.3,281.4c0,0.5,0.1,0.9,0.3,1.2
			c0.2,0.2,0.5,0.4,0.8,0.4c0.3,0,0.6-0.1,0.8-0.4s0.3-0.6,0.3-1.2c0-0.5-0.1-0.9-0.3-1.1c-0.2-0.3-0.5-0.4-0.8-0.4
			c-0.3,0-0.6,0.1-0.8,0.4S74.3,280.9,74.3,281.4z"/>
	</g>
	<g class="st6">
		<path class="st7" d="M39.1,25.8l0.9-4.3h0.6l-0.9,4.3H39.1z"/>
		<path class="st7" d="M40.6,25.8l0.7-3.1h0.5l-0.1,0.5c0.2-0.2,0.4-0.4,0.6-0.5s0.4-0.1,0.6-0.1c0.3,0,0.4,0.1,0.6,0.2
			s0.2,0.3,0.2,0.5c0,0.1,0,0.3-0.1,0.5l-0.4,1.9h-0.5l0.4-2c0-0.2,0.1-0.3,0.1-0.4c0-0.1,0-0.2-0.1-0.3s-0.2-0.1-0.3-0.1
			c-0.3,0-0.5,0.1-0.7,0.3s-0.4,0.5-0.5,1l-0.3,1.4H40.6z"/>
		<path class="st7" d="M44,25.8l0.6-2.7h-0.5l0.1-0.4h0.5l0.1-0.4c0-0.2,0.1-0.4,0.1-0.5s0.1-0.2,0.2-0.2c0.1-0.1,0.3-0.1,0.5-0.1
			c0.1,0,0.3,0,0.6,0.1L46.1,22c-0.2,0-0.3-0.1-0.5-0.1c-0.1,0-0.2,0-0.2,0.1s-0.1,0.2-0.1,0.4l-0.1,0.3h0.6l-0.1,0.4h-0.6l-0.6,2.7
			H44z"/>
		<path class="st7" d="M45.7,24.6c0-0.6,0.2-1.1,0.5-1.5c0.3-0.3,0.7-0.5,1.2-0.5c0.4,0,0.7,0.1,0.9,0.4s0.3,0.6,0.3,0.9
			c0,0.4-0.1,0.7-0.2,1c-0.1,0.3-0.4,0.5-0.6,0.7s-0.5,0.2-0.8,0.2c-0.2,0-0.5-0.1-0.7-0.2s-0.3-0.2-0.5-0.4S45.7,24.9,45.7,24.6z
			 M46.2,24.6c0,0.3,0.1,0.5,0.2,0.7s0.3,0.2,0.5,0.2c0.1,0,0.2,0,0.3-0.1s0.2-0.1,0.3-0.2s0.2-0.2,0.2-0.3c0.1-0.1,0.1-0.2,0.2-0.4
			c0.1-0.2,0.1-0.4,0.1-0.6c0-0.3-0.1-0.5-0.2-0.7c-0.1-0.2-0.3-0.2-0.5-0.2c-0.2,0-0.3,0-0.5,0.1c-0.1,0.1-0.3,0.2-0.4,0.3
			s-0.2,0.3-0.2,0.5C46.3,24.2,46.2,24.4,46.2,24.6z"/>
		<path class="st7" d="M48.9,25.8l0.7-3.1h0.5l-0.1,0.6c0.2-0.2,0.3-0.4,0.5-0.5s0.3-0.2,0.5-0.2c0.1,0,0.2,0,0.4,0.1L51,23.2
			c-0.1-0.1-0.2-0.1-0.3-0.1c-0.2,0-0.4,0.1-0.6,0.3s-0.3,0.6-0.5,1.1l-0.3,1.2H48.9z"/>
		<path class="st7" d="M50.9,25.8l0.7-3.1h0.5L52,23.2c0.2-0.2,0.4-0.4,0.5-0.5s0.3-0.1,0.5-0.1c0.2,0,0.4,0.1,0.5,0.2
			c0.1,0.1,0.2,0.2,0.3,0.4c0.2-0.2,0.3-0.3,0.5-0.4c0.2-0.1,0.4-0.1,0.6-0.1c0.3,0,0.5,0.1,0.6,0.2s0.2,0.3,0.2,0.5
			c0,0.1,0,0.3-0.1,0.5l-0.4,2h-0.5l0.4-2.1c0-0.2,0.1-0.3,0.1-0.4c0-0.1,0-0.2-0.1-0.2s-0.2-0.1-0.3-0.1c-0.2,0-0.3,0-0.5,0.1
			s-0.3,0.2-0.4,0.4c-0.1,0.2-0.2,0.4-0.2,0.7l-0.3,1.5h-0.5l0.4-2.1c0-0.1,0-0.2,0-0.3c0-0.1,0-0.2-0.1-0.2s-0.1-0.1-0.2-0.1
			c-0.2,0-0.3,0-0.5,0.1s-0.3,0.2-0.4,0.4s-0.2,0.4-0.3,0.7l-0.3,1.5H50.9z"/>
		<path class="st7" d="M58,25.4c-0.2,0.2-0.4,0.3-0.5,0.3c-0.2,0.1-0.4,0.1-0.5,0.1c-0.3,0-0.5-0.1-0.7-0.3C56.1,25.4,56,25.2,56,25
			c0-0.2,0-0.3,0.1-0.5s0.2-0.2,0.3-0.3s0.3-0.1,0.5-0.2c0.1,0,0.3,0,0.7-0.1s0.6,0,0.7-0.1c0-0.1,0.1-0.3,0.1-0.4
			c0-0.1,0-0.2-0.1-0.3c-0.1-0.1-0.3-0.1-0.5-0.1c-0.2,0-0.4,0-0.5,0.1s-0.2,0.2-0.3,0.4l-0.5,0c0.1-0.3,0.3-0.5,0.5-0.7
			s0.5-0.2,0.9-0.2c0.4,0,0.7,0.1,0.9,0.3c0.2,0.1,0.3,0.3,0.3,0.5c0,0.2,0,0.4-0.1,0.6l-0.2,0.8c-0.1,0.2-0.1,0.4-0.1,0.6
			c0,0.1,0,0.2,0.1,0.4h-0.5C58.1,25.7,58.1,25.6,58,25.4z M58.2,24.2c-0.1,0-0.2,0.1-0.2,0.1s-0.2,0-0.4,0c-0.3,0-0.5,0.1-0.7,0.1
			c-0.1,0-0.2,0.1-0.3,0.2s-0.1,0.2-0.1,0.3c0,0.1,0.1,0.3,0.2,0.4s0.2,0.1,0.4,0.1c0.2,0,0.3,0,0.5-0.1s0.3-0.2,0.4-0.4
			S58.2,24.5,58.2,24.2z"/>
		<path class="st7" d="M60.5,25.4l-0.1,0.4c-0.1,0-0.2,0-0.4,0c-0.2,0-0.4-0.1-0.5-0.2c-0.1-0.1-0.1-0.2-0.1-0.3
			c0-0.1,0-0.2,0.1-0.5l0.4-1.8h-0.4l0.1-0.4H60l0.2-0.8l0.6-0.4l-0.2,1.1H61l-0.1,0.4h-0.5L60,24.8c0,0.2-0.1,0.3-0.1,0.4
			c0,0.1,0,0.1,0.1,0.1s0.1,0,0.2,0C60.3,25.4,60.4,25.4,60.5,25.4z"/>
		<path class="st7" d="M60.9,25.8l0.7-3.1h0.5l-0.7,3.1H60.9z M61.7,22.1l0.1-0.6h0.5l-0.1,0.6H61.7z"/>
		<path class="st7" d="M62.4,24.6c0-0.6,0.2-1.1,0.5-1.5c0.3-0.3,0.7-0.5,1.2-0.5c0.4,0,0.7,0.1,0.9,0.4s0.3,0.6,0.3,0.9
			c0,0.4-0.1,0.7-0.2,1c-0.1,0.3-0.4,0.5-0.6,0.7s-0.5,0.2-0.8,0.2c-0.2,0-0.5-0.1-0.7-0.2c-0.2-0.1-0.3-0.2-0.5-0.4
			S62.4,24.9,62.4,24.6z M62.9,24.6c0,0.3,0.1,0.5,0.2,0.7s0.3,0.2,0.5,0.2c0.1,0,0.2,0,0.3-0.1s0.2-0.1,0.3-0.2s0.2-0.2,0.2-0.3
			c0.1-0.1,0.1-0.2,0.2-0.4c0.1-0.2,0.1-0.4,0.1-0.6c0-0.3-0.1-0.5-0.2-0.7C64.4,23.1,64.3,23,64,23c-0.2,0-0.3,0-0.5,0.1
			c-0.1,0.1-0.3,0.2-0.4,0.3S63,23.8,63,24C62.9,24.2,62.9,24.4,62.9,24.6z"/>
		<path class="st7" d="M65.6,25.8l0.7-3.1h0.5l-0.1,0.5c0.2-0.2,0.4-0.4,0.6-0.5s0.4-0.1,0.6-0.1c0.3,0,0.4,0.1,0.6,0.2
			s0.2,0.3,0.2,0.5c0,0.1,0,0.3-0.1,0.5l-0.4,1.9h-0.5l0.4-2c0-0.2,0.1-0.3,0.1-0.4c0-0.1,0-0.2-0.1-0.3s-0.2-0.1-0.3-0.1
			c-0.3,0-0.5,0.1-0.7,0.3s-0.4,0.5-0.5,1l-0.3,1.4H65.6z"/>
	</g>
	<g class="st6">
		<path class="st7" d="M39.6,59.3l0.9-4.3h0.7l0.4,2.8c0.1,0.4,0.1,0.7,0.1,1.1c0.1-0.3,0.3-0.7,0.6-1.2l1.5-2.7h0.7l-0.9,4.3h-0.6
			l0.4-2.1c0.1-0.5,0.3-1,0.4-1.6c-0.1,0.3-0.3,0.6-0.5,0.9L42,59.3h-0.6L41,56.5c0-0.3-0.1-0.5-0.1-0.9c0,0.4-0.1,0.7-0.1,0.9
			l-0.6,2.7H39.6z"/>
		<path class="st7" d="M46.7,58.7c-0.4,0.4-0.8,0.6-1.1,0.6c-0.2,0-0.4-0.1-0.6-0.2c-0.1-0.1-0.2-0.3-0.2-0.5c0-0.1,0-0.4,0.1-0.7
			l0.4-1.8h0.5l-0.4,2c0,0.2-0.1,0.3-0.1,0.4c0,0.1,0,0.2,0.1,0.3s0.2,0.1,0.3,0.1c0.1,0,0.3,0,0.4-0.1s0.3-0.2,0.4-0.3
			s0.2-0.3,0.3-0.4c0-0.1,0.1-0.3,0.1-0.6l0.3-1.3h0.5L47,59.3h-0.5L46.7,58.7z"/>
		<path class="st7" d="M47.9,58.2l0.5,0c0,0.2,0,0.3,0.1,0.4s0.1,0.2,0.3,0.3s0.3,0.1,0.4,0.1c0.2,0,0.4,0,0.5-0.1s0.2-0.2,0.2-0.3
			c0-0.1,0-0.2-0.1-0.3c-0.1-0.1-0.2-0.2-0.5-0.3c-0.3-0.1-0.5-0.2-0.5-0.3c-0.1-0.1-0.2-0.2-0.3-0.3c-0.1-0.1-0.1-0.2-0.1-0.4
			c0-0.2,0.1-0.5,0.3-0.6s0.5-0.3,0.8-0.3c0.4,0,0.7,0.1,0.9,0.3s0.3,0.4,0.3,0.7l-0.5,0c0-0.2-0.1-0.3-0.2-0.4s-0.3-0.2-0.5-0.2
			c-0.2,0-0.3,0-0.4,0.1s-0.2,0.2-0.2,0.3s0,0.2,0.1,0.3c0.1,0.1,0.2,0.1,0.5,0.2c0.4,0.2,0.7,0.3,0.8,0.4c0.2,0.2,0.3,0.4,0.3,0.6
			c0,0.2,0,0.3-0.1,0.5s-0.2,0.3-0.4,0.4c-0.2,0.1-0.4,0.1-0.7,0.1c-0.4,0-0.7-0.1-0.9-0.3S47.9,58.6,47.9,58.2z"/>
		<path class="st7" d="M53.2,58.2l0.5,0.1c-0.1,0.3-0.2,0.5-0.5,0.7s-0.6,0.3-1,0.3c-0.2,0-0.4-0.1-0.6-0.2
			c-0.2-0.1-0.3-0.3-0.4-0.5S51,58.3,51,58.1c0-0.3,0.1-0.7,0.2-1c0.2-0.3,0.4-0.6,0.6-0.7c0.2-0.2,0.5-0.2,0.8-0.2
			c0.4,0,0.7,0.1,0.9,0.3s0.3,0.5,0.3,0.9c0,0.2,0,0.3,0,0.5h-2.3c0,0.1,0,0.1,0,0.2c0,0.3,0.1,0.5,0.2,0.7c0.1,0.2,0.3,0.2,0.5,0.2
			c0.2,0,0.4-0.1,0.5-0.2S53.1,58.5,53.2,58.2z M51.6,57.5h1.7c0-0.1,0-0.1,0-0.1c0-0.3-0.1-0.5-0.2-0.6c-0.1-0.1-0.3-0.2-0.5-0.2
			c-0.2,0-0.4,0.1-0.6,0.2S51.7,57.2,51.6,57.5z"/>
		<path class="st7" d="M56.3,58.7c-0.4,0.4-0.8,0.6-1.1,0.6c-0.2,0-0.4-0.1-0.6-0.2c-0.1-0.1-0.2-0.3-0.2-0.5c0-0.1,0-0.4,0.1-0.7
			l0.4-1.8h0.5l-0.4,2c0,0.2-0.1,0.3-0.1,0.4c0,0.1,0,0.2,0.1,0.3s0.2,0.1,0.3,0.1c0.1,0,0.3,0,0.4-0.1s0.3-0.2,0.4-0.3
			s0.2-0.3,0.3-0.4c0-0.1,0.1-0.3,0.1-0.6l0.3-1.3h0.5l-0.7,3.1h-0.5L56.3,58.7z"/>
		<path class="st7" d="M57.6,59.3l0.7-3.1h0.5l-0.1,0.5c0.2-0.2,0.4-0.4,0.5-0.5s0.3-0.1,0.5-0.1c0.2,0,0.4,0.1,0.5,0.2
			c0.1,0.1,0.2,0.2,0.3,0.4c0.2-0.2,0.3-0.3,0.5-0.4c0.2-0.1,0.4-0.1,0.6-0.1c0.3,0,0.5,0.1,0.6,0.2s0.2,0.3,0.2,0.5
			c0,0.1,0,0.3-0.1,0.5l-0.4,2h-0.5l0.4-2.1c0-0.2,0.1-0.3,0.1-0.4c0-0.1,0-0.2-0.1-0.2s-0.2-0.1-0.3-0.1c-0.2,0-0.3,0-0.5,0.1
			s-0.3,0.2-0.4,0.4c-0.1,0.2-0.2,0.4-0.2,0.7l-0.3,1.5h-0.5l0.4-2.1c0-0.1,0-0.2,0-0.3c0-0.1,0-0.2-0.1-0.2s-0.1-0.1-0.2-0.1
			c-0.2,0-0.3,0-0.5,0.1s-0.3,0.2-0.4,0.4s-0.2,0.4-0.3,0.7l-0.3,1.5H57.6z"/>
		<path class="st7" d="M64.3,58.2l0.5,0c0,0.2,0,0.3,0.1,0.4s0.1,0.2,0.3,0.3s0.3,0.1,0.4,0.1c0.2,0,0.4,0,0.5-0.1s0.2-0.2,0.2-0.3
			c0-0.1,0-0.2-0.1-0.3c-0.1-0.1-0.2-0.2-0.5-0.3c-0.3-0.1-0.5-0.2-0.5-0.3c-0.1-0.1-0.2-0.2-0.3-0.3c-0.1-0.1-0.1-0.2-0.1-0.4
			c0-0.2,0.1-0.5,0.3-0.6s0.5-0.3,0.8-0.3c0.4,0,0.7,0.1,0.9,0.3s0.3,0.4,0.3,0.7l-0.5,0c0-0.2-0.1-0.3-0.2-0.4s-0.3-0.2-0.5-0.2
			c-0.2,0-0.3,0-0.4,0.1s-0.2,0.2-0.2,0.3s0,0.2,0.1,0.3c0.1,0.1,0.2,0.1,0.5,0.2c0.4,0.2,0.7,0.3,0.8,0.4c0.2,0.2,0.3,0.4,0.3,0.6
			c0,0.2,0,0.3-0.1,0.5s-0.2,0.3-0.4,0.4c-0.2,0.1-0.4,0.1-0.7,0.1c-0.4,0-0.7-0.1-0.9-0.3S64.3,58.6,64.3,58.2z"/>
		<path class="st7" d="M67.2,59.3l0.9-4.3h0.5l-0.3,1.6c0.2-0.2,0.4-0.3,0.6-0.4s0.3-0.1,0.5-0.1c0.3,0,0.5,0.1,0.6,0.2
			c0.1,0.1,0.2,0.3,0.2,0.5c0,0.1,0,0.3-0.1,0.6l-0.4,1.8h-0.5l0.4-1.9c0.1-0.3,0.1-0.4,0.1-0.5c0-0.1,0-0.2-0.1-0.2
			s-0.2-0.1-0.3-0.1c-0.2,0-0.4,0.1-0.5,0.2s-0.3,0.2-0.4,0.4c-0.1,0.2-0.2,0.5-0.3,0.8l-0.3,1.3H67.2z"/>
		<path class="st7" d="M70.7,58.1c0-0.6,0.2-1.1,0.5-1.5c0.3-0.3,0.7-0.5,1.2-0.5c0.4,0,0.7,0.1,0.9,0.4s0.3,0.6,0.3,0.9
			c0,0.4-0.1,0.7-0.2,1c-0.1,0.3-0.3,0.5-0.6,0.7s-0.5,0.2-0.8,0.2c-0.2,0-0.5-0.1-0.7-0.2s-0.3-0.2-0.5-0.4S70.7,58.4,70.7,58.1z
			 M71.2,58.1c0,0.3,0.1,0.5,0.2,0.7s0.3,0.2,0.5,0.2c0.1,0,0.2,0,0.3-0.1s0.2-0.1,0.3-0.2s0.2-0.2,0.2-0.3c0.1-0.1,0.1-0.2,0.2-0.4
			c0.1-0.2,0.1-0.4,0.1-0.6c0-0.3-0.1-0.5-0.2-0.7c-0.1-0.2-0.3-0.2-0.5-0.2c-0.2,0-0.3,0-0.5,0.1c-0.1,0.1-0.3,0.2-0.4,0.3
			s-0.2,0.3-0.2,0.5C71.2,57.7,71.2,57.9,71.2,58.1z"/>
		<path class="st7" d="M73.6,60.5l0.9-4.3H75l-0.1,0.4c0.2-0.2,0.3-0.3,0.5-0.4c0.1-0.1,0.3-0.1,0.5-0.1c0.3,0,0.5,0.1,0.7,0.3
			s0.3,0.5,0.3,0.9c0,0.3-0.1,0.6-0.2,0.9c-0.1,0.3-0.2,0.5-0.4,0.6s-0.3,0.3-0.5,0.4s-0.3,0.1-0.5,0.1c-0.4,0-0.7-0.2-0.9-0.6
			l-0.4,1.7H73.6z M74.7,58c0,0.2,0,0.4,0,0.5c0,0.1,0.1,0.2,0.2,0.3s0.2,0.1,0.4,0.1c0.3,0,0.6-0.2,0.7-0.5
			c0.2-0.3,0.3-0.7,0.3-1.1c0-0.3-0.1-0.5-0.2-0.6c-0.1-0.1-0.3-0.2-0.5-0.2c-0.1,0-0.3,0-0.4,0.1S75.1,56.8,75,57
			c-0.1,0.1-0.2,0.3-0.2,0.5S74.7,57.9,74.7,58z"/>
	</g>
	<g class="st6">
		<path class="st7" d="M41,93.1l0.8-3.8h-1.4l0.1-0.5h3.4l-0.1,0.5h-1.4l-0.8,3.8H41z"/>
	</g>
	<g class="st6">
		<path class="st7" d="M43.1,91.9c0-0.6,0.2-1.1,0.5-1.5c0.3-0.3,0.7-0.5,1.2-0.5c0.4,0,0.7,0.1,0.9,0.4s0.3,0.6,0.3,0.9
			c0,0.4-0.1,0.7-0.2,1c-0.1,0.3-0.4,0.5-0.6,0.7s-0.5,0.2-0.8,0.2c-0.2,0-0.5-0.1-0.7-0.2s-0.3-0.2-0.5-0.4S43.1,92.2,43.1,91.9z
			 M43.6,91.9c0,0.3,0.1,0.5,0.2,0.7s0.3,0.2,0.5,0.2c0.1,0,0.2,0,0.3-0.1s0.2-0.1,0.3-0.2s0.2-0.2,0.2-0.3c0.1-0.1,0.1-0.2,0.2-0.4
			c0.1-0.2,0.1-0.4,0.1-0.6c0-0.3-0.1-0.5-0.2-0.7c-0.1-0.2-0.3-0.2-0.5-0.2c-0.2,0-0.3,0-0.5,0.1c-0.1,0.1-0.3,0.2-0.4,0.3
			s-0.2,0.3-0.2,0.5C43.6,91.5,43.6,91.7,43.6,91.9z"/>
		<path class="st7" d="M46.3,93.1l0.7-3.1h0.5l-0.7,3.1H46.3z M47,89.4l0.1-0.6h0.5l-0.1,0.6H47z"/>
		<path class="st7" d="M47.6,93.1l0.9-4.3H49l-0.9,4.3H47.6z"/>
		<path class="st7" d="M51.2,92.1l0.5,0.1c-0.1,0.3-0.2,0.5-0.5,0.7s-0.6,0.3-1,0.3c-0.2,0-0.4-0.1-0.6-0.2
			c-0.2-0.1-0.3-0.3-0.4-0.5s-0.2-0.4-0.2-0.7c0-0.3,0.1-0.7,0.2-1c0.2-0.3,0.4-0.6,0.6-0.7c0.2-0.2,0.5-0.2,0.8-0.2
			c0.4,0,0.7,0.1,0.9,0.3s0.3,0.5,0.3,0.9c0,0.2,0,0.3,0,0.5h-2.3c0,0.1,0,0.1,0,0.2c0,0.3,0.1,0.5,0.2,0.7c0.1,0.2,0.3,0.2,0.5,0.2
			c0.2,0,0.4-0.1,0.5-0.2S51.1,92.3,51.2,92.1z M49.7,91.3h1.7c0-0.1,0-0.1,0-0.1c0-0.3-0.1-0.5-0.2-0.6c-0.1-0.1-0.3-0.2-0.5-0.2
			c-0.2,0-0.4,0.1-0.6,0.2S49.8,91,49.7,91.3z"/>
		<path class="st7" d="M53.5,92.7l-0.1,0.4c-0.1,0-0.2,0-0.4,0c-0.2,0-0.4-0.1-0.5-0.2c-0.1-0.1-0.1-0.2-0.1-0.3
			c0-0.1,0-0.2,0.1-0.5l0.4-1.8h-0.4l0.1-0.4H53l0.2-0.8l0.6-0.4L53.5,90H54l-0.1,0.4h-0.5L53,92.1c0,0.2-0.1,0.3-0.1,0.4
			c0,0.1,0,0.1,0.1,0.1s0.1,0,0.2,0C53.3,92.7,53.4,92.7,53.5,92.7z"/>
		<path class="st7" d="M54,92l0.5,0c0,0.2,0,0.3,0.1,0.4s0.1,0.2,0.3,0.3s0.3,0.1,0.4,0.1c0.2,0,0.4,0,0.5-0.1s0.2-0.2,0.2-0.3
			c0-0.1,0-0.2-0.1-0.3c-0.1-0.1-0.2-0.2-0.5-0.3c-0.3-0.1-0.5-0.2-0.5-0.3c-0.1-0.1-0.2-0.2-0.3-0.3c-0.1-0.1-0.1-0.2-0.1-0.4
			c0-0.2,0.1-0.5,0.3-0.6s0.5-0.3,0.8-0.3c0.4,0,0.7,0.1,0.9,0.3s0.3,0.4,0.3,0.7l-0.5,0c0-0.2-0.1-0.3-0.2-0.4s-0.3-0.2-0.5-0.2
			c-0.2,0-0.3,0-0.4,0.1s-0.2,0.2-0.2,0.3s0,0.2,0.1,0.3c0.1,0.1,0.2,0.1,0.5,0.2c0.4,0.2,0.7,0.3,0.8,0.4c0.2,0.2,0.3,0.4,0.3,0.6
			c0,0.2,0,0.3-0.1,0.5S56.1,93,55.9,93c-0.2,0.1-0.4,0.1-0.7,0.1c-0.4,0-0.7-0.1-0.9-0.3S54,92.4,54,92z"/>
	</g>
	<g class="st6">
		<path class="st7" d="M42,123.6l0.6,0.1c-0.2,0.5-0.4,0.9-0.8,1.1s-0.7,0.4-1.2,0.4c-0.5,0-0.9-0.2-1.2-0.5s-0.5-0.8-0.5-1.4
			c0-0.8,0.2-1.4,0.7-1.9c0.4-0.5,0.9-0.7,1.5-0.7c0.5,0,0.8,0.1,1.1,0.4s0.4,0.6,0.5,1l-0.5,0c-0.1-0.3-0.2-0.5-0.4-0.7
			c-0.2-0.2-0.4-0.2-0.7-0.2c-0.5,0-1,0.2-1.3,0.7c-0.3,0.4-0.4,0.9-0.4,1.4c0,0.4,0.1,0.8,0.3,1s0.5,0.3,0.8,0.3
			c0.3,0,0.6-0.1,0.8-0.3S41.9,123.9,42,123.6z"/>
		<path class="st7" d="M42.8,125.1l0.9-4.3h0.5l-0.9,4.3H42.8z"/>
		<path class="st7" d="M44.3,123.9c0-0.6,0.2-1.1,0.5-1.5c0.3-0.3,0.7-0.5,1.2-0.5c0.4,0,0.7,0.1,0.9,0.4s0.3,0.6,0.3,0.9
			c0,0.4-0.1,0.7-0.2,1c-0.1,0.3-0.4,0.5-0.6,0.7s-0.5,0.2-0.8,0.2c-0.2,0-0.5-0.1-0.7-0.2s-0.3-0.2-0.5-0.4S44.3,124.1,44.3,123.9z
			 M44.8,123.8c0,0.3,0.1,0.5,0.2,0.7s0.3,0.2,0.5,0.2c0.1,0,0.2,0,0.3-0.1s0.2-0.1,0.3-0.2s0.2-0.2,0.2-0.3
			c0.1-0.1,0.1-0.2,0.2-0.4c0.1-0.2,0.1-0.4,0.1-0.6c0-0.3-0.1-0.5-0.2-0.7c-0.1-0.2-0.3-0.2-0.5-0.2c-0.2,0-0.3,0-0.5,0.1
			c-0.1,0.1-0.3,0.2-0.4,0.3s-0.2,0.3-0.2,0.5C44.9,123.5,44.8,123.7,44.8,123.8z"/>
		<path class="st7" d="M49.6,124.7c-0.2,0.2-0.4,0.3-0.5,0.3c-0.2,0.1-0.4,0.1-0.5,0.1c-0.3,0-0.5-0.1-0.7-0.3
			c-0.2-0.2-0.3-0.4-0.3-0.6c0-0.2,0-0.3,0.1-0.5s0.2-0.2,0.3-0.3s0.3-0.1,0.5-0.2c0.1,0,0.3,0,0.7-0.1s0.6,0,0.7-0.1
			c0-0.1,0.1-0.3,0.1-0.4c0-0.1,0-0.2-0.1-0.3c-0.1-0.1-0.3-0.1-0.5-0.1c-0.2,0-0.4,0-0.5,0.1s-0.2,0.2-0.3,0.4l-0.5,0
			c0.1-0.3,0.3-0.5,0.5-0.7s0.5-0.2,0.9-0.2c0.4,0,0.7,0.1,0.9,0.3c0.2,0.1,0.3,0.3,0.3,0.5c0,0.2,0,0.4-0.1,0.6l-0.2,0.8
			c-0.1,0.2-0.1,0.4-0.1,0.6c0,0.1,0,0.2,0.1,0.4h-0.5C49.7,125,49.7,124.8,49.6,124.7z M49.8,123.5c-0.1,0-0.2,0.1-0.2,0.1
			s-0.2,0-0.4,0c-0.3,0-0.5,0.1-0.7,0.1c-0.1,0-0.2,0.1-0.3,0.2s-0.1,0.2-0.1,0.3c0,0.1,0.1,0.3,0.2,0.4s0.2,0.1,0.4,0.1
			c0.2,0,0.3,0,0.5-0.1s0.3-0.2,0.4-0.4S49.8,123.8,49.8,123.5z"/>
		<path class="st7" d="M50.9,125.1l0.9-4.3h0.5l-0.6,2.7l1.5-1.5H54l-1.3,1.2l0.8,2h-0.6l-0.6-1.6l-0.6,0.6l-0.2,1H50.9z"/>
		<path class="st7" d="M53.9,125.1l0.7-3.1H55l-0.1,0.6c0.2-0.2,0.3-0.4,0.5-0.5s0.3-0.2,0.5-0.2c0.1,0,0.2,0,0.4,0.1l-0.2,0.5
			c-0.1-0.1-0.2-0.1-0.3-0.1c-0.2,0-0.4,0.1-0.6,0.3s-0.3,0.6-0.5,1.1l-0.3,1.2H53.9z"/>
		<path class="st7" d="M56,123.9c0-0.6,0.2-1.1,0.5-1.5c0.3-0.3,0.7-0.5,1.2-0.5c0.4,0,0.7,0.1,0.9,0.4s0.3,0.6,0.3,0.9
			c0,0.4-0.1,0.7-0.2,1c-0.1,0.3-0.4,0.5-0.6,0.7s-0.5,0.2-0.8,0.2c-0.2,0-0.5-0.1-0.7-0.2s-0.3-0.2-0.5-0.4S56,124.1,56,123.9z
			 M56.5,123.8c0,0.3,0.1,0.5,0.2,0.7s0.3,0.2,0.5,0.2c0.1,0,0.2,0,0.3-0.1s0.2-0.1,0.3-0.2s0.2-0.2,0.2-0.3
			c0.1-0.1,0.1-0.2,0.2-0.4c0.1-0.2,0.1-0.4,0.1-0.6c0-0.3-0.1-0.5-0.2-0.7c-0.1-0.2-0.3-0.2-0.5-0.2c-0.2,0-0.3,0-0.5,0.1
			c-0.1,0.1-0.3,0.2-0.4,0.3s-0.2,0.3-0.2,0.5C56.5,123.5,56.5,123.7,56.5,123.8z"/>
		<path class="st7" d="M59.3,123.9c0-0.6,0.2-1.1,0.5-1.5c0.3-0.3,0.7-0.5,1.2-0.5c0.4,0,0.7,0.1,0.9,0.4s0.3,0.6,0.3,0.9
			c0,0.4-0.1,0.7-0.2,1c-0.1,0.3-0.4,0.5-0.6,0.7s-0.5,0.2-0.8,0.2c-0.2,0-0.5-0.1-0.7-0.2s-0.3-0.2-0.5-0.4S59.3,124.1,59.3,123.9z
			 M59.8,123.8c0,0.3,0.1,0.5,0.2,0.7s0.3,0.2,0.5,0.2c0.1,0,0.2,0,0.3-0.1s0.2-0.1,0.3-0.2s0.2-0.2,0.2-0.3
			c0.1-0.1,0.1-0.2,0.2-0.4c0.1-0.2,0.1-0.4,0.1-0.6c0-0.3-0.1-0.5-0.2-0.7c-0.1-0.2-0.3-0.2-0.5-0.2c-0.2,0-0.3,0-0.5,0.1
			c-0.1,0.1-0.3,0.2-0.4,0.3s-0.2,0.3-0.2,0.5C59.9,123.5,59.8,123.7,59.8,123.8z"/>
		<path class="st7" d="M62.6,125.1l0.6-3.1h0.5l-0.1,0.5c0.2-0.2,0.4-0.4,0.5-0.5s0.3-0.1,0.5-0.1c0.2,0,0.4,0.1,0.5,0.2
			c0.1,0.1,0.2,0.2,0.3,0.4c0.2-0.2,0.3-0.3,0.5-0.4c0.2-0.1,0.4-0.1,0.6-0.1c0.3,0,0.5,0.1,0.6,0.2s0.2,0.3,0.2,0.5
			c0,0.1,0,0.3-0.1,0.5l-0.4,2h-0.5l0.4-2.1c0-0.2,0.1-0.3,0.1-0.4c0-0.1,0-0.2-0.1-0.2s-0.2-0.1-0.3-0.1c-0.2,0-0.3,0-0.5,0.1
			s-0.3,0.2-0.4,0.4c-0.1,0.2-0.2,0.4-0.2,0.7l-0.3,1.5h-0.5l0.4-2.1c0-0.1,0-0.2,0-0.3c0-0.1,0-0.2-0.1-0.2s-0.1-0.1-0.2-0.1
			c-0.2,0-0.3,0-0.5,0.1s-0.3,0.2-0.4,0.4s-0.2,0.4-0.3,0.7l-0.3,1.5H62.6z"/>
	</g>
	<g class="st6">
		<path class="st7" d="M38.8,158.9l2.4-4.3h0.7l0.7,4.3H42l-0.2-1.2h-1.7l-0.7,1.2H38.8z M40.3,157.2h1.4l-0.2-1.1
			c-0.1-0.4-0.1-0.8-0.1-1.1c-0.1,0.2-0.2,0.5-0.4,0.9L40.3,157.2z"/>
		<path class="st7" d="M45.2,157.8l0.5,0.1c-0.1,0.4-0.3,0.7-0.6,0.9c-0.2,0.2-0.5,0.3-0.8,0.3c-0.3,0-0.6-0.1-0.8-0.3
			s-0.3-0.5-0.3-0.9c0-0.3,0.1-0.7,0.2-1s0.3-0.6,0.6-0.7c0.3-0.2,0.5-0.3,0.9-0.3c0.3,0,0.6,0.1,0.8,0.3s0.3,0.4,0.3,0.7l-0.5,0
			c0-0.2-0.1-0.4-0.2-0.5s-0.3-0.2-0.4-0.2c-0.2,0-0.4,0.1-0.6,0.2s-0.3,0.3-0.4,0.6c-0.1,0.3-0.1,0.5-0.1,0.8
			c0,0.3,0.1,0.5,0.2,0.6s0.3,0.2,0.4,0.2s0.3-0.1,0.5-0.2S45.1,158,45.2,157.8z"/>
		<path class="st7" d="M48.2,157.8l0.5,0.1c-0.1,0.4-0.3,0.7-0.6,0.9c-0.2,0.2-0.5,0.3-0.8,0.3c-0.3,0-0.6-0.1-0.8-0.3
			s-0.3-0.5-0.3-0.9c0-0.3,0.1-0.7,0.2-1s0.3-0.6,0.6-0.7c0.3-0.2,0.5-0.3,0.9-0.3c0.3,0,0.6,0.1,0.8,0.3s0.3,0.4,0.3,0.7l-0.5,0
			c0-0.2-0.1-0.4-0.2-0.5s-0.3-0.2-0.4-0.2c-0.2,0-0.4,0.1-0.6,0.2s-0.3,0.3-0.4,0.6c-0.1,0.3-0.1,0.5-0.1,0.8
			c0,0.3,0.1,0.5,0.2,0.6s0.3,0.2,0.4,0.2s0.3-0.1,0.5-0.2S48.1,158,48.2,157.8z"/>
		<path class="st7" d="M51.4,157.9l0.5,0.1c-0.1,0.3-0.2,0.5-0.5,0.7s-0.6,0.3-1,0.3c-0.2,0-0.4-0.1-0.6-0.2
			c-0.2-0.1-0.3-0.3-0.4-0.5s-0.2-0.4-0.2-0.7c0-0.3,0.1-0.7,0.2-1c0.2-0.3,0.4-0.6,0.6-0.7c0.2-0.2,0.5-0.2,0.8-0.2
			c0.4,0,0.7,0.1,0.9,0.3s0.3,0.5,0.3,0.9c0,0.2,0,0.3,0,0.5h-2.3c0,0.1,0,0.1,0,0.2c0,0.3,0.1,0.5,0.2,0.7c0.1,0.2,0.3,0.2,0.5,0.2
			c0.2,0,0.4-0.1,0.5-0.2S51.3,158.1,51.4,157.9z M49.8,157.1h1.7c0-0.1,0-0.1,0-0.1c0-0.3-0.1-0.5-0.2-0.6
			c-0.1-0.1-0.3-0.2-0.5-0.2c-0.2,0-0.4,0.1-0.6,0.2S49.9,156.8,49.8,157.1z"/>
		<path class="st7" d="M52.5,157.8l0.5,0c0,0.2,0,0.3,0.1,0.4s0.1,0.2,0.3,0.3s0.3,0.1,0.4,0.1c0.2,0,0.4,0,0.5-0.1s0.2-0.2,0.2-0.3
			c0-0.1,0-0.2-0.1-0.3c-0.1-0.1-0.2-0.2-0.5-0.3c-0.3-0.1-0.5-0.2-0.5-0.3c-0.1-0.1-0.2-0.2-0.3-0.3c-0.1-0.1-0.1-0.2-0.1-0.4
			c0-0.2,0.1-0.5,0.3-0.6s0.5-0.3,0.8-0.3c0.4,0,0.7,0.1,0.9,0.3s0.3,0.4,0.3,0.7l-0.5,0c0-0.2-0.1-0.3-0.2-0.4s-0.3-0.2-0.5-0.2
			c-0.2,0-0.3,0-0.4,0.1s-0.2,0.2-0.2,0.3s0,0.2,0.1,0.3c0.1,0.1,0.2,0.1,0.5,0.2c0.4,0.2,0.7,0.3,0.8,0.4c0.2,0.2,0.3,0.4,0.3,0.6
			c0,0.2,0,0.3-0.1,0.5s-0.2,0.3-0.4,0.4c-0.2,0.1-0.4,0.1-0.7,0.1c-0.4,0-0.7-0.1-0.9-0.3S52.5,158.2,52.5,157.8z"/>
		<path class="st7" d="M55.5,157.8l0.5,0c0,0.2,0,0.3,0.1,0.4s0.1,0.2,0.3,0.3s0.3,0.1,0.4,0.1c0.2,0,0.4,0,0.5-0.1s0.2-0.2,0.2-0.3
			c0-0.1,0-0.2-0.1-0.3c-0.1-0.1-0.2-0.2-0.5-0.3c-0.3-0.1-0.5-0.2-0.5-0.3c-0.1-0.1-0.2-0.2-0.3-0.3c-0.1-0.1-0.1-0.2-0.1-0.4
			c0-0.2,0.1-0.5,0.3-0.6s0.5-0.3,0.8-0.3c0.4,0,0.7,0.1,0.9,0.3s0.3,0.4,0.3,0.7l-0.5,0c0-0.2-0.1-0.3-0.2-0.4s-0.3-0.2-0.5-0.2
			c-0.2,0-0.3,0-0.4,0.1s-0.2,0.2-0.2,0.3s0,0.2,0.1,0.3c0.1,0.1,0.2,0.1,0.5,0.2c0.4,0.2,0.7,0.3,0.8,0.4c0.2,0.2,0.3,0.4,0.3,0.6
			c0,0.2,0,0.3-0.1,0.5s-0.2,0.3-0.4,0.4c-0.2,0.1-0.4,0.1-0.7,0.1c-0.4,0-0.7-0.1-0.9-0.3S55.5,158.2,55.5,157.8z"/>
		<path class="st7" d="M58.4,158.9l0.7-3.1h0.5l-0.7,3.1H58.4z M59.2,155.2l0.1-0.6h0.5l-0.1,0.6H59.2z"/>
		<path class="st7" d="M59.8,158.9l0.9-4.3h0.5l-0.3,1.5c0.2-0.2,0.3-0.3,0.5-0.3s0.3-0.1,0.4-0.1c0.3,0,0.5,0.1,0.7,0.3
			s0.3,0.5,0.3,0.9c0,0.3,0,0.5-0.1,0.8s-0.2,0.4-0.3,0.6c-0.1,0.2-0.2,0.3-0.4,0.4c-0.1,0.1-0.2,0.2-0.4,0.2
			c-0.1,0-0.3,0.1-0.4,0.1c-0.2,0-0.4-0.1-0.5-0.2c-0.2-0.1-0.3-0.3-0.4-0.5l-0.1,0.6H59.8z M60.5,157.6L60.5,157.6
			c0,0.4,0.1,0.6,0.2,0.7s0.3,0.2,0.5,0.2c0.2,0,0.4-0.1,0.5-0.2c0.2-0.1,0.3-0.3,0.4-0.6s0.1-0.5,0.1-0.8c0-0.3-0.1-0.5-0.2-0.6
			s-0.3-0.2-0.5-0.2c-0.2,0-0.4,0.1-0.5,0.2c-0.2,0.1-0.3,0.4-0.4,0.7C60.6,157.3,60.5,157.5,60.5,157.6z"/>
		<path class="st7" d="M63.1,158.9l0.9-4.3h0.5l-0.9,4.3H63.1z"/>
		<path class="st7" d="M66.7,157.9l0.5,0.1c-0.1,0.3-0.2,0.5-0.5,0.7s-0.6,0.3-1,0.3c-0.2,0-0.4-0.1-0.6-0.2
			c-0.2-0.1-0.3-0.3-0.4-0.5s-0.2-0.4-0.2-0.7c0-0.3,0.1-0.7,0.2-1c0.2-0.3,0.4-0.6,0.6-0.7c0.2-0.2,0.5-0.2,0.8-0.2
			c0.4,0,0.7,0.1,0.9,0.3s0.3,0.5,0.3,0.9c0,0.2,0,0.3,0,0.5h-2.3c0,0.1,0,0.1,0,0.2c0,0.3,0.1,0.5,0.2,0.7c0.1,0.2,0.3,0.2,0.5,0.2
			c0.2,0,0.4-0.1,0.5-0.2S66.6,158.1,66.7,157.9z M65.2,157.1h1.7c0-0.1,0-0.1,0-0.1c0-0.3-0.1-0.5-0.2-0.6
			c-0.1-0.1-0.3-0.2-0.5-0.2c-0.2,0-0.4,0.1-0.6,0.2S65.3,156.8,65.2,157.1z"/>
		<path class="st7" d="M70.7,158.5l-0.1,0.4c-0.1,0-0.2,0-0.4,0c-0.2,0-0.4-0.1-0.5-0.2c-0.1-0.1-0.1-0.2-0.1-0.3
			c0-0.1,0-0.2,0.1-0.5l0.4-1.8h-0.4l0.1-0.4h0.4l0.2-0.8l0.6-0.4l-0.2,1.1h0.5l-0.1,0.4h-0.5l-0.4,1.7c0,0.2-0.1,0.3-0.1,0.4
			c0,0.1,0,0.1,0.1,0.1s0.1,0,0.2,0C70.5,158.5,70.6,158.5,70.7,158.5z"/>
		<path class="st7" d="M71.2,157.7c0-0.6,0.2-1.1,0.5-1.5c0.3-0.3,0.7-0.5,1.2-0.5c0.4,0,0.7,0.1,0.9,0.4s0.3,0.6,0.3,0.9
			c0,0.4-0.1,0.7-0.2,1c-0.1,0.3-0.3,0.5-0.6,0.7s-0.5,0.2-0.8,0.2c-0.2,0-0.5-0.1-0.7-0.2s-0.3-0.2-0.5-0.4S71.2,158,71.2,157.7z
			 M71.7,157.7c0,0.3,0.1,0.5,0.2,0.7s0.3,0.2,0.5,0.2c0.1,0,0.2,0,0.3-0.1s0.2-0.1,0.3-0.2s0.2-0.2,0.2-0.3
			c0.1-0.1,0.1-0.2,0.2-0.4c0.1-0.2,0.1-0.4,0.1-0.6c0-0.3-0.1-0.5-0.2-0.7c-0.1-0.2-0.3-0.2-0.5-0.2c-0.2,0-0.3,0-0.5,0.1
			c-0.1,0.1-0.3,0.2-0.4,0.3s-0.2,0.3-0.2,0.5C71.8,157.3,71.7,157.5,71.7,157.7z"/>
		<path class="st7" d="M74.4,158.9l0.7-3.1h0.5l-0.7,3.1H74.4z M75.2,155.2l0.1-0.6h0.5l-0.1,0.6H75.2z"/>
		<path class="st7" d="M75.7,158.9l0.9-4.3h0.5l-0.9,4.3H75.7z"/>
		<path class="st7" d="M79.4,157.9l0.5,0.1c-0.1,0.3-0.2,0.5-0.5,0.7s-0.6,0.3-1,0.3c-0.2,0-0.4-0.1-0.6-0.2
			c-0.2-0.1-0.3-0.3-0.4-0.5s-0.2-0.4-0.2-0.7c0-0.3,0.1-0.7,0.2-1c0.2-0.3,0.4-0.6,0.6-0.7c0.2-0.2,0.5-0.2,0.8-0.2
			c0.4,0,0.7,0.1,0.9,0.3s0.3,0.5,0.3,0.9c0,0.2,0,0.3,0,0.5h-2.3c0,0.1,0,0.1,0,0.2c0,0.3,0.1,0.5,0.2,0.7c0.1,0.2,0.3,0.2,0.5,0.2
			c0.2,0,0.4-0.1,0.5-0.2S79.3,158.1,79.4,157.9z M77.8,157.1h1.7c0-0.1,0-0.1,0-0.1c0-0.3-0.1-0.5-0.2-0.6
			c-0.1-0.1-0.3-0.2-0.5-0.2c-0.2,0-0.4,0.1-0.6,0.2S77.9,156.8,77.8,157.1z"/>
		<path class="st7" d="M81.7,158.5l-0.1,0.4c-0.1,0-0.2,0-0.4,0c-0.2,0-0.4-0.1-0.5-0.2c-0.1-0.1-0.1-0.2-0.1-0.3
			c0-0.1,0-0.2,0.1-0.5l0.4-1.8h-0.4l0.1-0.4h0.4l0.2-0.8l0.6-0.4l-0.2,1.1h0.5l-0.1,0.4h-0.5l-0.4,1.7c0,0.2-0.1,0.3-0.1,0.4
			c0,0.1,0,0.1,0.1,0.1s0.1,0,0.2,0C81.5,158.5,81.6,158.5,81.7,158.5z"/>
	</g>
	<g class="st6">
		<path class="st7" d="M38.9,191l0.9-4.3h3.1l-0.1,0.5h-2.5l-0.3,1.3h2.5l-0.1,0.5h-2.5l-0.3,1.5h2.7l-0.1,0.5H38.9z"/>
		<path class="st7" d="M42.8,191l0.9-4.3h0.5l-0.9,4.3H42.8z"/>
		<path class="st7" d="M46.5,190L47,190c-0.1,0.3-0.2,0.5-0.5,0.7s-0.6,0.3-1,0.3c-0.2,0-0.4-0.1-0.6-0.2c-0.2-0.1-0.3-0.3-0.4-0.5
			s-0.2-0.4-0.2-0.7c0-0.3,0.1-0.7,0.2-1c0.2-0.3,0.4-0.6,0.6-0.7c0.2-0.2,0.5-0.2,0.8-0.2c0.4,0,0.7,0.1,0.9,0.3s0.3,0.5,0.3,0.9
			c0,0.2,0,0.3,0,0.5h-2.3c0,0.1,0,0.1,0,0.2c0,0.3,0.1,0.5,0.2,0.7c0.1,0.2,0.3,0.2,0.5,0.2c0.2,0,0.4-0.1,0.5-0.2
			S46.4,190.2,46.5,190z M44.9,189.2h1.7c0-0.1,0-0.1,0-0.1c0-0.3-0.1-0.5-0.2-0.6c-0.1-0.1-0.3-0.2-0.5-0.2c-0.2,0-0.4,0.1-0.6,0.2
			S45,188.9,44.9,189.2z"/>
		<path class="st7" d="M48.3,191l-0.5-3.1h0.5l0.3,1.7c0,0.2,0.1,0.5,0.1,0.9c0.1-0.2,0.2-0.5,0.4-0.8l1-1.9h0.6l-1.8,3.1H48.3z"/>
		<path class="st7" d="M52.6,190.6c-0.2,0.2-0.4,0.3-0.5,0.3c-0.2,0.1-0.4,0.1-0.5,0.1c-0.3,0-0.5-0.1-0.7-0.3
			c-0.2-0.2-0.3-0.4-0.3-0.6c0-0.2,0-0.3,0.1-0.5c0.1-0.1,0.2-0.2,0.3-0.3c0.1-0.1,0.3-0.1,0.5-0.2c0.1,0,0.3,0,0.7-0.1
			s0.6,0,0.7-0.1c0-0.1,0.1-0.3,0.1-0.4c0-0.1,0-0.2-0.1-0.3c-0.1-0.1-0.3-0.1-0.5-0.1c-0.2,0-0.4,0.1-0.5,0.1
			c-0.1,0.1-0.2,0.2-0.3,0.4l-0.5,0c0.1-0.3,0.3-0.5,0.5-0.7s0.5-0.2,0.9-0.2c0.4,0,0.7,0.1,0.9,0.3c0.2,0.1,0.3,0.3,0.3,0.5
			c0,0.2,0,0.4-0.1,0.6l-0.2,0.8c-0.1,0.2-0.1,0.4-0.1,0.6c0,0.1,0,0.2,0.1,0.4h-0.5C52.7,190.9,52.6,190.8,52.6,190.6z M52.8,189.4
			c-0.1,0-0.2,0.1-0.2,0.1s-0.2,0-0.4,0c-0.3,0-0.5,0.1-0.7,0.1c-0.1,0-0.2,0.1-0.3,0.2s-0.1,0.2-0.1,0.3c0,0.1,0.1,0.3,0.2,0.4
			s0.2,0.1,0.4,0.1c0.2,0,0.3,0,0.5-0.1c0.2-0.1,0.3-0.2,0.4-0.4S52.8,189.8,52.8,189.4z"/>
		<path class="st7" d="M55.1,190.6L55,191c-0.1,0-0.2,0-0.4,0c-0.2,0-0.4-0.1-0.5-0.2c-0.1-0.1-0.1-0.2-0.1-0.3c0-0.1,0-0.2,0.1-0.5
			l0.4-1.8H54l0.1-0.4h0.4l0.2-0.8l0.6-0.4l-0.2,1.1h0.5l-0.1,0.4H55l-0.4,1.7c0,0.2-0.1,0.3-0.1,0.4c0,0.1,0,0.1,0.1,0.1
			s0.1,0.1,0.2,0.1C54.9,190.6,55,190.6,55.1,190.6z"/>
		<path class="st7" d="M55.6,189.8c0-0.6,0.2-1.1,0.5-1.5c0.3-0.3,0.7-0.5,1.2-0.5c0.4,0,0.7,0.1,0.9,0.4s0.3,0.6,0.3,0.9
			c0,0.4-0.1,0.7-0.2,1c-0.1,0.3-0.4,0.5-0.6,0.7s-0.5,0.2-0.8,0.2c-0.2,0-0.5-0.1-0.7-0.2s-0.3-0.2-0.5-0.4S55.6,190.1,55.6,189.8z
			 M56.1,189.8c0,0.3,0.1,0.5,0.2,0.7c0.1,0.2,0.3,0.2,0.5,0.2c0.1,0,0.2,0,0.3-0.1c0.1,0,0.2-0.1,0.3-0.2s0.2-0.2,0.2-0.3
			c0.1-0.1,0.1-0.2,0.2-0.4c0.1-0.2,0.1-0.4,0.1-0.6c0-0.3-0.1-0.5-0.2-0.7c-0.1-0.2-0.3-0.2-0.5-0.2c-0.2,0-0.3,0-0.5,0.1
			c-0.1,0.1-0.3,0.2-0.4,0.3s-0.2,0.3-0.2,0.5C56.2,189.4,56.1,189.6,56.1,189.8z"/>
		<path class="st7" d="M58.9,191l0.7-3.1H60l-0.1,0.6c0.2-0.2,0.3-0.4,0.5-0.5s0.3-0.2,0.5-0.2c0.1,0,0.2,0,0.4,0.1l-0.2,0.5
			c-0.1-0.1-0.2-0.1-0.3-0.1c-0.2,0-0.4,0.1-0.6,0.3s-0.3,0.6-0.5,1.1l-0.3,1.2H58.9z"/>
	</g>
	<g class="st6">
		<path class="st7" d="M38.9,225.3l0.9-4.3h1.8c0.4,0,0.6,0,0.8,0.1s0.3,0.2,0.4,0.3s0.2,0.4,0.2,0.6c0,0.3-0.1,0.6-0.3,0.9
			s-0.6,0.4-1.1,0.4c0.2,0.1,0.3,0.2,0.4,0.3c0.2,0.3,0.3,0.5,0.4,0.8l0.3,0.8h-0.6l-0.3-0.8c-0.1-0.3-0.2-0.5-0.4-0.8
			c-0.1-0.1-0.2-0.2-0.3-0.3s-0.3-0.1-0.5-0.1h-0.7l-0.4,1.9H38.9z M40,223h0.8c0.4,0,0.6,0,0.7,0c0.2,0,0.4-0.1,0.5-0.1
			s0.2-0.2,0.3-0.3s0.1-0.3,0.1-0.4c0-0.1,0-0.2-0.1-0.3s-0.1-0.2-0.2-0.2s-0.2,0-0.5,0h-1.4L40,223z"/>
		<path class="st7" d="M45.5,224.3l0.5,0.1c-0.1,0.3-0.2,0.5-0.5,0.7s-0.6,0.3-1,0.3c-0.2,0-0.4-0.1-0.6-0.2
			c-0.2-0.1-0.3-0.3-0.4-0.5s-0.2-0.4-0.2-0.7c0-0.3,0.1-0.7,0.2-1c0.2-0.3,0.4-0.6,0.6-0.7c0.2-0.2,0.5-0.2,0.8-0.2
			c0.4,0,0.7,0.1,0.9,0.3s0.3,0.5,0.3,0.9c0,0.2,0,0.3,0,0.5h-2.3c0,0.1,0,0.1,0,0.2c0,0.3,0.1,0.5,0.2,0.7c0.1,0.2,0.3,0.2,0.5,0.2
			c0.2,0,0.4-0.1,0.5-0.2S45.4,224.5,45.5,224.3z M43.9,223.5h1.7c0-0.1,0-0.1,0-0.1c0-0.3-0.1-0.5-0.2-0.6
			c-0.1-0.1-0.3-0.2-0.5-0.2c-0.2,0-0.4,0.1-0.6,0.2S44,223.2,43.9,223.5z"/>
		<path class="st7" d="M46.6,224.3l0.5,0c0,0.2,0,0.3,0.1,0.4s0.1,0.2,0.3,0.3s0.3,0.1,0.4,0.1c0.2,0,0.4,0,0.5-0.1s0.2-0.2,0.2-0.3
			c0-0.1,0-0.2-0.1-0.3c-0.1-0.1-0.2-0.2-0.5-0.3c-0.3-0.1-0.5-0.2-0.5-0.3c-0.1-0.1-0.2-0.2-0.3-0.3c-0.1-0.1-0.1-0.2-0.1-0.4
			c0-0.2,0.1-0.5,0.3-0.6s0.5-0.3,0.8-0.3c0.4,0,0.7,0.1,0.9,0.3s0.3,0.4,0.3,0.7l-0.5,0c0-0.2-0.1-0.3-0.2-0.4s-0.3-0.2-0.5-0.2
			c-0.2,0-0.3,0-0.4,0.1s-0.2,0.2-0.2,0.3s0,0.2,0.1,0.3c0.1,0.1,0.2,0.1,0.5,0.2c0.4,0.2,0.7,0.3,0.8,0.4c0.2,0.2,0.3,0.4,0.3,0.6
			c0,0.2,0,0.3-0.1,0.5s-0.2,0.3-0.4,0.4c-0.2,0.1-0.4,0.1-0.7,0.1c-0.4,0-0.7-0.1-0.9-0.3S46.6,224.7,46.6,224.3z"/>
		<path class="st7" d="M50.8,224.9l-0.1,0.4c-0.1,0-0.2,0-0.4,0c-0.2,0-0.4-0.1-0.5-0.2c-0.1-0.1-0.1-0.2-0.1-0.3
			c0-0.1,0-0.2,0.1-0.5l0.4-1.8h-0.4l0.1-0.4h0.4l0.2-0.8l0.6-0.4l-0.2,1.1h0.5l-0.1,0.4h-0.5l-0.4,1.7c0,0.2-0.1,0.3-0.1,0.4
			c0,0.1,0,0.1,0.1,0.1s0.1,0,0.2,0C50.6,224.9,50.7,224.9,50.8,224.9z"/>
		<path class="st7" d="M53.3,224.9c-0.2,0.2-0.4,0.3-0.5,0.3c-0.2,0.1-0.4,0.1-0.5,0.1c-0.3,0-0.5-0.1-0.7-0.3
			c-0.2-0.2-0.3-0.4-0.3-0.6c0-0.2,0-0.3,0.1-0.5s0.2-0.2,0.3-0.3s0.3-0.1,0.5-0.2c0.1,0,0.3,0,0.7-0.1s0.6,0,0.7-0.1
			c0-0.1,0.1-0.3,0.1-0.4c0-0.1,0-0.2-0.1-0.3c-0.1-0.1-0.3-0.1-0.5-0.1c-0.2,0-0.4,0-0.5,0.1s-0.2,0.2-0.3,0.4l-0.5,0
			c0.1-0.3,0.3-0.5,0.5-0.7s0.5-0.2,0.9-0.2c0.4,0,0.7,0.1,0.9,0.3c0.2,0.1,0.3,0.3,0.3,0.5c0,0.2,0,0.4-0.1,0.6l-0.2,0.8
			c-0.1,0.2-0.1,0.4-0.1,0.6c0,0.1,0,0.2,0.1,0.4h-0.5C53.3,225.2,53.3,225.1,53.3,224.9z M53.5,223.8c-0.1,0-0.2,0.1-0.2,0.1
			s-0.2,0-0.4,0c-0.3,0-0.5,0.1-0.7,0.1c-0.1,0-0.2,0.1-0.3,0.2s-0.1,0.2-0.1,0.3c0,0.1,0.1,0.3,0.2,0.4s0.2,0.1,0.4,0.1
			c0.2,0,0.3,0,0.5-0.1s0.3-0.2,0.4-0.4S53.4,224.1,53.5,223.8z"/>
		<path class="st7" d="M56.6,224.8c-0.4,0.4-0.8,0.6-1.1,0.6c-0.2,0-0.4-0.1-0.6-0.2c-0.1-0.1-0.2-0.3-0.2-0.5c0-0.1,0-0.4,0.1-0.7
			l0.4-1.8h0.5l-0.4,2c0,0.2-0.1,0.3-0.1,0.4c0,0.1,0,0.2,0.1,0.3s0.2,0.1,0.3,0.1c0.1,0,0.3,0,0.4-0.1s0.3-0.2,0.4-0.3
			s0.2-0.3,0.3-0.4c0-0.1,0.1-0.3,0.1-0.6l0.3-1.3h0.5l-0.7,3.1h-0.5L56.6,224.8z"/>
		<path class="st7" d="M57.9,225.3l0.7-3.1H59l-0.1,0.6c0.2-0.2,0.3-0.4,0.5-0.5s0.3-0.2,0.5-0.2c0.1,0,0.2,0,0.4,0.1l-0.2,0.5
			c-0.1-0.1-0.2-0.1-0.3-0.1c-0.2,0-0.4,0.1-0.6,0.3s-0.3,0.6-0.5,1.1l-0.3,1.2H57.9z"/>
		<path class="st7" d="M62,224.9c-0.2,0.2-0.4,0.3-0.5,0.3c-0.2,0.1-0.4,0.1-0.5,0.1c-0.3,0-0.5-0.1-0.7-0.3
			c-0.2-0.2-0.3-0.4-0.3-0.6c0-0.2,0-0.3,0.1-0.5s0.2-0.2,0.3-0.3s0.3-0.1,0.5-0.2c0.1,0,0.3,0,0.7-0.1s0.6,0,0.7-0.1
			c0-0.1,0.1-0.3,0.1-0.4c0-0.1,0-0.2-0.1-0.3c-0.1-0.1-0.3-0.1-0.5-0.1c-0.2,0-0.4,0-0.5,0.1s-0.2,0.2-0.3,0.4l-0.5,0
			c0.1-0.3,0.3-0.5,0.5-0.7s0.5-0.2,0.9-0.2c0.4,0,0.7,0.1,0.9,0.3c0.2,0.1,0.3,0.3,0.3,0.5c0,0.2,0,0.4-0.1,0.6l-0.2,0.8
			c-0.1,0.2-0.1,0.4-0.1,0.6c0,0.1,0,0.2,0.1,0.4H62C62,225.2,62,225.1,62,224.9z M62.2,223.8c-0.1,0-0.2,0.1-0.2,0.1s-0.2,0-0.4,0
			c-0.3,0-0.5,0.1-0.7,0.1c-0.1,0-0.2,0.1-0.3,0.2s-0.1,0.2-0.1,0.3c0,0.1,0.1,0.3,0.2,0.4s0.2,0.1,0.4,0.1c0.2,0,0.3,0,0.5-0.1
			s0.3-0.2,0.4-0.4S62.1,224.1,62.2,223.8z"/>
		<path class="st7" d="M63.2,225.3l0.7-3.1h0.5l-0.1,0.5c0.2-0.2,0.4-0.4,0.6-0.5s0.4-0.1,0.6-0.1c0.3,0,0.4,0.1,0.6,0.2
			s0.2,0.3,0.2,0.5c0,0.1,0,0.3-0.1,0.5l-0.4,1.9h-0.5l0.4-2c0-0.2,0.1-0.3,0.1-0.4c0-0.1,0-0.2-0.1-0.3s-0.2-0.1-0.3-0.1
			c-0.3,0-0.5,0.1-0.7,0.3s-0.4,0.5-0.5,1l-0.3,1.4H63.2z"/>
		<path class="st7" d="M67.8,224.9l-0.1,0.4c-0.1,0-0.2,0-0.4,0c-0.2,0-0.4-0.1-0.5-0.2c-0.1-0.1-0.1-0.2-0.1-0.3
			c0-0.1,0-0.2,0.1-0.5l0.4-1.8h-0.4l0.1-0.4h0.4l0.2-0.8l0.6-0.4l-0.2,1.1h0.5l-0.1,0.4h-0.5l-0.4,1.7c0,0.2-0.1,0.3-0.1,0.4
			c0,0.1,0,0.1,0.1,0.1s0.1,0,0.2,0C67.6,224.9,67.7,224.9,67.8,224.9z"/>
	</g>
	<g class="st6">
		<path class="st7" d="M39,258.3l0.9-4.3h1.3c0.3,0,0.5,0,0.7,0.1c0.2,0.1,0.4,0.2,0.6,0.3c0.2,0.2,0.3,0.3,0.4,0.6s0.1,0.5,0.1,0.8
			c0,0.3-0.1,0.7-0.2,0.9c-0.1,0.3-0.2,0.5-0.4,0.8c-0.2,0.2-0.3,0.4-0.5,0.5s-0.4,0.2-0.7,0.3c-0.2,0-0.4,0.1-0.7,0.1H39z
			 M39.7,257.8h0.7c0.3,0,0.6,0,0.8-0.1c0.1,0,0.3-0.1,0.4-0.2c0.1-0.1,0.3-0.2,0.4-0.3c0.1-0.2,0.3-0.4,0.4-0.7
			c0.1-0.2,0.1-0.5,0.1-0.8c0-0.3-0.1-0.6-0.2-0.8s-0.3-0.3-0.5-0.4c-0.1,0-0.4-0.1-0.6-0.1h-0.8L39.7,257.8z"/>
		<path class="st7" d="M45.6,257.3l0.5,0.1c-0.1,0.3-0.2,0.5-0.5,0.7s-0.6,0.3-1,0.3c-0.2,0-0.4-0.1-0.6-0.2
			c-0.2-0.1-0.3-0.3-0.4-0.5s-0.2-0.4-0.2-0.7c0-0.3,0.1-0.7,0.2-1c0.2-0.3,0.4-0.6,0.6-0.7c0.2-0.2,0.5-0.2,0.8-0.2
			c0.4,0,0.7,0.1,0.9,0.3s0.3,0.5,0.3,0.9c0,0.2,0,0.3,0,0.5h-2.3c0,0.1,0,0.1,0,0.2c0,0.3,0.1,0.5,0.2,0.7c0.1,0.2,0.3,0.2,0.5,0.2
			c0.2,0,0.4-0.1,0.5-0.2S45.5,257.5,45.6,257.3z M44,256.5h1.7c0-0.1,0-0.1,0-0.1c0-0.3-0.1-0.5-0.2-0.6c-0.1-0.1-0.3-0.2-0.5-0.2
			c-0.2,0-0.4,0.1-0.6,0.2S44.1,256.2,44,256.5z"/>
		<path class="st7" d="M46.7,258.3l0.6-2.7h-0.5l0.1-0.4h0.5l0.1-0.4c0-0.2,0.1-0.4,0.1-0.5s0.1-0.2,0.2-0.2
			c0.1-0.1,0.3-0.1,0.5-0.1c0.1,0,0.3,0,0.6,0.1l-0.1,0.5c-0.2,0-0.3-0.1-0.5-0.1c-0.1,0-0.2,0-0.2,0.1s-0.1,0.2-0.1,0.4l-0.1,0.3
			h0.6l-0.1,0.4h-0.6l-0.6,2.7H46.7z"/>
		<path class="st7" d="M48.3,258.3l0.7-3.1h0.5l-0.7,3.1H48.3z M49,254.6l0.1-0.6h0.5l-0.1,0.6H49z"/>
		<path class="st7" d="M49.6,258.3l0.9-4.3H51l-0.3,1.5c0.2-0.2,0.3-0.3,0.5-0.3s0.3-0.1,0.4-0.1c0.3,0,0.5,0.1,0.7,0.3
			s0.3,0.5,0.3,0.9c0,0.3,0,0.5-0.1,0.8s-0.2,0.4-0.3,0.6c-0.1,0.2-0.2,0.3-0.4,0.4c-0.1,0.1-0.2,0.2-0.4,0.2
			c-0.1,0-0.3,0.1-0.4,0.1c-0.2,0-0.4-0.1-0.5-0.2c-0.2-0.1-0.3-0.3-0.4-0.5l-0.1,0.6H49.6z M50.4,257L50.4,257
			c0,0.4,0.1,0.6,0.2,0.7s0.3,0.2,0.5,0.2c0.2,0,0.4-0.1,0.5-0.2c0.2-0.1,0.3-0.3,0.4-0.6s0.1-0.5,0.1-0.8c0-0.3-0.1-0.5-0.2-0.6
			s-0.3-0.2-0.5-0.2c-0.2,0-0.4,0.1-0.5,0.2c-0.2,0.1-0.3,0.4-0.4,0.7C50.4,256.7,50.4,256.9,50.4,257z"/>
		<path class="st7" d="M52.9,258.3l0.7-3.1h0.5l-0.7,3.1H52.9z M53.7,254.6l0.1-0.6h0.5l-0.1,0.6H53.7z"/>
		<path class="st7" d="M54.2,258.3l0.9-4.3h0.5l-0.9,4.3H54.2z"/>
		<path class="st7" d="M55.6,258.3l0.9-4.3H57l-0.9,4.3H55.6z"/>
		<path class="st7" d="M59,257.9c-0.2,0.2-0.4,0.3-0.5,0.3c-0.2,0.1-0.4,0.1-0.5,0.1c-0.3,0-0.5-0.1-0.7-0.3
			c-0.2-0.2-0.3-0.4-0.3-0.6c0-0.2,0-0.3,0.1-0.5s0.2-0.2,0.3-0.3s0.3-0.1,0.5-0.2c0.1,0,0.3,0,0.7-0.1s0.6,0,0.7-0.1
			c0-0.1,0.1-0.3,0.1-0.4c0-0.1,0-0.2-0.1-0.3c-0.1-0.1-0.3-0.1-0.5-0.1c-0.2,0-0.4,0-0.5,0.1s-0.2,0.2-0.3,0.4l-0.5,0
			c0.1-0.3,0.3-0.5,0.5-0.7s0.5-0.2,0.9-0.2c0.4,0,0.7,0.1,0.9,0.3c0.2,0.1,0.3,0.3,0.3,0.5c0,0.2,0,0.4-0.1,0.6l-0.2,0.8
			c-0.1,0.2-0.1,0.4-0.1,0.6c0,0.1,0,0.2,0.1,0.4h-0.5C59.1,258.2,59.1,258.1,59,257.9z M59.2,256.7c-0.1,0-0.2,0.1-0.2,0.1
			s-0.2,0-0.4,0c-0.3,0-0.5,0.1-0.7,0.1c-0.1,0-0.2,0.1-0.3,0.2s-0.1,0.2-0.1,0.3c0,0.1,0.1,0.3,0.2,0.4s0.2,0.1,0.4,0.1
			c0.2,0,0.3,0,0.5-0.1s0.3-0.2,0.4-0.4S59.2,257,59.2,256.7z"/>
		<path class="st7" d="M61.5,257.9l-0.1,0.4c-0.1,0-0.2,0-0.4,0c-0.2,0-0.4-0.1-0.5-0.2c-0.1-0.1-0.1-0.2-0.1-0.3
			c0-0.1,0-0.2,0.1-0.5l0.4-1.8h-0.4l0.1-0.4H61l0.2-0.8l0.6-0.4l-0.2,1.1H62l-0.1,0.4h-0.5l-0.4,1.7c0,0.2-0.1,0.3-0.1,0.4
			c0,0.1,0,0.1,0.1,0.1s0.1,0,0.2,0C61.3,257.9,61.4,257.9,61.5,257.9z"/>
		<path class="st7" d="M62,257.1c0-0.6,0.2-1.1,0.5-1.5c0.3-0.3,0.7-0.5,1.2-0.5c0.4,0,0.7,0.1,0.9,0.4s0.3,0.6,0.3,0.9
			c0,0.4-0.1,0.7-0.2,1c-0.1,0.3-0.4,0.5-0.6,0.7s-0.5,0.2-0.8,0.2c-0.2,0-0.5-0.1-0.7-0.2s-0.3-0.2-0.5-0.4S62,257.4,62,257.1z
			 M62.6,257.1c0,0.3,0.1,0.5,0.2,0.7s0.3,0.2,0.5,0.2c0.1,0,0.2,0,0.3-0.1s0.2-0.1,0.3-0.2s0.2-0.2,0.2-0.3
			c0.1-0.1,0.1-0.2,0.2-0.4c0.1-0.2,0.1-0.4,0.1-0.6c0-0.3-0.1-0.5-0.2-0.7c-0.1-0.2-0.3-0.2-0.5-0.2c-0.2,0-0.3,0-0.5,0.1
			c-0.1,0.1-0.3,0.2-0.4,0.3c-0.1,0.2-0.2,0.3-0.2,0.5C62.6,256.7,62.6,256.9,62.6,257.1z"/>
		<path class="st7" d="M65.3,258.3l0.7-3.1h0.5l-0.1,0.6c0.2-0.2,0.3-0.4,0.5-0.5s0.3-0.2,0.5-0.2c0.1,0,0.2,0,0.4,0.1l-0.2,0.5
			c-0.1-0.1-0.2-0.1-0.3-0.1c-0.2,0-0.4,0.1-0.6,0.3s-0.3,0.6-0.5,1.1l-0.3,1.2H65.3z"/>
	</g>
	<g class="st6">
		<path class="st7" d="M39,291.4l0.9-4.3H43l-0.1,0.5h-2.5l-0.3,1.3h2.5l-0.1,0.5H40l-0.3,1.5h2.7l-0.1,0.5H39z"/>
		<path class="st7" d="M42.9,291.4l0.7-3.1h0.5l-0.1,0.5c0.2-0.2,0.4-0.4,0.5-0.5s0.3-0.1,0.5-0.1c0.2,0,0.4,0.1,0.5,0.2
			c0.1,0.1,0.2,0.2,0.3,0.4c0.2-0.2,0.3-0.3,0.5-0.4c0.2-0.1,0.4-0.1,0.6-0.1c0.3,0,0.5,0.1,0.6,0.2s0.2,0.3,0.2,0.5
			c0,0.1,0,0.3-0.1,0.5l-0.4,2h-0.5l0.4-2.1c0-0.2,0.1-0.3,0.1-0.4c0-0.1,0-0.2-0.1-0.2s-0.2-0.1-0.3-0.1c-0.2,0-0.3,0-0.5,0.1
			s-0.3,0.2-0.4,0.4c-0.1,0.2-0.2,0.4-0.2,0.7l-0.3,1.5h-0.5l0.4-2.1c0-0.1,0-0.2,0-0.3c0-0.1,0-0.2-0.1-0.2s-0.1-0.1-0.2-0.1
			c-0.2,0-0.3,0-0.5,0.1s-0.3,0.2-0.4,0.4s-0.2,0.4-0.3,0.7l-0.3,1.5H42.9z"/>
		<path class="st7" d="M50.2,290.3l0.5,0.1c-0.1,0.3-0.2,0.5-0.5,0.7s-0.6,0.3-1,0.3c-0.2,0-0.4-0.1-0.6-0.2
			c-0.2-0.1-0.3-0.3-0.4-0.5s-0.2-0.4-0.2-0.7c0-0.3,0.1-0.7,0.2-1c0.2-0.3,0.4-0.6,0.6-0.7c0.2-0.2,0.5-0.2,0.8-0.2
			c0.4,0,0.7,0.1,0.9,0.3s0.3,0.5,0.3,0.9c0,0.2,0,0.3,0,0.5h-2.3c0,0.1,0,0.1,0,0.2c0,0.3,0.1,0.5,0.2,0.7c0.1,0.2,0.3,0.2,0.5,0.2
			c0.2,0,0.4-0.1,0.5-0.2S50.1,290.6,50.2,290.3z M48.7,289.6h1.7c0-0.1,0-0.1,0-0.1c0-0.3-0.1-0.5-0.2-0.6
			c-0.1-0.1-0.3-0.2-0.5-0.2c-0.2,0-0.4,0.1-0.6,0.2S48.8,289.3,48.7,289.6z"/>
		<path class="st7" d="M51.3,291.4l0.7-3.1h0.5l-0.1,0.6c0.2-0.2,0.3-0.4,0.5-0.5s0.3-0.2,0.5-0.2c0.1,0,0.2,0,0.4,0.1l-0.2,0.5
			c-0.1-0.1-0.2-0.1-0.3-0.1c-0.2,0-0.4,0.1-0.6,0.3s-0.3,0.6-0.5,1.1l-0.3,1.2H51.3z"/>
		<path class="st7" d="M53.2,291.7l0.5,0c0,0.1,0,0.2,0,0.3s0.1,0.1,0.2,0.1c0.1,0,0.2,0.1,0.4,0.1c0.3,0,0.6-0.1,0.7-0.2
			c0.1-0.1,0.2-0.4,0.3-0.7l0.1-0.3c-0.3,0.3-0.6,0.4-0.9,0.4c-0.3,0-0.6-0.1-0.8-0.3c-0.2-0.2-0.3-0.6-0.3-1c0-0.3,0.1-0.7,0.3-1
			s0.4-0.5,0.6-0.7c0.2-0.2,0.5-0.2,0.7-0.2c0.4,0,0.7,0.2,0.9,0.6l0.1-0.5h0.5l-0.6,3c-0.1,0.3-0.2,0.6-0.3,0.8
			c-0.1,0.2-0.3,0.3-0.5,0.4s-0.4,0.2-0.7,0.2c-0.2,0-0.5,0-0.6-0.1s-0.3-0.2-0.4-0.3s-0.1-0.3-0.1-0.4
			C53.2,291.8,53.2,291.7,53.2,291.7z M53.9,290c0,0.2,0,0.4,0.1,0.5c0.1,0.2,0.1,0.3,0.3,0.3c0.1,0.1,0.2,0.1,0.4,0.1
			c0.2,0,0.3-0.1,0.5-0.2c0.2-0.1,0.3-0.3,0.4-0.6s0.2-0.5,0.2-0.7c0-0.3-0.1-0.5-0.2-0.6c-0.1-0.2-0.3-0.2-0.5-0.2
			c-0.1,0-0.3,0-0.4,0.1c-0.1,0.1-0.2,0.2-0.3,0.3c-0.1,0.1-0.2,0.3-0.2,0.5S53.9,289.9,53.9,290z"/>
		<path class="st7" d="M58.9,290.3l0.5,0.1c-0.1,0.3-0.2,0.5-0.5,0.7s-0.6,0.3-1,0.3c-0.2,0-0.4-0.1-0.6-0.2
			c-0.2-0.1-0.3-0.3-0.4-0.5s-0.2-0.4-0.2-0.7c0-0.3,0.1-0.7,0.2-1c0.2-0.3,0.4-0.6,0.6-0.7c0.2-0.2,0.5-0.2,0.8-0.2
			c0.4,0,0.7,0.1,0.9,0.3s0.3,0.5,0.3,0.9c0,0.2,0,0.3,0,0.5h-2.3c0,0.1,0,0.1,0,0.2c0,0.3,0.1,0.5,0.2,0.7c0.1,0.2,0.3,0.2,0.5,0.2
			c0.2,0,0.4-0.1,0.5-0.2S58.8,290.6,58.9,290.3z M57.4,289.6h1.7c0-0.1,0-0.1,0-0.1c0-0.3-0.1-0.5-0.2-0.6
			c-0.1-0.1-0.3-0.2-0.5-0.2c-0.2,0-0.4,0.1-0.6,0.2S57.4,289.3,57.4,289.6z"/>
		<path class="st7" d="M59.9,291.4l0.7-3.1h0.5l-0.1,0.5c0.2-0.2,0.4-0.4,0.6-0.5s0.4-0.1,0.6-0.1c0.3,0,0.4,0.1,0.6,0.2
			s0.2,0.3,0.2,0.5c0,0.1,0,0.3-0.1,0.5l-0.4,1.9h-0.5l0.4-2c0-0.2,0.1-0.3,0.1-0.4c0-0.1,0-0.2-0.1-0.3s-0.2-0.1-0.3-0.1
			c-0.3,0-0.5,0.1-0.7,0.3s-0.4,0.5-0.5,1l-0.3,1.4H59.9z"/>
		<path class="st7" d="M65.4,290.3l0.5,0.1c-0.1,0.4-0.3,0.7-0.6,0.9c-0.2,0.2-0.5,0.3-0.8,0.3c-0.3,0-0.6-0.1-0.8-0.3
			s-0.3-0.5-0.3-0.9c0-0.3,0.1-0.7,0.2-1s0.3-0.6,0.6-0.7c0.3-0.2,0.5-0.3,0.9-0.3c0.3,0,0.6,0.1,0.8,0.3s0.3,0.4,0.3,0.7l-0.5,0
			c0-0.2-0.1-0.4-0.2-0.5s-0.3-0.2-0.4-0.2c-0.2,0-0.4,0.1-0.6,0.2s-0.3,0.3-0.4,0.6c-0.1,0.3-0.1,0.5-0.1,0.8
			c0,0.3,0.1,0.5,0.2,0.6s0.3,0.2,0.4,0.2s0.3-0.1,0.5-0.2S65.3,290.5,65.4,290.3z"/>
		<path class="st7" d="M66.1,292.6l0-0.5c0.1,0,0.2,0,0.3,0c0.1,0,0.2,0,0.3-0.1c0.1-0.1,0.2-0.2,0.3-0.4l0.2-0.3l-0.5-3.1h0.5
			l0.2,1.6c0,0.3,0.1,0.6,0.1,0.9l1.4-2.5h0.6l-2,3.5c-0.2,0.3-0.4,0.6-0.5,0.7s-0.3,0.2-0.5,0.2C66.3,292.7,66.2,292.6,66.1,292.6z
			"/>
		<path class="st7" d="M73.2,290.3l0.5,0.1c-0.1,0.3-0.2,0.5-0.5,0.7s-0.6,0.3-1,0.3c-0.2,0-0.4-0.1-0.6-0.2
			c-0.2-0.1-0.3-0.3-0.4-0.5s-0.2-0.4-0.2-0.7c0-0.3,0.1-0.7,0.2-1c0.2-0.3,0.4-0.6,0.6-0.7c0.2-0.2,0.5-0.2,0.8-0.2
			c0.4,0,0.7,0.1,0.9,0.3s0.3,0.5,0.3,0.9c0,0.2,0,0.3,0,0.5h-2.3c0,0.1,0,0.1,0,0.2c0,0.3,0.1,0.5,0.2,0.7c0.1,0.2,0.3,0.2,0.5,0.2
			c0.2,0,0.4-0.1,0.5-0.2S73.1,290.6,73.2,290.3z M71.7,289.6h1.7c0-0.1,0-0.1,0-0.1c0-0.3-0.1-0.5-0.2-0.6
			c-0.1-0.1-0.3-0.2-0.5-0.2c-0.2,0-0.4,0.1-0.6,0.2S71.8,289.3,71.7,289.6z"/>
		<path class="st7" d="M74.1,291.4l1.4-1.6l-0.8-1.5h0.6l0.3,0.6c0.1,0.2,0.2,0.4,0.3,0.6l0.9-1.1h0.6l-1.3,1.6l0.8,1.5h-0.6
			l-0.3-0.6c-0.1-0.1-0.1-0.3-0.2-0.5l-0.9,1.1H74.1z"/>
		<path class="st7" d="M77.3,291.4l0.7-3.1h0.5l-0.7,3.1H77.3z M78,287.7l0.1-0.6h0.5l-0.1,0.6H78z"/>
		<path class="st7" d="M79.9,291l-0.1,0.4c-0.1,0-0.2,0-0.4,0c-0.2,0-0.4-0.1-0.5-0.2c-0.1-0.1-0.1-0.2-0.1-0.3c0-0.1,0-0.2,0.1-0.5
			l0.4-1.8h-0.4l0.1-0.4h0.4l0.2-0.8l0.6-0.4l-0.2,1.1h0.5l-0.1,0.4h-0.5l-0.4,1.7c0,0.2-0.1,0.3-0.1,0.4c0,0.1,0,0.1,0.1,0.1
			s0.1,0,0.2,0C79.7,291,79.8,291,79.9,291z"/>
	</g>
</g>
</svg>
