<?xml version="1.0" encoding="UTF-8"?><svg id="Lager_1" xmlns="http://www.w3.org/2000/svg" viewBox="0 0 1204.94 597.23"><defs><style>.cls-1{fill:#6cb7e6;}.cls-1,.cls-2,.cls-3,.cls-4,.cls-5,.cls-6,.cls-7{stroke:#000;}.cls-1,.cls-2,.cls-3,.cls-5,.cls-6,.cls-7{stroke-miterlimit:10;}.cls-8{stroke:#f1f1f1;}.cls-8,.cls-2{fill:none;}.cls-8,.cls-4,.cls-9{stroke-linecap:round;stroke-linejoin:round;}.cls-10,.cls-11,.cls-9,.cls-7{fill:#fff;}.cls-11{fill-rule:evenodd;}.cls-3{fill:#ccc;}.cls-3,.cls-5{stroke-width:.5px;}.cls-12{font-family:Arial-BoldMT, Arial;font-size:12px;font-weight:700;}.cls-9{stroke:#fff;}.cls-5{fill:#b3b3b3;}.cls-6{fill:#5bb250;}.cls-13{fill:#345a70;}.cls-14{fill:#2e5e26;}</style></defs><text class="cls-12" transform="translate(217.25 472.77)"><tspan x="0" y="0">Huvudingång</tspan></text><path class="cls-6" d="M304.5,537.49v29.14l64,.24v-17.12l42,.29v-64.2l-51,.24v-21.88h35v-89.21h25.41v-35.31l-42.41-.03v-24.41h-20.62l-.38-54.7h53.39l-1.39-101.83-13,3.37-3-136.34h-21.64L386.5,.5h-88.43l14.43,25.25h-20l1,192.72s31.58,34.5-.71,71.96l-.29,29.03s-66,10.1-74,78.27l-75,.84v6.73H54.5v22.72H.5v142.17H54.11v25.31h97.39l-.36-26.32,59.36,.84v-136.54l12-.4v7.94l16-.36v13.68l25-.22v-13.99l41-.32v88.75"/><line class="cls-2" x1="356.5" y1="260.13" x2="356.5" y2="247.08"/><line class="cls-2" x1="395.5" y1="162.08" x2="356.5" y2="173.02"/><line class="cls-2" x1="356.5" y1="234.46" x2="356.5" y2="173.02"/><line class="cls-2" x1="292.5" y1="96.44" x2="329.5" y2="96.44"/><line class="cls-2" x1="357" y1="96.44" x2="394" y2="96.44"/><line class="cls-2" x1="292.5" y1="319.46" x2="304.5" y2="323.67"/><line class="cls-2" x1="356.5" y1="339.66" x2="377.5" y2="339.66"/><line class="cls-2" x1="394.5" y1="375" x2="359.5" y2="375"/><line class="cls-2" x1="359.5" y1="374.58" x2="359.5" y2="416.66"/><line class="cls-2" x1="359.5" y1="427.6" x2="359.5" y2="453.27"/><line class="cls-2" x1="304.5" y1="439.81" x2="326.5" y2="439.81"/><line class="cls-2" x1="359.5" y1="439.81" x2="336.5" y2="439.81"/><line class="cls-2" x1="222.5" y1="433.07" x2="222.5" y2="417.08"/><line class="cls-2" x1="222.5" y1="433.07" x2="150.5" y2="433.07"/><line class="cls-2" x1="150.5" y1="450.33" x2="149.5" y2="559.31"/><line class="cls-2" x1="55.5" y1="559.31" x2="55.5" y2="450.33"/><path class="cls-2" d="M55.5,551.74h34s13,18.51,26.5,0h34"/><line class="cls-2" x1="55.5" y1="450.75" x2="90.5" y2="450.75"/><line class="cls-2" x1="115" y1="450.75" x2="150" y2="450.75"/><line class="cls-2" x1="150.5" y1="469.26" x2="176.5" y2="469.26"/><rect class="cls-5" x="386.5" y="344.71" width="2" height="26.09"/><rect class="cls-3" x="384.5" y="344.71" width="2" height="26.09"/><rect class="cls-5" x="378.5" y="344.71" width="2" height="26.09"/><rect class="cls-3" x="376.5" y="344.71" width="2" height="26.09"/><rect class="cls-5" x="374.5" y="344.71" width="2" height="26.09"/><rect class="cls-3" x="372.5" y="344.71" width="2" height="26.09"/><rect class="cls-5" x="382.5" y="344.71" width="2" height="26.09"/><rect class="cls-3" x="380.5" y="344.71" width="2" height="26.09"/><rect class="cls-5" x="370.5" y="344.71" width="2" height="26.09"/><rect class="cls-3" x="368.5" y="344.71" width="2" height="26.09"/><rect class="cls-5" x="362.5" y="344.71" width="2" height="26.09"/><rect class="cls-3" x="360.5" y="344.71" width="2" height="26.09"/><rect class="cls-5" x="358.5" y="344.71" width="2" height="26.09"/><rect class="cls-3" x="356.5" y="344.71" width="2" height="26.09"/><rect class="cls-5" x="366.5" y="344.71" width="2" height="26.09"/><rect class="cls-3" x="364.5" y="344.71" width="2" height="26.09"/><rect class="cls-5" x="396.5" y="344.71" width="2" height="26.09"/><rect class="cls-3" x="394.5" y="344.71" width="2" height="26.09"/><rect class="cls-5" x="388.5" y="344.71" width="2" height="26.09"/><rect class="cls-5" x="392.5" y="344.71" width="2" height="26.09"/><rect class="cls-3" x="390.5" y="344.71" width="2" height="26.09"/><g><rect class="cls-5" x="346.12" y="212.12" width="9.5" height="1.68"/><rect class="cls-3" x="346.12" y="210.44" width="9.5" height="1.68"/><rect class="cls-5" x="346.12" y="205.39" width="9.5" height="1.68"/><rect class="cls-5" x="346.12" y="208.76" width="9.5" height="1.68"/><rect class="cls-3" x="346.12" y="207.08" width="9.5" height="1.68"/><rect class="cls-5" x="346.12" y="203.71" width="9.5" height="1.68"/><rect class="cls-3" x="346.12" y="202.03" width="9.5" height="1.68"/><rect class="cls-5" x="346.12" y="196.98" width="9.5" height="1.68"/><rect class="cls-5" x="346.12" y="200.34" width="9.5" height="1.68"/><rect class="cls-3" x="346.12" y="198.66" width="9.5" height="1.68"/><rect class="cls-5" x="346.12" y="195.29" width="9.5" height="1.68"/><rect class="cls-3" x="346.12" y="193.61" width="9.5" height="1.68"/><rect class="cls-5" x="346.12" y="188.56" width="9.5" height="1.68"/><rect class="cls-5" x="346.12" y="191.93" width="9.5" height="1.68"/><rect class="cls-3" x="346.12" y="190.24" width="9.5" height="1.68"/><rect class="cls-5" x="346.12" y="186.88" width="9.5" height="1.68"/><rect class="cls-3" x="346.12" y="185.19" width="9.5" height="1.68"/><rect class="cls-5" x="346.12" y="180.14" width="9.5" height="1.68"/><rect class="cls-5" x="346.12" y="183.51" width="9.5" height="1.68"/><rect class="cls-3" x="346.12" y="181.83" width="9.5" height="1.68"/></g><g><rect class="cls-5" x="86.5" y="406.99" width="31" height="1.68"/><rect class="cls-3" x="86.5" y="405.3" width="31" height="1.68"/><rect class="cls-5" x="86.5" y="400.25" width="31" height="1.68"/><rect class="cls-3" x="86.5" y="398.57" width="31" height="1.68"/><rect class="cls-5" x="86.5" y="396.89" width="31" height="1.68"/><rect class="cls-3" x="86.5" y="395.2" width="31" height="1.68"/><rect class="cls-5" x="86.5" y="403.62" width="31" height="1.68"/><rect class="cls-3" x="86.5" y="401.94" width="31" height="1.68"/><rect class="cls-5" x="86.5" y="393.52" width="31" height="1.68"/><rect class="cls-3" x="86.5" y="391.84" width="31" height="1.68"/><rect class="cls-5" x="86.5" y="390.15" width="31" height="1.68"/><rect class="cls-3" x="86.5" y="388.47" width="31" height="1.68"/></g><rect class="cls-10" x="239" y="452.01" width="24" height="12.62"/><path class="cls-1" d="M767.96,383.74h9.15l-.15,36.79h-24.38l.38,148.95h66v27.26l103-.34v-28.77l66-.84v-141.77h11v6.04l84-.66v136.7l119-.31v-245.38h-40v-25.59h-20.5l-.5-40.38h57.07l-3.07-252.13h-106.91l-.09,72.68h-9V206.98s27,26.02,0,69.99v94.21h-100v-16.15l5.62-.03V219.65l-161.62-.11v61.01h-58l-1,103.18h4Z"/><polygon class="cls-7" points="809.96 381.95 809.96 421.74 821.42 421.74 821.42 539.23 919.13 539.23 919.13 386.59 938.96 386.43 938.96 377.13 809.96 377.13 809.96 381.95"/><line class="cls-2" x1="998.96" y1="425.02" x2="974.46" y2="425.02"/><line class="cls-2" x1="988.46" y1="458.21" x2="974.96" y2="458.21"/><line class="cls-2" x1="918.96" y1="425.02" x2="953.96" y2="425.02"/><line class="cls-2" x1="919.46" y1="458.21" x2="954.46" y2="458.21"/><line class="cls-2" x1="1072.96" y1="371.18" x2="1072.96" y2="391.82"/><line class="cls-2" x1="1082.96" y1="441.17" x2="1113.96" y2="441.17"/><line class="cls-2" x1="1132.46" y1="441.17" x2="1156.46" y2="441.17"/><line class="cls-2" x1="1155.96" y1="405.28" x2="1155.96" y2="441.17"/><line class="cls-2" x1="1163.46" y1="321.38" x2="1127.46" y2="321.38"/><line class="cls-2" x1="1202.46" y1="358.62" x2="1127.46" y2="358.62"/><line class="cls-2" x1="1201.96" y1="377.46" x2="1171.96" y2="397.2"/><line class="cls-2" x1="1078.96" y1="304.78" x2="1107.96" y2="304.78"/><line class="cls-2" x1="1078.96" y1="276.97" x2="1107.96" y2="285.94"/><line class="cls-2" x1="1087.96" y1="75.98" x2="1124.96" y2="75.98"/><line class="cls-2" x1="1195.96" y1="75.98" x2="1160.96" y2="75.98"/><line class="cls-2" x1="1078.96" y1="200.7" x2="1095.96" y2="200.7"/><line class="cls-2" x1="1109.96" y1="200.7" x2="1140.46" y2="200.7"/><line class="cls-2" x1="1140.96" y1="255.43" x2="1139.96" y2="159.43"/><line class="cls-2" x1="1139.46" y1="159.43" x2="1148.46" y2="159.43"/><line class="cls-2" x1="1196.96" y1="159.43" x2="1164.96" y2="159.43"/><line class="cls-2" x1="812.96" y1="280.56" x2="812.96" y2="337.98"/><line class="cls-2" x1="763.96" y1="337.98" x2="779.96" y2="337.98"/><line class="cls-2" x1="813.46" y1="337.98" x2="797.46" y2="337.98"/><line class="cls-2" x1="822.96" y1="280.56" x2="873.96" y2="280.56"/><line class="cls-2" x1="984.96" y1="280.56" x2="896.96" y2="280.56"/><line class="cls-2" x1="841.96" y1="280.56" x2="841.96" y2="303.89"/><line class="cls-2" x1="841.96" y1="377.46" x2="841.96" y2="362.21"/><line class="cls-2" x1="812.96" y1="337.98" x2="860.96" y2="337.98"/><line class="cls-2" x1="841.96" y1="322.73" x2="841.96" y2="352.34"/><line class="cls-2" x1="877.96" y1="337.98" x2="940.96" y2="337.98"/><line class="cls-2" x1="984.96" y1="337.98" x2="957.96" y2="337.98"/><g><rect class="cls-5" x="854.96" y="387.33" width="31" height="1.79"/><rect class="cls-3" x="854.96" y="385.54" width="31" height="1.79"/><rect class="cls-5" x="854.96" y="380.15" width="31" height="1.79"/><rect class="cls-3" x="854.96" y="378.36" width="31" height="1.79"/><rect class="cls-5" x="854.96" y="376.56" width="31" height="1.79"/><rect class="cls-3" x="854.96" y="374.77" width="31" height="1.79"/><rect class="cls-5" x="854.96" y="383.74" width="31" height="1.79"/><rect class="cls-3" x="854.96" y="381.95" width="31" height="1.79"/></g><rect class="cls-5" x="1158.96" y="326.32" width="2" height="27.82"/><rect class="cls-3" x="1156.96" y="326.32" width="2" height="27.82"/><rect class="cls-5" x="1150.96" y="326.32" width="2" height="27.82"/><rect class="cls-3" x="1148.96" y="326.32" width="2" height="27.82"/><rect class="cls-5" x="1146.96" y="326.32" width="2" height="27.82"/><rect class="cls-3" x="1144.96" y="326.32" width="2" height="27.82"/><rect class="cls-5" x="1154.96" y="326.32" width="2" height="27.82"/><rect class="cls-3" x="1152.96" y="326.32" width="2" height="27.82"/><rect class="cls-5" x="1142.96" y="326.32" width="2" height="27.82"/><rect class="cls-3" x="1140.96" y="326.32" width="2" height="27.82"/><rect class="cls-5" x="1134.96" y="326.32" width="2" height="27.82"/><rect class="cls-3" x="1132.96" y="326.32" width="2" height="27.82"/><rect class="cls-5" x="1130.96" y="326.32" width="2" height="27.82"/><rect class="cls-3" x="1128.96" y="326.32" width="2" height="27.82"/><rect class="cls-5" x="1138.96" y="326.32" width="2" height="27.82"/><rect class="cls-3" x="1136.96" y="326.32" width="2" height="27.82"/><rect class="cls-5" x="1168.96" y="326.32" width="2" height="27.82"/><rect class="cls-3" x="1166.96" y="326.32" width="2" height="27.82"/><rect class="cls-5" x="1160.96" y="326.32" width="2" height="27.82"/><rect class="cls-5" x="1164.96" y="326.32" width="2" height="27.82"/><rect class="cls-3" x="1162.96" y="326.32" width="2" height="27.82"/><g><rect class="cls-5" x="1129.96" y="212.36" width="9.5" height="1.79"/><rect class="cls-3" x="1129.96" y="210.57" width="9.5" height="1.79"/><rect class="cls-5" x="1129.96" y="205.19" width="9.5" height="1.79"/><rect class="cls-5" x="1129.96" y="208.78" width="9.5" height="1.79"/><rect class="cls-3" x="1129.96" y="206.98" width="9.5" height="1.79"/><rect class="cls-5" x="1129.96" y="203.39" width="9.5" height="1.79"/><rect class="cls-3" x="1129.96" y="201.6" width="9.5" height="1.79"/><rect class="cls-5" x="1129.96" y="196.21" width="9.5" height="1.79"/><rect class="cls-5" x="1129.96" y="199.8" width="9.5" height="1.79"/><rect class="cls-3" x="1129.96" y="198.01" width="9.5" height="1.79"/><rect class="cls-5" x="1129.96" y="194.42" width="9.5" height="1.79"/><rect class="cls-3" x="1129.96" y="192.63" width="9.5" height="1.79"/><rect class="cls-5" x="1129.96" y="187.24" width="9.5" height="1.79"/><rect class="cls-5" x="1129.96" y="190.83" width="9.5" height="1.79"/><rect class="cls-3" x="1129.96" y="189.04" width="9.5" height="1.79"/><rect class="cls-5" x="1129.96" y="185.45" width="9.5" height="1.79"/><rect class="cls-3" x="1129.96" y="183.65" width="9.5" height="1.79"/><rect class="cls-5" x="1129.96" y="178.27" width="9.5" height="1.79"/><rect class="cls-5" x="1129.96" y="181.86" width="9.5" height="1.79"/><rect class="cls-3" x="1129.96" y="180.06" width="9.5" height="1.79"/></g><rect class="cls-5" x="943.96" y="376.56" width="31" height="1.79"/><rect class="cls-3" x="943.96" y="374.77" width="31" height="1.79"/><rect class="cls-5" x="943.96" y="369.39" width="31" height="1.79"/><rect class="cls-5" x="943.96" y="372.97" width="31" height="1.79"/><rect class="cls-3" x="943.96" y="371.18" width="31" height="1.79"/><rect class="cls-3" x="943.96" y="367.59" width="31" height="1.79"/><line class="cls-2" x1="821.42" y1="539.23" x2="821.42" y2="552.44"/><line class="cls-2" x1="919.13" y1="539.23" x2="919.13" y2="552.44"/><path class="cls-14" d="M206.63,474.43v89.5c0,1.52-1.23,2.75-2.75,2.75h-51.5c-1.52,0-2.75,1.23-2.75,2.75v21.5c0,1.52-1.23,2.75-2.75,2.75H58.38c-1.52,0-2.75-1.23-2.75-2.75v-20.5c0-1.52-1.23-2.75-2.75-2.75H6.38c-1.52,0-2.75-1.23-2.75-2.75v-130.5c0-1.52,1.23-2.75,2.75-2.75H49.88c1.52,0,2.75,1.23,2.75,2.75v123.5c0,1.52,1.23,2.75,2.75,2.75h0c1.52,0,2.75-1.23,2.75-2.75v-1c0-1.52,1.23-2.75,2.75-2.75h26.89c.78,0,1.53,.33,2.05,.92,1.06,1.21,3.5,3.43,8.37,5.39,.33,.13,.68,.2,1.03,.2h7.92c.32,0,.65-.05,.96-.16,3.9-1.43,6.24-3.9,7.32-5.3,.51-.67,1.31-1.04,2.15-1.04h26.81c1.52,0,2.75,1.23,2.75,2.75v1c0,1.52,1.23,2.75,2.75,2.75h1c1.52,0,2.75-1.23,2.75-2.75v-83.5c0-1.52,1.23-2.75,2.75-2.75h47.5c1.52,0,2.75,1.23,2.75,2.75Z"/><path class="cls-13" d="M1192.63,83.18v69c0,1.93-1.57,3.5-3.5,3.5h-48c-1.93,0-3.5,1.57-3.5,3.5v14c0,1.93-1.57,3.5-3.5,3.5h-3c-1.93,0-3.5,1.57-3.5,3.5v13c0,1.93-1.57,3.5-3.5,3.5h-38c-1.93,0-3.5-1.57-3.5-3.5V83.18c0-1.93,1.57-3.5,3.5-3.5h38c1.93,0,3.5-1.57,3.5-3.5h0c0-1.93-1.57-3.5-3.5-3.5h-29c-1.93,0-3.5-1.57-3.5-3.5V10.18c0-1.93,1.57-3.5,3.5-3.5h93c1.93,0,3.5,1.57,3.5,3.5v59c0,1.93-1.57,3.5-3.5,3.5h-26c-1.93,0-3.5,1.57-3.5,3.5h0c0,1.93,1.57,3.5,3.5,3.5h27c1.93,0,3.5,1.57,3.5,3.5Z"/><path class="cls-13" d="M986.13,463.42v98.04c0,1.29-1.09,2.33-2.38,2.23-.01,0-.03,0-.04,0-.05,0-.1,0-.15,0h-60.64c-.79,0-1.51,.42-1.92,1.09-1.07,1.77-1.87,2.75-1.87,3.91v24.26c0,1.24-1,2.24-2.24,2.24h-93.53c-1.24,0-2.24-1-2.24-2.24v-24.53c0-1.24-1-2.24-2.24-2.24h-60.53c-1.24,0-2.24-1-2.24-2.24v-130.26h-.05v-7.76c0-1.24,1-2.24,2.24-2.24h18.58c1.24,0,2.24-1,2.24-2.24v-23.03c0-1.24,1-2.24,2.24-2.24h24.53c1.24,0,2.24,1,2.24,2.24v23.03c0,1.24,1,2.24,2.24,2.24h5.58c1.24,0,2.24,1,2.24,2.24v7.76h-.05v120.26c0,1.24,1,2.24,2.24,2.24h1.53c1.24,0,2.24-1,2.24-2.24v-7.53c0-1.24,1-2.24,2.24-2.24h87.53c1.24,0,2.24,1,2.24,2.24v4.84c.44,.75,.79,1.35,1.23,2.1,1.15,.6,2.33,.31,3.04-.41,.45-.45,.73-1.08,.73-1.77v-87.76c0-1.24,1-2.24,2.24-2.24h60.53c1.24,0,2.24,1,2.24,2.24Z"/><path class="cls-13" d="M986.13,563.68v-.02s.04,.01,0,.02Z"/><g><rect class="cls-4" x="31.16" y="415.55" width="20" height="20" rx="10" ry="10"/><g id="Group_1"><circle id="Ellipse_1" class="cls-8" cx="39.51" cy="422.17" r="1.09"/><path id="Path_1" class="cls-8" d="M38.43,430.2v-1.74l-1.55-1.36c-.17-.14-.23-.38-.15-.59l.89-2.14"/><path id="Path_2" class="cls-8" d="M35.39,425.43c.49-1.19,2.12-1.75,3.91-.87,.78,1.26,1.71,.93,2.17,.43m-3.04,1.74l.87-2.17m-4.34,4.34h1.3l1.2-1.2m7.49-1.84h-2.17m1.3-1.3l1.3,1.3-1.3,1.3"/><path id="Path_3" class="cls-8" d="M42.77,423.69v-3.91h3.91v11.29h-3.91v-3.04"/></g></g><g><rect class="cls-4" x="288.5" y="13.6" width="20" height="20" rx="10" ry="10"/><g id="Group_1-2"><circle id="Ellipse_1-2" class="cls-8" cx="296.86" cy="20.21" r="1.09"/><path id="Path_1-2" class="cls-8" d="M295.77,28.24v-1.74l-1.55-1.36c-.17-.14-.23-.38-.15-.59l.89-2.14"/><path id="Path_2-2" class="cls-8" d="M292.73,23.47c.49-1.19,2.12-1.75,3.91-.87,.78,1.26,1.71,.93,2.17,.43m-3.04,1.74l.87-2.17m-4.34,4.34h1.3l1.2-1.2m7.49-1.84h-2.17m1.3-1.3l1.3,1.3-1.3,1.3"/><path id="Path_3-2" class="cls-8" d="M300.11,21.73v-3.91h3.91v11.29h-3.91v-3.04"/></g></g><g><rect class="cls-4" x="375.5" y="14.6" width="20" height="20" rx="10" ry="10"/><g id="Group_1-3"><circle id="Ellipse_1-3" class="cls-8" cx="383.86" cy="21.21" r="1.09"/><path id="Path_1-3" class="cls-8" d="M382.77,29.24v-1.74l-1.55-1.36c-.17-.14-.23-.38-.15-.59l.89-2.14"/><path id="Path_2-3" class="cls-8" d="M379.73,24.47c.49-1.19,2.12-1.75,3.91-.87,.78,1.26,1.71,.93,2.17,.43m-3.04,1.74l.87-2.17m-4.34,4.34h1.3l1.2-1.2m7.49-1.84h-2.17m1.3-1.3l1.3,1.3-1.3,1.3"/><path id="Path_3-3" class="cls-8" d="M387.11,22.73v-3.91h3.91v11.29h-3.91v-3.04"/></g></g><g><rect class="cls-4" x="365.5" y="319.19" width="20" height="20" rx="10" ry="10"/><g id="Group_1-4"><circle id="Ellipse_1-4" class="cls-8" cx="373.86" cy="325.81" r="1.09"/><path id="Path_1-4" class="cls-8" d="M372.77,333.84v-1.74l-1.55-1.36c-.17-.14-.23-.38-.15-.59l.89-2.14"/><path id="Path_2-4" class="cls-8" d="M369.73,329.06c.49-1.19,2.12-1.75,3.91-.87,.78,1.26,1.71,.93,2.17,.43m-3.04,1.74l.87-2.17m-4.34,4.34h1.3l1.2-1.2m7.49-1.84h-2.17m1.3-1.3l1.3,1.3-1.3,1.3"/><path id="Path_3-4" class="cls-8" d="M377.11,327.33v-3.91h3.91v11.29h-3.91v-3.04"/></g></g><g><rect class="cls-4" x="356.5" y="298.19" width="20" height="20" rx="10" ry="10"/><g id="Group_2"><path id="Path_4" class="cls-10" d="M360.31,314.55v-9.07h0c-.01-.9,.71-1.64,1.61-1.66,.01,0,.03,0,.04,0h9.09c.91,0,1.65,.73,1.65,1.64,0,0,0,.01,0,.02v9.07c.02,.89-.68,1.62-1.57,1.64-.02,0-.05,0-.07,0h-9.1c-.91,0-1.65-.73-1.65-1.63,0,0,0,0,0-.01Z"/><path id="Path_5" d="M362.02,305.55h8.97v8.92h-8.97v-8.92Z"/><path class="cls-10" d="M368.18,299.62c-.01-.28,.2-.51,.48-.53s.51,.2,.53,.48c0,.02,0,.03,0,.05v2.1s.52-.66,.52-.66c.37-.41,1.03,.16,.62,.62l-1.31,1.56c-.16,.19-.45,.21-.64,.04-.02-.01-.03-.03-.04-.04l-1.3-1.56c-.4-.46,.26-1.04,.62-.62l.53,.67-.02-2.1Z"/><path class="cls-10" d="M364.54,302.88c-.01,.28,.2,.51,.48,.53,.28,.01,.51-.2,.53-.48,0-.02,0-.03,0-.05v-2.1s.52,.66,.52,.66c.37,.41,1.03-.16,.62-.62l-1.31-1.56c-.16-.19-.45-.21-.64-.04-.02,.01-.03,.03-.04,.04l-1.3,1.56c-.4,.46,.26,1.04,.62,.62l.53-.67v2.1s-.02,0-.02,0Z"/><path class="cls-10" d="M370.56,310.66c0,.17-.13,.3-.3,.31,0,0,0,0,0,0h-2.01c-.17,0-.31-.14-.31-.31v-2.18c0-.23,.18-.42,.41-.42,0,0,0,0,0,0h1.78c.23,0,.42,.18,.42,.41,0,0,0,0,0,0v2.18Z"/><path id="Path_7" class="cls-10" d="M370.07,310.89h-.76v2.95c0,.21,.16,.39,.37,.4,.21,0,.39-.16,.4-.37,0,0,0-.02,0-.03v-2.95Zm-.88,0h-.76v2.95c0,.21,.17,.38,.38,.38s.38-.17,.38-.38h0v-2.95Zm.07-3.01c.32,0,.57-.26,.57-.57s-.26-.57-.57-.57c-.32,0-.57,.26-.57,.57,0,.32,.26,.57,.57,.57h0Z"/><path id="Path_8" class="cls-10" d="M365.07,310.66c0,.17-.13,.3-.3,.31,0,0,0,0,0,0h-2.01c-.17,0-.31-.14-.31-.31v-2.18c0-.23,.18-.42,.41-.42,0,0,0,0,0,0h1.78c.23,0,.42,.18,.42,.41,0,0,0,0,0,0v2.18Z"/><path id="Path_9" class="cls-10" d="M364.58,310.89h-.76v2.95c0,.21,.16,.39,.37,.4,.21,0,.39-.16,.4-.37,0,0,0-.02,0-.03v-2.95Zm-.88,0h-.76v2.95c0,.21,.17,.38,.38,.38s.38-.17,.38-.38v-2.95Zm.07-3.01c.32,0,.57-.26,.57-.57s-.26-.57-.57-.57-.57,.26-.57,.57c0,.32,.26,.57,.57,.57h0Z"/></g></g><g><rect class="cls-4" x="367.5" y="382.19" width="20" height="20" rx="10" ry="10"/><path id="Path_3-5" class="cls-10" d="M384.48,393.24s-.06-.03-.09-.06l-6.27-2.71v-.09c0-.19,.11-.37,.28-.47,.27-.19,.47-.46,.56-.78,.15-.48,.07-1-.22-1.4-.29-.4-.75-.63-1.25-.62-.85,0-1.55,.68-1.56,1.53,0,.01,0,.02,0,.03,0,.34,.28,.62,.62,.62s.62-.28,.62-.62c0-.17,.14-.31,.31-.31,.1,0,.19,.04,.25,.12,.06,.09,.07,.21,.03,.31-.02,.05-.06,.09-.09,.12-.5,.33-.81,.89-.81,1.5v.09l-6.27,2.75s-.06,.03-.09,.06c-.56,.37-.72,1.13-.35,1.7,.22,.34,.6,.54,1,.55h12.67c.54,0,1.02-.35,1.15-.87,.19-.54-.02-1.13-.5-1.44Zm-.81,1h-12.36l6.18-2.68,6.18,2.68Z"/></g><g><rect class="cls-4" x="367.63" y="409.39" width="20" height="20" rx="10" ry="10"/><g id="Group_1-5"><path id="Path_1-5" class="cls-10" d="M372.72,425.45c-.02,.26,.18,.49,.44,.52,.03,0,.05,0,.08,0,.26,.02,.49-.17,.52-.44,0-.03,0-.05,0-.08v-4.77h.52v4.77c-.02,.26,.18,.49,.44,.52,.03,0,.05,0,.08,0,.26,.02,.49-.17,.52-.44,0-.03,0-.05,0-.08v-8.13h.26v2.92c0,.62,.78,.62,.77,0v-3.14c0-.68-.49-1.07-1.29-1.07h-2.06c-.73,0-1.29,.31-1.29,1.05v3.33c0,.21,.17,.39,.39,.39s.39-.17,.39-.39v-3.1h.26v8.13Z"/><circle id="Ellipse_1-5" class="cls-10" cx="373.98" cy="414.52" r="1.06"/><circle id="Ellipse_2" class="cls-10" cx="380.43" cy="414.52" r="1.06"/><path id="Path_2-5" class="cls-10" d="M383.02,421.58l-1.53-4.19v-.04c0-.06,.05-.11,.11-.11h0c.05,0,.1,.03,.11,.08l1.04,2.71c.13,.17,.33,.26,.54,.26,.25,0,.27-.49,.27-.52l-1.04-2.61c-.14-.66-.71-1.13-1.39-1.13h-1.35c-.68,0-1.27,.47-1.43,1.13l-.99,2.64c-.02,.05,0,.5,.27,.5,.21,0,.49-.08,.54-.27l1-2.73s.06-.08,.11-.08c.06,0,.11,.05,.11,.11,0,0,0,0,0,0v.04s-1.49,4.19-1.49,4.19c0,.01,0,.31,0,.32,0,.09,.22,.32,.31,.32h.96v3.25c0,.29,.23,.52,.52,.52s.52-.23,.52-.52v-3.38c0-.07,.52-.07,.52,0v3.35c0,.29,.23,.52,.52,.52s.52-.23,.52-.52v-3.23h1c.09,0,.27-.23,.27-.32,0-.02,0-.3,0-.32Z"/></g></g><g><rect class="cls-4" x="367.38" y="438" width="20" height="20" rx="10" ry="10"/><g id="Group_3"><path id="Path_11" class="cls-10" d="M379.68,443.1c0,.71-.58,1.29-1.29,1.29s-1.29-.58-1.29-1.29,.58-1.29,1.29-1.29,1.29,.58,1.29,1.29h0Zm-2.16,8.43l.5-.04s0-.07,0-.1c0-1.22-.99-2.21-2.21-2.21-.32,0-.63,.07-.91,.2,0,.32,.04,.64,.13,.95,.5,1.4,2.5,1.21,2.5,1.21Z"/><path id="Path_12" class="cls-11" d="M382.57,453.39c.33,.76-.81,1.34-1.27,.65s-1.58-2.66-1.58-2.66l-.23,.02h0c0,2.04-1.65,3.69-3.69,3.69s-3.69-1.65-3.69-3.69c0-1.54,.96-2.91,2.4-3.45v-2.17l-.96-.72,.44-.59,1.25,.94v.81c.08-.26,.19-.5,.34-.73,.76-1.07,.91-1.15,1.75-1.07s2.25,2.87,2.25,2.87c0,0,1.78,.42,2.46,.66s.25,1.17-.18,1.15-2.83-.25-3.15-.44-.86-1.07-.86-1.07l-.05,.71c.41,.27,.77,.61,1.05,1.02,.66,.06,1.42,.12,1.64,.12,.22-.03,.42,.09,.52,.29,0,0,1.23,2.9,1.56,3.67Zm-4.77-4.17s-.04-.04-.06-.05c-1.23-1.07-3.1-.93-4.17,.3-1.07,1.23-.93,3.1,.3,4.17,1.23,1.07,3.1,.93,4.17-.3,1.05-1.21,.94-3.03-.24-4.11Z"/></g></g><g><rect class="cls-4" x="274.72" y="417.09" width="20" height="20" rx="10" ry="10"/><path class="cls-11" d="M286.13,423.73c.36-.14,.74-.21,1.12-.2,.38,.01,.76,.1,1.11,.26,.35,.16,.66,.4,.92,.69,.74,.84,.86,2,.48,2.98-.46,1.19-1.33,2.28-2.25,3.29-.33,.36-.65,.7-.98,1.04-.6,.63-1.18,1.24-1.66,1.85-.05,.07-.13,.11-.21,.11-.08,0-.17-.03-.23-.09-.11-.11-.23-.23-.34-.34-.74-.73-1.6-1.59-2.39-2.5-.92-1.06-1.76-2.21-2.21-3.36-.14-.36-.21-.75-.2-1.14,.01-.39,.1-.77,.26-1.13,.16-.35,.39-.67,.68-.93,1.15-1.05,2.92-.87,3.99,.21l.43,.44,.53-.54c.27-.28,.6-.49,.95-.64Zm1.11,.4c-.3,0-.6,.05-.89,.16-.28,.11-.54,.29-.75,.5l-.74,.75c-.06,.06-.13,.09-.21,.09s-.15-.03-.21-.09l-.64-.65c-.87-.89-2.29-1-3.17-.19h0c-.23,.21-.41,.46-.54,.74-.13,.28-.2,.58-.21,.89,0,.31,.05,.62,.16,.9,.41,1.05,1.2,2.14,2.1,3.18,.78,.89,1.62,1.74,2.36,2.47,.04,.04,.08,.08,.12,.12,.45-.54,.98-1.1,1.51-1.66,.32-.33,.63-.67,.94-1,.91-1,1.72-2.02,2.13-3.1,.31-.8,.2-1.72-.37-2.36h0c-.2-.23-.45-.42-.72-.54-.28-.13-.57-.2-.88-.21Z"/><path class="cls-11" d="M285.54,425.79l-2.36,3.09c-.08,.1,0,.24,.12,.24h1.34l-.45,2.33,2.36-3.09c.08-.1,0-.24-.12-.24h-1.34l.45-2.33Z"/><rect class="cls-10" x="284.12" y="419.37" width="1.02" height="3.12"/><rect class="cls-10" x="284.11" y="419.39" width="1.04" height="3.07" transform="translate(-136.29 705.56) rotate(-90)"/></g><g><rect class="cls-4" x="231.39" y="360.44" width="20" height="20" rx="10" ry="10"/><path id="Path_10" class="cls-10" d="M240.35,364.69c-.69,0-1.31,.7-1.39,1.39l-.24,2.08h-1.15c-.37,.03-.67,.32-.69,.69l-.69,6.94c.03,.37,.32,.67,.69,.69h9.02c.37-.03,.67-.32,.69-.69l-.69-6.94c-.03-.37-.32-.67-.69-.69h-1.15l-.24-2.08c-.08-.69-.69-1.39-1.39-1.39h-2.08Zm0,.69h2.08c.35,0,.65,.35,.69,.69l.24,2.08h-3.94l.24-2.08c.04-.34,.35-.69,.69-.69Z"/></g><g><rect class="cls-4" x="250.36" y="340.97" width="20" height="20" rx="10" ry="10"/><rect class="cls-9" x="259.28" y="348.7" width="2.16" height="8.65"/><rect class="cls-9" x="259.22" y="344.37" width="2.16" height="1.08"/></g><g><rect class="cls-4" x="200.1" y="536.09" width="20" height="20" rx="10" ry="10"/><g id="Group_1-6"><circle id="Ellipse_1-6" class="cls-8" cx="208.45" cy="542.7" r="1.09"/><path id="Path_1-6" class="cls-8" d="M207.37,550.73v-1.74l-1.55-1.36c-.17-.14-.23-.38-.15-.59l.89-2.14"/><path id="Path_2-6" class="cls-8" d="M204.33,545.96c.49-1.19,2.12-1.75,3.91-.87,.78,1.26,1.71,.93,2.17,.43m-3.04,1.74l.87-2.17m-4.34,4.34h1.3l1.2-1.2m7.49-1.84h-2.17m1.3-1.3l1.3,1.3-1.3,1.3"/><path id="Path_3-6" class="cls-8" d="M211.71,544.22v-3.91h3.91v11.29h-3.91v-3.04"/></g></g><g><rect class="cls-4" x="294.1" y="505.09" width="20" height="20" rx="10" ry="10"/><g id="Group_1-7"><circle id="Ellipse_1-7" class="cls-8" cx="302.45" cy="511.7" r="1.09"/><path id="Path_1-7" class="cls-8" d="M301.37,519.73v-1.74l-1.55-1.36c-.17-.14-.23-.38-.15-.59l.89-2.14"/><path id="Path_2-7" class="cls-8" d="M298.33,514.96c.49-1.19,2.12-1.75,3.91-.87,.78,1.26,1.71,.93,2.17,.43m-3.04,1.74l.87-2.17m-4.34,4.34h1.3l1.2-1.2m7.49-1.84h-2.17m1.3-1.3l1.3,1.3-1.3,1.3"/><path id="Path_3-7" class="cls-8" d="M305.71,513.22v-3.91h3.91v11.29h-3.91v-3.04"/></g></g><g><rect class="cls-4" x="894.26" y="210.1" width="20" height="20" rx="10" ry="10"/><g id="Group_1-8"><circle id="Ellipse_1-8" class="cls-8" cx="902.61" cy="216.71" r="1.09"/><path id="Path_1-8" class="cls-8" d="M901.53,224.74v-1.74l-1.55-1.36c-.17-.14-.23-.38-.15-.59l.89-2.14"/><path id="Path_2-8" class="cls-8" d="M898.49,219.97c.49-1.19,2.12-1.75,3.91-.87,.78,1.26,1.71,.93,2.17,.43m-3.04,1.74l.87-2.17m-4.34,4.34h1.3l1.2-1.2m7.49-1.84h-2.17m1.3-1.3l1.3,1.3-1.3,1.3"/><path id="Path_3-8" class="cls-8" d="M905.87,218.23v-3.91h3.91v11.29h-3.91v-3.04"/></g></g><g><rect class="cls-4" x="916.26" y="360.1" width="20" height="20" rx="10" ry="10"/><g id="Group_2-2"><path id="Path_4-2" class="cls-10" d="M920.06,376.45v-9.07h0c-.01-.9,.71-1.64,1.61-1.66,.01,0,.03,0,.04,0h9.09c.91,0,1.65,.73,1.65,1.64,0,0,0,.01,0,.02v9.07c.02,.89-.68,1.62-1.57,1.64-.02,0-.05,0-.07,0h-9.1c-.91,0-1.65-.73-1.65-1.63,0,0,0,0,0-.01Z"/><path id="Path_5-2" d="M921.77,367.46h8.97v8.92h-8.97v-8.92Z"/><path class="cls-10" d="M927.93,361.52c-.01-.28,.2-.51,.48-.53s.51,.2,.53,.48c0,.02,0,.03,0,.05v2.1s.52-.66,.52-.66c.37-.41,1.03,.16,.62,.62l-1.31,1.56c-.16,.19-.45,.21-.64,.04-.02-.01-.03-.03-.04-.04l-1.3-1.56c-.4-.46,.26-1.04,.62-.62l.53,.67-.02-2.1Z"/><path class="cls-10" d="M924.29,364.78c-.01,.28,.2,.51,.48,.53,.28,.01,.51-.2,.53-.48,0-.02,0-.03,0-.05v-2.1s.52,.66,.52,.66c.37,.41,1.03-.16,.62-.62l-1.31-1.56c-.16-.19-.45-.21-.64-.04-.02,.01-.03,.03-.04,.04l-1.3,1.56c-.4,.46,.26,1.04,.62,.62l.53-.67v2.1s-.02,0-.02,0Z"/><path class="cls-10" d="M930.32,372.57c0,.17-.13,.3-.3,.31,0,0,0,0,0,0h-2.01c-.17,0-.31-.14-.31-.31v-2.18c0-.23,.18-.42,.41-.42,0,0,0,0,0,0h1.78c.23,0,.42,.18,.42,.41,0,0,0,0,0,0v2.18Z"/><path id="Path_7-2" class="cls-10" d="M929.83,372.79h-.76v2.95c0,.21,.16,.39,.37,.4,.21,0,.39-.16,.4-.37,0,0,0-.02,0-.03v-2.95Zm-.88,0h-.76v2.95c0,.21,.17,.38,.38,.38s.38-.17,.38-.38h0v-2.95Zm.07-3.01c.32,0,.57-.26,.57-.57s-.26-.57-.57-.57c-.32,0-.57,.26-.57,.57,0,.32,.26,.57,.57,.57h0Z"/><path id="Path_8-2" class="cls-10" d="M924.83,372.57c0,.17-.13,.3-.3,.31,0,0,0,0,0,0h-2.01c-.17,0-.31-.14-.31-.31v-2.18c0-.23,.18-.42,.41-.42,0,0,0,0,0,0h1.78c.23,0,.42,.18,.42,.41,0,0,0,0,0,0v2.18Z"/><path id="Path_9-2" class="cls-10" d="M924.34,372.79h-.76v2.95c0,.21,.16,.39,.37,.4,.21,0,.39-.16,.4-.37,0,0,0-.02,0-.03v-2.95Zm-.88,0h-.76v2.95c0,.21,.17,.38,.38,.38s.38-.17,.38-.38v-2.95Zm.07-3.01c.32,0,.57-.26,.57-.57s-.26-.57-.57-.57-.57,.26-.57,.57c0,.32,.26,.57,.57,.57h0Z"/></g></g><g><rect class="cls-4" x="1141.99" y="281.21" width="20" height="20" rx="10" ry="10"/><g id="Group_2-3"><path id="Path_4-3" class="cls-10" d="M1145.79,297.57v-9.07h0c-.01-.9,.71-1.64,1.61-1.66,.01,0,.03,0,.04,0h9.09c.91,0,1.65,.73,1.65,1.64,0,0,0,.01,0,.02v9.07c.02,.89-.68,1.62-1.57,1.64-.02,0-.05,0-.07,0h-9.1c-.91,0-1.65-.73-1.65-1.63,0,0,0,0,0-.01Z"/><path id="Path_5-3" d="M1147.51,288.58h8.97v8.92h-8.97v-8.92Z"/><path class="cls-10" d="M1153.67,282.64c-.01-.28,.2-.51,.48-.53s.51,.2,.53,.48c0,.02,0,.03,0,.05v2.1s.52-.66,.52-.66c.37-.41,1.03,.16,.62,.62l-1.31,1.56c-.16,.19-.45,.21-.64,.04-.02-.01-.03-.03-.04-.04l-1.3-1.56c-.4-.46,.26-1.04,.62-.62l.53,.67-.02-2.1Z"/><path class="cls-10" d="M1150.03,285.9c-.01,.28,.2,.51,.48,.53,.28,.01,.51-.2,.53-.48,0-.02,0-.03,0-.05v-2.1s.52,.66,.52,.66c.37,.41,1.03-.16,.62-.62l-1.31-1.56c-.16-.19-.45-.21-.64-.04-.02,.01-.03,.03-.04,.04l-1.3,1.56c-.4,.46,.26,1.04,.62,.62l.53-.67v2.1s-.02,0-.02,0Z"/><path class="cls-10" d="M1156.05,293.68c0,.17-.13,.3-.3,.31,0,0,0,0,0,0h-2.01c-.17,0-.31-.14-.31-.31v-2.18c0-.23,.18-.42,.41-.42,0,0,0,0,0,0h1.78c.23,0,.42,.18,.42,.41,0,0,0,0,0,0v2.18Z"/><path id="Path_7-3" class="cls-10" d="M1155.56,293.91h-.76v2.95c0,.21,.16,.39,.37,.4,.21,0,.39-.16,.4-.37,0,0,0-.02,0-.03v-2.95Zm-.88,0h-.76v2.95c0,.21,.17,.38,.38,.38s.38-.17,.38-.38h0v-2.95Zm.07-3.01c.32,0,.57-.26,.57-.57s-.26-.57-.57-.57c-.32,0-.57,.26-.57,.57,0,.32,.26,.57,.57,.57h0Z"/><path id="Path_8-3" class="cls-10" d="M1150.56,293.68c0,.17-.13,.3-.3,.31,0,0,0,0,0,0h-2.01c-.17,0-.31-.14-.31-.31v-2.18c0-.23,.18-.42,.41-.42,0,0,0,0,0,0h1.78c.23,0,.42,.18,.42,.41,0,0,0,0,0,0v2.18Z"/><path id="Path_9-3" class="cls-10" d="M1150.07,293.91h-.76v2.95c0,.21,.16,.39,.37,.4,.21,0,.39-.16,.4-.37,0,0,0-.02,0-.03v-2.95Zm-.88,0h-.76v2.95c0,.21,.17,.38,.38,.38s.38-.17,.38-.38v-2.95Zm.07-3.01c.32,0,.57-.26,.57-.57s-.26-.57-.57-.57-.57,.26-.57,.57c0,.32,.26,.57,.57,.57h0Z"/></g></g><g><rect class="cls-4" x="1150.99" y="301.21" width="20" height="20" rx="10" ry="10"/><g id="Group_1-9"><circle id="Ellipse_1-9" class="cls-8" cx="1159.34" cy="307.83" r="1.09"/><path id="Path_1-9" class="cls-8" d="M1158.26,315.86v-1.74l-1.55-1.36c-.17-.14-.23-.38-.15-.59l.89-2.14"/><path id="Path_2-9" class="cls-8" d="M1155.22,311.09c.49-1.19,2.12-1.75,3.91-.87,.78,1.26,1.71,.93,2.17,.43m-3.04,1.74l.87-2.17m-4.34,4.34h1.3l1.2-1.2m7.49-1.84h-2.17m1.3-1.3l1.3,1.3-1.3,1.3"/><path id="Path_3-9" class="cls-8" d="M1162.6,309.35v-3.91h3.91v11.29h-3.91v-3.04"/></g></g><g><rect class="cls-4" x="1184.44" y=".53" width="20" height="20" rx="10" ry="10"/><g id="Group_1-10"><circle id="Ellipse_1-10" class="cls-8" cx="1192.79" cy="7.15" r="1.09"/><path id="Path_1-10" class="cls-8" d="M1191.71,15.18v-1.74l-1.55-1.36c-.17-.14-.23-.38-.15-.59l.89-2.14"/><path id="Path_2-10" class="cls-8" d="M1188.67,10.4c.49-1.19,2.12-1.75,3.91-.87,.78,1.26,1.71,.93,2.17,.43m-3.04,1.74l.87-2.17m-4.34,4.34h1.3l1.2-1.2m7.49-1.84h-2.17m1.3-1.3l1.3,1.3-1.3,1.3"/><path id="Path_3-10" class="cls-8" d="M1196.05,8.67v-3.91h3.91v11.29h-3.91v-3.04"/></g></g><g><rect class="cls-4" x="1180.5" y="556.57" width="20" height="20" rx="10" ry="10"/><g id="Group_1-11"><circle id="Ellipse_1-11" class="cls-8" cx="1188.86" cy="563.19" r="1.09"/><path id="Path_1-11" class="cls-8" d="M1187.77,571.22v-1.74l-1.55-1.36c-.17-.14-.23-.38-.15-.59l.89-2.14"/><path id="Path_2-11" class="cls-8" d="M1184.73,566.45c.49-1.19,2.12-1.75,3.91-.87,.78,1.26,1.71,.93,2.17,.43m-3.04,1.74l.87-2.17m-4.34,4.34h1.3l1.2-1.2m7.49-1.84h-2.17m1.3-1.3l1.3,1.3-1.3,1.3"/><path id="Path_3-11" class="cls-8" d="M1192.11,564.71v-3.91h3.91v11.29h-3.91v-3.04"/></g></g><g><rect class="cls-4" x="348.59" y="512.3" width="20" height="20" rx="10" ry="10"/><path id="Path_16" class="cls-10" d="M354.92,517.28h0c-.09,0-.16,.07-.16,.16,0,.04,.02,.08,.05,.11l1.14,1.14,.69,.69c.07,.06,.07,.16,0,.23-.06,.07-.16,.07-.23,0,0,0,0,0,0,0l-.69-.69-1.14-1.14c-.06-.06-.16-.07-.23,0-.06,.06-.07,.16,0,.23,0,0,0,0,0,0l1.14,1.14,.69,.69c.06,.07,.06,.17,0,.23-.06,.06-.16,.06-.22,0l-.69-.69-1.14-1.14c-.06-.06-.16-.07-.23,0-.06,.06-.07,.16,0,.23,0,0,0,0,0,0l1.14,1.14h0l.69,.69c.06,.07,.06,.17,0,.23-.06,.06-.16,.06-.22,0l-.69-.69-1.03-1.03-.11-.11c-.06-.06-.16-.07-.23,0-.06,.06-.07,.16,0,.23,0,0,0,0,0,0l.11,.11,1.03,1.03,.69,.69,.34,.34c.14,.14,.35,.18,.53,.1l.5-.21,6.22,6.59c.12,.13,.31,.13,.44,.01,0,0,0,0,0,0l.39-.39c.13-.13,.13-.34,0-.47,0,0,0,0,0,0l-6.58-6.21,.21-.49c.08-.18,.04-.39-.1-.53l-1.03-1.03-1.14-1.14s-.07-.05-.11-.05Zm7.97,.54c-1.07,0-1.94,.5-2.78,1.34l-1.94,1.94,1.18,1.11,4.31-4.31c-.25-.05-.51-.08-.77-.08Zm-5.28,4.69l-4,3.64c-.13,.11-.14,.31-.02,.44,0,0,0,0,.01,.01l.46,.46c.13,.13,.33,.13,.46,0l3.8-3.8-.7-.74h0Z"/></g></svg>