<?xml version="1.0" encoding="UTF-8"?><svg id="Lager_2" xmlns="http://www.w3.org/2000/svg" viewBox="0 0 452.26 664.13"><defs><style>.cls-1{fill:#6cb7e6;}.cls-1,.cls-2,.cls-3,.cls-4,.cls-5,.cls-6{stroke:#000;}.cls-1,.cls-2,.cls-3,.cls-5,.cls-6{stroke-miterlimit:10;}.cls-7,.cls-6{fill:#fff;}.cls-2,.cls-8{fill:none;}.cls-3{fill:#ccc;}.cls-3,.cls-5{stroke-width:.5px;}.cls-4,.cls-8{stroke-linecap:round;stroke-linejoin:round;}.cls-8{stroke:#f2f2f2;}.cls-5{fill:#b3b3b3;}</style></defs><g id="Lager_1-2"><path class="cls-1" d="M15.88,426.25h9.15l-.15,41H.5l.38,166H66.88v30.38l103-.38v-32.06l66-.94v-158h11v6.73l84-.73v152.35l119-.35V356.77h-40v-28.52s-20.5,0-20.5,0l-.5-45h57.07L442.88,2.25h-106.91l-.09,81h-9V229.25s27,29,0,78v105h-100v-18l5.62-.03V243.37l-161.62-.12v68H12.88l-1,115h4Z"/><polygon class="cls-6" points="57.88 424.25 57.88 468.6 69.34 468.6 69.34 599.54 167.05 599.54 167.05 429.43 186.88 429.25 186.88 418.88 57.88 418.88 57.88 424.25"/><line class="cls-2" x1="246.88" y1="472.25" x2="222.38" y2="472.25"/><line class="cls-2" x1="236.38" y1="509.25" x2="222.88" y2="509.25"/><line class="cls-2" x1="166.88" y1="472.25" x2="201.88" y2="472.25"/><line class="cls-2" x1="167.38" y1="509.25" x2="202.38" y2="509.25"/><line class="cls-2" x1="320.88" y1="412.25" x2="320.88" y2="435.25"/><line class="cls-2" x1="330.88" y1="490.25" x2="361.88" y2="490.25"/><line class="cls-2" x1="380.38" y1="490.25" x2="404.38" y2="490.25"/><line class="cls-2" x1="403.88" y1="450.25" x2="403.88" y2="490.25"/><line class="cls-2" x1="411.38" y1="356.75" x2="375.38" y2="356.75"/><line class="cls-2" x1="450.38" y1="398.25" x2="375.38" y2="398.25"/><line class="cls-2" x1="449.88" y1="419.25" x2="419.88" y2="441.25"/><line class="cls-2" x1="326.88" y1="338.25" x2="355.88" y2="338.25"/><line class="cls-2" x1="326.88" y1="307.25" x2="355.88" y2="317.25"/><line class="cls-2" x1="335.88" y1="83.25" x2="372.88" y2="83.25"/><line class="cls-2" x1="443.88" y1="83.25" x2="408.88" y2="83.25"/><line class="cls-2" x1="326.88" y1="222.25" x2="343.88" y2="222.25"/><line class="cls-2" x1="357.88" y1="222.25" x2="388.38" y2="222.25"/><line class="cls-2" x1="388.88" y1="283.25" x2="387.88" y2="176.25"/><line class="cls-2" x1="387.38" y1="176.25" x2="396.38" y2="176.25"/><line class="cls-2" x1="444.88" y1="176.25" x2="412.88" y2="176.25"/><line class="cls-2" x1="60.88" y1="311.25" x2="60.88" y2="375.25"/><line class="cls-2" x1="11.88" y1="375.25" x2="27.88" y2="375.25"/><line class="cls-2" x1="61.38" y1="375.25" x2="45.38" y2="375.25"/><line class="cls-2" x1="70.88" y1="311.25" x2="121.88" y2="311.25"/><line class="cls-2" x1="232.88" y1="311.25" x2="144.88" y2="311.25"/><line class="cls-2" x1="89.88" y1="311.25" x2="89.88" y2="337.25"/><line class="cls-2" x1="89.88" y1="419.25" x2="89.88" y2="402.25"/><line class="cls-2" x1="60.88" y1="375.25" x2="108.88" y2="375.25"/><line class="cls-2" x1="89.88" y1="358.25" x2="89.88" y2="391.25"/><line class="cls-2" x1="125.88" y1="375.25" x2="188.88" y2="375.25"/><line class="cls-2" x1="232.88" y1="375.25" x2="205.88" y2="375.25"/><g><rect class="cls-5" x="102.88" y="430.25" width="31" height="2"/><rect class="cls-3" x="102.88" y="428.25" width="31" height="2"/><rect class="cls-5" x="102.88" y="422.25" width="31" height="2"/><rect class="cls-3" x="102.88" y="420.25" width="31" height="2"/><rect class="cls-5" x="102.88" y="418.25" width="31" height="2"/><rect class="cls-3" x="102.88" y="416.25" width="31" height="2"/><rect class="cls-5" x="102.88" y="426.25" width="31" height="2"/><rect class="cls-3" x="102.88" y="424.25" width="31" height="2"/></g><rect class="cls-5" x="392.38" y="376.75" width="31" height="2" transform="translate(30.13 785.63) rotate(-90)"/><rect class="cls-3" x="390.38" y="376.75" width="31" height="2" transform="translate(28.13 783.63) rotate(-90)"/><rect class="cls-5" x="384.38" y="376.75" width="31" height="2" transform="translate(22.13 777.63) rotate(-90)"/><rect class="cls-3" x="382.38" y="376.75" width="31" height="2" transform="translate(20.13 775.63) rotate(-90)"/><rect class="cls-5" x="380.38" y="376.75" width="31" height="2" transform="translate(18.13 773.63) rotate(-90)"/><rect class="cls-3" x="378.38" y="376.75" width="31" height="2" transform="translate(16.13 771.63) rotate(-90)"/><rect class="cls-5" x="388.38" y="376.75" width="31" height="2" transform="translate(26.13 781.63) rotate(-90)"/><rect class="cls-3" x="386.38" y="376.75" width="31" height="2" transform="translate(24.13 779.63) rotate(-90)"/><rect class="cls-5" x="376.38" y="376.75" width="31" height="2" transform="translate(14.13 769.63) rotate(-90)"/><rect class="cls-3" x="374.38" y="376.75" width="31" height="2" transform="translate(12.13 767.63) rotate(-90)"/><rect class="cls-5" x="368.38" y="376.75" width="31" height="2" transform="translate(6.13 761.63) rotate(-90)"/><rect class="cls-3" x="366.38" y="376.75" width="31" height="2" transform="translate(4.13 759.63) rotate(-90)"/><rect class="cls-5" x="364.38" y="376.75" width="31" height="2" transform="translate(2.13 757.63) rotate(-90)"/><rect class="cls-3" x="362.38" y="376.75" width="31" height="2" transform="translate(.13 755.63) rotate(-90)"/><rect class="cls-5" x="372.38" y="376.75" width="31" height="2" transform="translate(10.13 765.63) rotate(-90)"/><rect class="cls-3" x="370.38" y="376.75" width="31" height="2" transform="translate(8.13 763.63) rotate(-90)"/><rect class="cls-5" x="402.38" y="376.75" width="31" height="2" transform="translate(40.13 795.63) rotate(-90)"/><rect class="cls-3" x="400.38" y="376.75" width="31" height="2" transform="translate(38.13 793.63) rotate(-90)"/><rect class="cls-5" x="394.38" y="376.75" width="31" height="2" transform="translate(32.13 787.63) rotate(-90)"/><rect class="cls-5" x="398.38" y="376.75" width="31" height="2" transform="translate(36.13 791.63) rotate(-90)"/><rect class="cls-3" x="396.38" y="376.75" width="31" height="2" transform="translate(34.13 789.63) rotate(-90)"/><g><rect class="cls-5" x="377.88" y="235.25" width="9.5" height="2"/><rect class="cls-3" x="377.88" y="233.25" width="9.5" height="2"/><rect class="cls-5" x="377.88" y="227.25" width="9.5" height="2"/><rect class="cls-5" x="377.88" y="231.25" width="9.5" height="2"/><rect class="cls-3" x="377.88" y="229.25" width="9.5" height="2"/><rect class="cls-5" x="377.88" y="225.25" width="9.5" height="2"/><rect class="cls-3" x="377.88" y="223.25" width="9.5" height="2"/><rect class="cls-5" x="377.88" y="217.25" width="9.5" height="2"/><rect class="cls-5" x="377.88" y="221.25" width="9.5" height="2"/><rect class="cls-3" x="377.88" y="219.25" width="9.5" height="2"/><rect class="cls-5" x="377.88" y="215.25" width="9.5" height="2"/><rect class="cls-3" x="377.88" y="213.25" width="9.5" height="2"/><rect class="cls-5" x="377.88" y="207.25" width="9.5" height="2"/><rect class="cls-5" x="377.88" y="211.25" width="9.5" height="2"/><rect class="cls-3" x="377.88" y="209.25" width="9.5" height="2"/><rect class="cls-5" x="377.88" y="205.25" width="9.5" height="2"/><rect class="cls-3" x="377.88" y="203.25" width="9.5" height="2"/><rect class="cls-5" x="377.88" y="197.25" width="9.5" height="2"/><rect class="cls-5" x="377.88" y="201.25" width="9.5" height="2"/><rect class="cls-3" x="377.88" y="199.25" width="9.5" height="2"/></g><rect class="cls-5" x="191.88" y="418.25" width="31" height="2"/><rect class="cls-3" x="191.88" y="416.25" width="31" height="2"/><rect class="cls-5" x="191.88" y="410.25" width="31" height="2"/><rect class="cls-5" x="191.88" y="414.25" width="31" height="2"/><rect class="cls-3" x="191.88" y="412.25" width="31" height="2"/><rect class="cls-3" x="191.88" y="408.25" width="31" height="2"/><g><rect class="cls-4" x="140.9" y="233.59" width="18.5" height="18.5" rx="9.25" ry="9.25"/><g id="Group_1"><circle id="Ellipse_1" class="cls-8" cx="148.62" cy="239.7" r="1"/><path id="Path_1" class="cls-8" d="M147.62,247.14v-1.61l-1.44-1.26c-.16-.13-.22-.36-.14-.55l.82-1.98"/><path id="Path_2" class="cls-8" d="M144.81,242.72c.46-1.1,1.96-1.62,3.61-.8,.72,1.16,1.58,.86,2.01,.4m-2.81,1.61l.8-2.01m-4.02,4.02h1.2l1.11-1.11m6.93-1.7h-2.01m1.2-1.2l1.2,1.2-1.2,1.2"/><path id="Path_3" class="cls-8" d="M151.63,241.11v-3.61h3.61v10.44h-3.61v-2.81"/></g></g><g><rect class="cls-4" x="171.6" y="399.59" width="18.5" height="18.5" rx="9.25" ry="9.25"/><g id="Group_2"><path id="Path_4" class="cls-7" d="M175.12,414.71v-8.39h0c-.01-.83,.65-1.52,1.49-1.53,.01,0,.03,0,.04,0h8.41c.84,0,1.52,.67,1.53,1.52,0,0,0,.01,0,.02v8.39c.02,.82-.63,1.5-1.45,1.52-.02,0-.04,0-.07,0h-8.42c-.84,0-1.53-.67-1.53-1.51,0,0,0,0,0-.01Z"/><path id="Path_5" d="M176.7,406.4h8.3v8.25h-8.3v-8.25Z"/><path class="cls-7" d="M182.4,400.91c-.01-.26,.19-.47,.44-.49s.47,.19,.49,.44c0,.01,0,.03,0,.04v1.95s.49-.61,.49-.61c.34-.38,.95,.15,.58,.58l-1.21,1.44c-.15,.17-.42,.19-.59,.04-.01-.01-.03-.03-.04-.04l-1.21-1.45c-.37-.43,.24-.96,.58-.58l.49,.62v-1.95Z"/><path class="cls-7" d="M179.03,403.92c-.01,.26,.19,.47,.44,.49,.26,.01,.47-.19,.49-.44,0-.01,0-.03,0-.04v-1.95s.49,.61,.49,.61c.34,.38,.95-.15,.58-.58l-1.21-1.44c-.15-.17-.42-.19-.59-.04-.01,.01-.03,.03-.04,.04l-1.21,1.45c-.37,.43,.24,.96,.58,.58l.49-.62v1.95s-.01,0-.01,0Z"/><path class="cls-7" d="M184.6,411.12c0,.16-.12,.28-.28,.28,0,0,0,0,0,0h-1.86c-.16,0-.28-.13-.28-.28v-2.02c0-.21,.17-.39,.38-.39,0,0,0,0,0,0h1.65c.21,0,.39,.17,.39,.38,0,0,0,0,0,0v2.02Z"/><path id="Path_7" class="cls-7" d="M184.15,411.33h-.71v2.73c0,.2,.15,.36,.34,.37,.2,0,.36-.15,.37-.34,0,0,0-.02,0-.03v-2.73Zm-.81,0h-.71v2.73c0,.2,.16,.35,.35,.35s.35-.16,.35-.35h0v-2.73Zm.06-2.78c.29,0,.53-.24,.53-.53s-.24-.53-.53-.53c-.29,0-.53,.24-.53,.53,0,.29,.24,.53,.53,.53h0Z"/><path id="Path_8" class="cls-7" d="M179.52,411.12c0,.16-.12,.28-.28,.28,0,0,0,0,0,0h-1.86c-.16,0-.28-.13-.28-.28v-2.02c0-.21,.17-.39,.38-.39,0,0,0,0,0,0h1.65c.21,0,.39,.17,.39,.38,0,0,0,0,0,0v2.02Z"/><path id="Path_9" class="cls-7" d="M179.07,411.33h-.71v2.73c0,.2,.15,.36,.34,.37,.2,0,.36-.15,.37-.34,0,0,0-.02,0-.03v-2.73Zm-.81,0h-.71v2.73c0,.2,.16,.35,.35,.35s.35-.16,.35-.35v-2.73Zm.06-2.78c.29,0,.53-.24,.53-.53s-.24-.53-.53-.53-.53,.24-.53,.53c0,.29,.24,.53,.53,.53h0Z"/></g></g><g><rect class="cls-4" x="390.26" y="318.5" width="18.5" height="18.5" rx="9.25" ry="9.25"/><g id="Group_2-2"><path id="Path_4-2" class="cls-7" d="M393.78,333.63v-8.39h0c-.01-.83,.65-1.52,1.49-1.53,.01,0,.03,0,.04,0h8.41c.84,0,1.52,.67,1.53,1.52,0,0,0,.01,0,.02v8.39c.02,.82-.63,1.5-1.45,1.52-.02,0-.04,0-.07,0h-8.42c-.84,0-1.53-.67-1.53-1.51,0,0,0,0,0-.01Z"/><path id="Path_5-2" d="M395.36,325.31h8.3v8.25h-8.3v-8.25Z"/><path class="cls-7" d="M401.06,319.82c-.01-.26,.19-.47,.44-.49s.47,.19,.49,.44c0,.01,0,.03,0,.04v1.95s.49-.61,.49-.61c.34-.38,.95,.15,.58,.58l-1.21,1.44c-.15,.17-.42,.19-.59,.04-.01-.01-.03-.03-.04-.04l-1.21-1.45c-.37-.43,.24-.96,.58-.58l.49,.62v-1.95Z"/><path class="cls-7" d="M397.69,322.84c-.01,.26,.19,.47,.44,.49,.26,.01,.47-.19,.49-.44,0-.01,0-.03,0-.04v-1.95s.49,.61,.49,.61c.34,.38,.95-.15,.58-.58l-1.21-1.44c-.15-.17-.42-.19-.59-.04-.01,.01-.03,.03-.04,.04l-1.21,1.45c-.37,.43,.24,.96,.58,.58l.49-.62v1.95s-.01,0-.01,0Z"/><path class="cls-7" d="M403.26,330.04c0,.16-.12,.28-.28,.28,0,0,0,0,0,0h-1.86c-.16,0-.28-.13-.28-.28v-2.02c0-.21,.17-.39,.38-.39,0,0,0,0,0,0h1.65c.21,0,.39,.17,.39,.38,0,0,0,0,0,0v2.02Z"/><path id="Path_7-2" class="cls-7" d="M402.81,330.25h-.71v2.73c0,.2,.15,.36,.34,.37,.2,0,.36-.15,.37-.34,0,0,0-.02,0-.03v-2.73Zm-.81,0h-.71v2.73c0,.2,.16,.35,.35,.35s.35-.16,.35-.35h0v-2.73Zm.06-2.78c.29,0,.53-.24,.53-.53s-.24-.53-.53-.53c-.29,0-.53,.24-.53,.53,0,.29,.24,.53,.53,.53h0Z"/><path id="Path_8-2" class="cls-7" d="M398.18,330.04c0,.16-.12,.28-.28,.28,0,0,0,0,0,0h-1.86c-.16,0-.28-.13-.28-.28v-2.02c0-.21,.17-.39,.38-.39,0,0,0,0,0,0h1.65c.21,0,.39,.17,.39,.38,0,0,0,0,0,0v2.02Z"/><path id="Path_9-2" class="cls-7" d="M397.73,330.25h-.71v2.73c0,.2,.15,.36,.34,.37,.2,0,.36-.15,.37-.34,0,0,0-.02,0-.03v-2.73Zm-.81,0h-.71v2.73c0,.2,.16,.35,.35,.35s.35-.16,.35-.35v-2.73Zm.06-2.78c.29,0,.53-.24,.53-.53s-.24-.53-.53-.53-.53,.24-.53,.53c0,.29,.24,.53,.53,.53h0Z"/></g></g><g><rect class="cls-4" x="431.26" y="619.5" width="18.5" height="18.5" rx="9.25" ry="9.25"/><g id="Group_1-2"><circle id="Ellipse_1-2" class="cls-8" cx="438.98" cy="625.62" r="1"/><path id="Path_1-2" class="cls-8" d="M437.98,633.05v-1.61l-1.44-1.26c-.16-.13-.22-.36-.14-.55l.82-1.98"/><path id="Path_2-2" class="cls-8" d="M435.17,628.63c.46-1.1,1.96-1.62,3.61-.8,.72,1.16,1.58,.86,2.01,.4m-2.81,1.61l.8-2.01m-4.02,4.02h1.2l1.11-1.11m6.93-1.7h-2.01m1.2-1.2l1.2,1.2-1.2,1.2"/><path id="Path_3-2" class="cls-8" d="M442,627.03v-3.61h3.61v10.44h-3.61v-2.81"/></g></g><g><rect class="cls-4" x="433.26" y=".5" width="18.5" height="18.5" rx="9.25" ry="9.25"/><g id="Group_1-3"><circle id="Ellipse_1-3" class="cls-8" cx="440.98" cy="6.62" r="1"/><path id="Path_1-3" class="cls-8" d="M439.98,14.05v-1.61l-1.44-1.26c-.16-.13-.22-.36-.14-.55l.82-1.98"/><path id="Path_2-3" class="cls-8" d="M437.17,9.63c.46-1.1,1.96-1.62,3.61-.8,.72,1.16,1.58,.86,2.01,.4m-2.81,1.61l.8-2.01m-4.02,4.02h1.2l1.11-1.11m6.93-1.7h-2.01m1.2-1.2l1.2,1.2-1.2,1.2"/><path id="Path_3-3" class="cls-8" d="M444,8.03v-3.61h3.61V14.85h-3.61v-2.81"/></g></g><g><rect class="cls-4" x="400.26" y="337.5" width="18.5" height="18.5" rx="9.25" ry="9.25"/><g id="Group_1-4"><circle id="Ellipse_1-4" class="cls-8" cx="407.98" cy="343.62" r="1"/><path id="Path_1-4" class="cls-8" d="M406.98,351.05v-1.61l-1.44-1.26c-.16-.13-.22-.36-.14-.55l.82-1.98"/><path id="Path_2-4" class="cls-8" d="M404.17,346.63c.46-1.1,1.96-1.62,3.61-.8,.72,1.16,1.58,.86,2.01,.4m-2.81,1.61l.8-2.01m-4.02,4.02h1.2l1.11-1.11m6.93-1.7h-2.01m1.2-1.2l1.2,1.2-1.2,1.2"/><path id="Path_3-4" class="cls-8" d="M411,345.03v-3.61h3.61v10.44h-3.61v-2.81"/></g></g><line class="cls-6" x1="69.34" y1="599.54" x2="69.34" y2="614.27"/><line class="cls-1" x1="167.05" y1="599.54" x2="167.05" y2="614.27"/></g></svg>